%TF.GenerationSoftware,KiCad,Pcbnew,7.0.1*%
%TF.CreationDate,2024-01-27T23:50:39-07:00*%
%TF.ProjectId,Uno_Shield_PhaseB,556e6f5f-5368-4696-956c-645f50686173,rev?*%
%TF.SameCoordinates,Original*%
%TF.FileFunction,Copper,L2,Bot*%
%TF.FilePolarity,Positive*%
%FSLAX46Y46*%
G04 Gerber Fmt 4.6, Leading zero omitted, Abs format (unit mm)*
G04 Created by KiCad (PCBNEW 7.0.1) date 2024-01-27 23:50:39*
%MOMM*%
%LPD*%
G01*
G04 APERTURE LIST*
%TA.AperFunction,ComponentPad*%
%ADD10R,1.800000X1.070000*%
%TD*%
%TA.AperFunction,ComponentPad*%
%ADD11O,1.800000X1.070000*%
%TD*%
%TA.AperFunction,ComponentPad*%
%ADD12C,1.440000*%
%TD*%
%TA.AperFunction,ComponentPad*%
%ADD13R,1.700000X1.700000*%
%TD*%
%TA.AperFunction,ComponentPad*%
%ADD14O,1.700000X1.700000*%
%TD*%
%TA.AperFunction,ComponentPad*%
%ADD15C,1.600000*%
%TD*%
%TA.AperFunction,ComponentPad*%
%ADD16O,1.600000X1.600000*%
%TD*%
%TA.AperFunction,ComponentPad*%
%ADD17C,2.000000*%
%TD*%
%TA.AperFunction,ComponentPad*%
%ADD18R,1.800000X1.800000*%
%TD*%
%TA.AperFunction,ComponentPad*%
%ADD19C,1.800000*%
%TD*%
%TA.AperFunction,ViaPad*%
%ADD20C,0.800000*%
%TD*%
%TA.AperFunction,Conductor*%
%ADD21C,0.254000*%
%TD*%
%TA.AperFunction,Conductor*%
%ADD22C,0.508000*%
%TD*%
G04 APERTURE END LIST*
D10*
%TO.P,D5,2,RA*%
%TO.N,Net-(D5-RA)*%
X148768000Y-56566000D03*
D11*
%TO.P,D5,1,K*%
%TO.N,GND*%
X148768000Y-57836000D03*
%TO.P,D5,3,GA*%
%TO.N,Net-(D5-GA)*%
X148768000Y-59106000D03*
%TO.P,D5,4,BA*%
%TO.N,Net-(D5-BA)*%
X148768000Y-60376000D03*
%TD*%
D12*
%TO.P,RV2,1,1*%
%TO.N,+5V*%
X149784000Y-88570000D03*
%TO.P,RV2,2,2*%
%TO.N,POT_2*%
X152324000Y-91110000D03*
%TO.P,RV2,3,3*%
%TO.N,GND*%
X154864000Y-88570000D03*
%TD*%
%TO.P,RV1,1,1*%
%TO.N,+5V*%
X137846000Y-88555000D03*
%TO.P,RV1,2,2*%
%TO.N,POT_1*%
X140386000Y-91095000D03*
%TO.P,RV1,3,3*%
%TO.N,GND*%
X142926000Y-88555000D03*
%TD*%
D13*
%TO.P,J4,1,Pin_1*%
%TO.N,GREEN_LED*%
X145720000Y-49200000D03*
D14*
%TO.P,J4,2,Pin_2*%
%TO.N,RGB_GREEN*%
X148260000Y-49200000D03*
%TO.P,J4,3,Pin_3*%
%TO.N,RGB_BLUE*%
X150800000Y-49200000D03*
%TO.P,J4,4,Pin_4*%
%TO.N,RED_LED*%
X153340000Y-49200000D03*
%TO.P,J4,5,Pin_5*%
%TO.N,BUTTON_2*%
X155880000Y-49200000D03*
%TO.P,J4,6,Pin_6*%
%TO.N,BUTTON_1*%
X158420000Y-49200000D03*
%TO.P,J4,7,Pin_7*%
%TO.N,/TX{slash}1*%
X160960000Y-49200000D03*
%TO.P,J4,8,Pin_8*%
%TO.N,/RX{slash}0*%
X163500000Y-49200000D03*
%TD*%
D13*
%TO.P,J3,1,Pin_1*%
%TO.N,POT_1*%
X150800000Y-97460000D03*
D14*
%TO.P,J3,2,Pin_2*%
%TO.N,POT_2*%
X153340000Y-97460000D03*
%TO.P,J3,3,Pin_3*%
%TO.N,A2*%
X155880000Y-97460000D03*
%TO.P,J3,4,Pin_4*%
%TO.N,A3*%
X158420000Y-97460000D03*
%TO.P,J3,5,Pin_5*%
%TO.N,unconnected-(J3-Pin_5-Pad5)*%
X160960000Y-97460000D03*
%TO.P,J3,6,Pin_6*%
%TO.N,unconnected-(J3-Pin_6-Pad6)*%
X163500000Y-97460000D03*
%TD*%
D13*
%TO.P,J2,1,Pin_1*%
%TO.N,I2C_Clock*%
X118796000Y-49200000D03*
D14*
%TO.P,J2,2,Pin_2*%
%TO.N,I2C_Data*%
X121336000Y-49200000D03*
%TO.P,J2,3,Pin_3*%
%TO.N,/AREF*%
X123876000Y-49200000D03*
%TO.P,J2,4,Pin_4*%
%TO.N,GND*%
X126416000Y-49200000D03*
%TO.P,J2,5,Pin_5*%
%TO.N,SPI_SCK*%
X128956000Y-49200000D03*
%TO.P,J2,6,Pin_6*%
%TO.N,SPI_MISO*%
X131496000Y-49200000D03*
%TO.P,J2,7,Pin_7*%
%TO.N,SPI_MOSI*%
X134036000Y-49200000D03*
%TO.P,J2,8,Pin_8*%
%TO.N,SPI_SS*%
X136576000Y-49200000D03*
%TO.P,J2,9,Pin_9*%
%TO.N,RGB_RED*%
X139116000Y-49200000D03*
%TO.P,J2,10,Pin_10*%
%TO.N,BLUE_LED*%
X141656000Y-49200000D03*
%TD*%
D13*
%TO.P,J1,1,Pin_1*%
%TO.N,unconnected-(J1-Pin_1-Pad1)*%
X127940000Y-97460000D03*
D14*
%TO.P,J1,2,Pin_2*%
%TO.N,/IOREF*%
X130480000Y-97460000D03*
%TO.P,J1,3,Pin_3*%
%TO.N,/~{RESET}*%
X133020000Y-97460000D03*
%TO.P,J1,4,Pin_4*%
%TO.N,+3V3*%
X135560000Y-97460000D03*
%TO.P,J1,5,Pin_5*%
%TO.N,+5V*%
X138100000Y-97460000D03*
%TO.P,J1,6,Pin_6*%
%TO.N,GND*%
X140640000Y-97460000D03*
%TO.P,J1,7,Pin_7*%
X143180000Y-97460000D03*
%TO.P,J1,8,Pin_8*%
%TO.N,VCC*%
X145720000Y-97460000D03*
%TD*%
D15*
%TO.P,R10,1*%
%TO.N,GND*%
X157404000Y-77648000D03*
D16*
%TO.P,R10,2*%
%TO.N,BUTTON_2*%
X157404000Y-67488000D03*
%TD*%
D15*
%TO.P,R4,1*%
%TO.N,GND*%
X155880000Y-63678000D03*
D16*
%TO.P,R4,2*%
%TO.N,BUTTON_1*%
X155880000Y-53518000D03*
%TD*%
D15*
%TO.P,R3,1*%
%TO.N,BLUE_LED*%
X145466000Y-68758000D03*
D16*
%TO.P,R3,2*%
%TO.N,Net-(D3-A)*%
X145466000Y-78918000D03*
%TD*%
D15*
%TO.P,R2,1*%
%TO.N,GREEN_LED*%
X149022000Y-68758000D03*
D16*
%TO.P,R2,2*%
%TO.N,Net-(D2-A)*%
X149022000Y-78918000D03*
%TD*%
D15*
%TO.P,R1,1*%
%TO.N,RED_LED*%
X152578000Y-68758000D03*
D16*
%TO.P,R1,2*%
%TO.N,Net-(D1-A)*%
X152578000Y-78918000D03*
%TD*%
D15*
%TO.P,R13,1*%
%TO.N,RGB_RED*%
X136322000Y-53518000D03*
D16*
%TO.P,R13,2*%
%TO.N,Net-(D5-RA)*%
X136322000Y-63678000D03*
%TD*%
D15*
%TO.P,R12,1*%
%TO.N,RGB_GREEN*%
X139878000Y-53518000D03*
D16*
%TO.P,R12,2*%
%TO.N,Net-(D5-GA)*%
X139878000Y-63678000D03*
%TD*%
D15*
%TO.P,R11,1*%
%TO.N,RGB_BLUE*%
X143434000Y-53518000D03*
D16*
%TO.P,R11,2*%
%TO.N,Net-(D5-BA)*%
X143434000Y-63678000D03*
%TD*%
D17*
%TO.P,SW3,1,A*%
%TO.N,BUTTON_2*%
X160996000Y-74548000D03*
X160996000Y-68048000D03*
%TO.P,SW3,2,B*%
%TO.N,+5V*%
X165496000Y-74548000D03*
X165496000Y-68048000D03*
%TD*%
%TO.P,SW1,2,B*%
%TO.N,+5V*%
X164008000Y-53876000D03*
X164008000Y-60376000D03*
%TO.P,SW1,1,A*%
%TO.N,BUTTON_1*%
X159508000Y-53876000D03*
X159508000Y-60376000D03*
%TD*%
D14*
%TO.P,J11,4,Pin_4*%
%TO.N,I2C_Data*%
X118542000Y-69266000D03*
%TO.P,J11,3,Pin_3*%
%TO.N,I2C_Clock*%
X116002000Y-69266000D03*
%TO.P,J11,2,Pin_2*%
%TO.N,+5V*%
X113462000Y-69266000D03*
D13*
%TO.P,J11,1,Pin_1*%
%TO.N,GND*%
X110922000Y-69266000D03*
%TD*%
%TO.P,J10,1,Pin_1*%
%TO.N,+5V*%
X121941000Y-61452000D03*
D14*
%TO.P,J10,2,Pin_2*%
%TO.N,SPI_Vcc*%
X124481000Y-61452000D03*
%TO.P,J10,3,Pin_3*%
%TO.N,+3V3*%
X127021000Y-61452000D03*
%TD*%
%TO.P,J9,3,Pin_3*%
%TO.N,+3V3*%
X110922000Y-60376000D03*
%TO.P,J9,2,Pin_2*%
%TO.N,I2C_Vcc*%
X108382000Y-60376000D03*
D13*
%TO.P,J9,1,Pin_1*%
%TO.N,+5V*%
X105842000Y-60376000D03*
%TD*%
D14*
%TO.P,J8,4,Pin_4*%
%TO.N,GND*%
X112192000Y-53518000D03*
%TO.P,J8,3,Pin_3*%
%TO.N,I2C_Data*%
X109652000Y-53518000D03*
%TO.P,J8,2,Pin_2*%
%TO.N,I2C_Clock*%
X107112000Y-53518000D03*
D13*
%TO.P,J8,1,Pin_1*%
%TO.N,I2C_Vcc*%
X104572000Y-53518000D03*
%TD*%
D14*
%TO.P,J7,6,Pin_6*%
%TO.N,GND*%
X130480000Y-53772000D03*
%TO.P,J7,5,Pin_5*%
%TO.N,SPI_SS*%
X127940000Y-53772000D03*
%TO.P,J7,4,Pin_4*%
%TO.N,SPI_MOSI*%
X125400000Y-53772000D03*
%TO.P,J7,3,Pin_3*%
%TO.N,SPI_MISO*%
X122860000Y-53772000D03*
%TO.P,J7,2,Pin_2*%
%TO.N,SPI_SCK*%
X120320000Y-53772000D03*
D13*
%TO.P,J7,1,Pin_1*%
%TO.N,SPI_Vcc*%
X117780000Y-53772000D03*
%TD*%
%TO.P,J6,1,Pin_1*%
%TO.N,A3*%
X161214000Y-90094000D03*
D14*
%TO.P,J6,2,Pin_2*%
%TO.N,GND*%
X163754000Y-90094000D03*
%TD*%
D13*
%TO.P,J5,1,Pin_1*%
%TO.N,A2*%
X161209000Y-85268000D03*
D14*
%TO.P,J5,2,Pin_2*%
%TO.N,GND*%
X163749000Y-85268000D03*
%TD*%
D18*
%TO.P,D3,1,K*%
%TO.N,GND*%
X131496000Y-74092000D03*
D19*
%TO.P,D3,2,A*%
%TO.N,Net-(D3-A)*%
X134036000Y-74092000D03*
%TD*%
D18*
%TO.P,D2,1,K*%
%TO.N,GND*%
X138354000Y-77648000D03*
D19*
%TO.P,D2,2,A*%
%TO.N,Net-(D2-A)*%
X140894000Y-77648000D03*
%TD*%
%TO.P,D1,2,A*%
%TO.N,Net-(D1-A)*%
X140894000Y-70790000D03*
D18*
%TO.P,D1,1,K*%
%TO.N,GND*%
X138354000Y-70790000D03*
%TD*%
D20*
%TO.N,GREEN_LED*%
X150292000Y-53010000D03*
X145720000Y-51232000D03*
%TO.N,+3V3*%
X121082000Y-65710000D03*
%TO.N,I2C_Data*%
X118288000Y-65710000D03*
X119050000Y-67742000D03*
%TO.N,I2C_Clock*%
X116002000Y-65964000D03*
X116002000Y-67996000D03*
%TO.N,+3V3*%
X134290000Y-93396000D03*
%TD*%
D21*
%TO.N,GREEN_LED*%
X147498000Y-53010000D02*
X145720000Y-51232000D01*
X150292000Y-53010000D02*
X147498000Y-53010000D01*
D22*
%TO.N,+3V3*%
X115748000Y-60376000D02*
X121082000Y-65710000D01*
X110922000Y-60376000D02*
X115748000Y-60376000D01*
D21*
%TO.N,I2C_Data*%
X119050000Y-66472000D02*
X118288000Y-65710000D01*
X119050000Y-67742000D02*
X119050000Y-66472000D01*
%TO.N,I2C_Clock*%
X116002000Y-67996000D02*
X116002000Y-65964000D01*
D22*
%TO.N,+3V3*%
X135560000Y-97460000D02*
X135560000Y-94666000D01*
X135560000Y-94666000D02*
X134290000Y-93396000D01*
%TD*%
%TA.AperFunction,Conductor*%
%TO.N,GND*%
G36*
X163464818Y-46744939D02*
G01*
X163505046Y-46771819D01*
X165928181Y-49194954D01*
X165955061Y-49235182D01*
X165964500Y-49282635D01*
X165964500Y-59315015D01*
X165961962Y-59334287D01*
X165964028Y-59357896D01*
X165964500Y-59368703D01*
X165964500Y-59381116D01*
X165967075Y-59392733D01*
X165967182Y-59393956D01*
X165971651Y-59403541D01*
X165978451Y-59411644D01*
X165978452Y-59411645D01*
X165979500Y-59412250D01*
X166005185Y-59431958D01*
X168468181Y-61894954D01*
X168495061Y-61935182D01*
X168504500Y-61982635D01*
X168504500Y-96107364D01*
X168495061Y-96154817D01*
X168468181Y-96195045D01*
X166018418Y-98644806D01*
X166003001Y-98656636D01*
X165987760Y-98674799D01*
X165980463Y-98682762D01*
X165971683Y-98691542D01*
X165965290Y-98701577D01*
X165964501Y-98702516D01*
X165960880Y-98712464D01*
X165959959Y-98722996D01*
X165960275Y-98724174D01*
X165964500Y-98756268D01*
X165964500Y-99231907D01*
X165963903Y-99244062D01*
X165952505Y-99359778D01*
X165947763Y-99383618D01*
X165917832Y-99482290D01*
X165915789Y-99489024D01*
X165906486Y-99511482D01*
X165854561Y-99608627D01*
X165841056Y-99628839D01*
X165771176Y-99713988D01*
X165753988Y-99731176D01*
X165668839Y-99801056D01*
X165648627Y-99814561D01*
X165551482Y-99866486D01*
X165529028Y-99875787D01*
X165487028Y-99888528D01*
X165423618Y-99907763D01*
X165399778Y-99912505D01*
X165291162Y-99923203D01*
X165284060Y-99923903D01*
X165271907Y-99924500D01*
X100768093Y-99924500D01*
X100755939Y-99923903D01*
X100747995Y-99923120D01*
X100640221Y-99912505D01*
X100616381Y-99907763D01*
X100599445Y-99902625D01*
X100510968Y-99875786D01*
X100488517Y-99866486D01*
X100391372Y-99814561D01*
X100371160Y-99801056D01*
X100286011Y-99731176D01*
X100268823Y-99713988D01*
X100198943Y-99628839D01*
X100185438Y-99608627D01*
X100133510Y-99511476D01*
X100124215Y-99489037D01*
X100092234Y-99383612D01*
X100087494Y-99359777D01*
X100076097Y-99244061D01*
X100075500Y-99231907D01*
X100075500Y-98358634D01*
X126581500Y-98358634D01*
X126588011Y-98419205D01*
X126639110Y-98556203D01*
X126726738Y-98673261D01*
X126843796Y-98760889D01*
X126980794Y-98811988D01*
X126980797Y-98811988D01*
X126980799Y-98811989D01*
X127041362Y-98818500D01*
X128838634Y-98818500D01*
X128838638Y-98818500D01*
X128899201Y-98811989D01*
X128899203Y-98811988D01*
X128899205Y-98811988D01*
X128981097Y-98781443D01*
X129036204Y-98760889D01*
X129153261Y-98673261D01*
X129240889Y-98556204D01*
X129286137Y-98434889D01*
X129322089Y-98383677D01*
X129378471Y-98356539D01*
X129440925Y-98360387D01*
X129493548Y-98394241D01*
X129530969Y-98434890D01*
X129556760Y-98462906D01*
X129734424Y-98601189D01*
X129932426Y-98708342D01*
X130145365Y-98781444D01*
X130367431Y-98818500D01*
X130592569Y-98818500D01*
X130814635Y-98781444D01*
X131027574Y-98708342D01*
X131225576Y-98601189D01*
X131403240Y-98462906D01*
X131555722Y-98297268D01*
X131646190Y-98158795D01*
X131690982Y-98117561D01*
X131750000Y-98102616D01*
X131809018Y-98117561D01*
X131853809Y-98158795D01*
X131944278Y-98297268D01*
X132096760Y-98462906D01*
X132274424Y-98601189D01*
X132472426Y-98708342D01*
X132685365Y-98781444D01*
X132907431Y-98818500D01*
X133132569Y-98818500D01*
X133354635Y-98781444D01*
X133567574Y-98708342D01*
X133765576Y-98601189D01*
X133943240Y-98462906D01*
X134095722Y-98297268D01*
X134186190Y-98158795D01*
X134230982Y-98117561D01*
X134290000Y-98102616D01*
X134349018Y-98117561D01*
X134393809Y-98158795D01*
X134484278Y-98297268D01*
X134636760Y-98462906D01*
X134814424Y-98601189D01*
X135012426Y-98708342D01*
X135225365Y-98781444D01*
X135447431Y-98818500D01*
X135672569Y-98818500D01*
X135894635Y-98781444D01*
X136107574Y-98708342D01*
X136305576Y-98601189D01*
X136483240Y-98462906D01*
X136635722Y-98297268D01*
X136726190Y-98158795D01*
X136770982Y-98117561D01*
X136830000Y-98102616D01*
X136889018Y-98117561D01*
X136933809Y-98158795D01*
X137024278Y-98297268D01*
X137176760Y-98462906D01*
X137354424Y-98601189D01*
X137552426Y-98708342D01*
X137765365Y-98781444D01*
X137987431Y-98818500D01*
X138212569Y-98818500D01*
X138434635Y-98781444D01*
X138647574Y-98708342D01*
X138845576Y-98601189D01*
X139023240Y-98462906D01*
X139175722Y-98297268D01*
X139269748Y-98153349D01*
X139313663Y-98112595D01*
X139371562Y-98097188D01*
X139429926Y-98110726D01*
X139475131Y-98150048D01*
X139601892Y-98331080D01*
X139768918Y-98498106D01*
X139962423Y-98633600D01*
X140176507Y-98733430D01*
X140389999Y-98790635D01*
X140390000Y-98790636D01*
X140390000Y-97710000D01*
X140890000Y-97710000D01*
X140890000Y-98790635D01*
X141103492Y-98733430D01*
X141317576Y-98633600D01*
X141511081Y-98498106D01*
X141678106Y-98331081D01*
X141808425Y-98144968D01*
X141852743Y-98106103D01*
X141910000Y-98092092D01*
X141967257Y-98106103D01*
X142011575Y-98144968D01*
X142141893Y-98331081D01*
X142308918Y-98498106D01*
X142502423Y-98633600D01*
X142716507Y-98733430D01*
X142929999Y-98790635D01*
X142930000Y-98790636D01*
X142930000Y-98790635D01*
X143430000Y-98790635D01*
X143643492Y-98733430D01*
X143857576Y-98633600D01*
X144051081Y-98498106D01*
X144218106Y-98331081D01*
X144344868Y-98150048D01*
X144390072Y-98110726D01*
X144448436Y-98097188D01*
X144506335Y-98112595D01*
X144550252Y-98153351D01*
X144644276Y-98297267D01*
X144723824Y-98383677D01*
X144796760Y-98462906D01*
X144974424Y-98601189D01*
X145172426Y-98708342D01*
X145385365Y-98781444D01*
X145607431Y-98818500D01*
X145832569Y-98818500D01*
X146054635Y-98781444D01*
X146267574Y-98708342D01*
X146465576Y-98601189D01*
X146643240Y-98462906D01*
X146739230Y-98358634D01*
X149441500Y-98358634D01*
X149448011Y-98419205D01*
X149499110Y-98556203D01*
X149586738Y-98673261D01*
X149703796Y-98760889D01*
X149840794Y-98811988D01*
X149840797Y-98811988D01*
X149840799Y-98811989D01*
X149901362Y-98818500D01*
X151698634Y-98818500D01*
X151698638Y-98818500D01*
X151759201Y-98811989D01*
X151759203Y-98811988D01*
X151759205Y-98811988D01*
X151841097Y-98781443D01*
X151896204Y-98760889D01*
X152013261Y-98673261D01*
X152100889Y-98556204D01*
X152146137Y-98434889D01*
X152182089Y-98383677D01*
X152238471Y-98356539D01*
X152300925Y-98360387D01*
X152353548Y-98394241D01*
X152390969Y-98434890D01*
X152416760Y-98462906D01*
X152594424Y-98601189D01*
X152792426Y-98708342D01*
X153005365Y-98781444D01*
X153227431Y-98818500D01*
X153452569Y-98818500D01*
X153674635Y-98781444D01*
X153887574Y-98708342D01*
X154085576Y-98601189D01*
X154263240Y-98462906D01*
X154415722Y-98297268D01*
X154506190Y-98158795D01*
X154550982Y-98117561D01*
X154610000Y-98102616D01*
X154669018Y-98117561D01*
X154713809Y-98158795D01*
X154804278Y-98297268D01*
X154956760Y-98462906D01*
X155134424Y-98601189D01*
X155332426Y-98708342D01*
X155545365Y-98781444D01*
X155767431Y-98818500D01*
X155992569Y-98818500D01*
X156214635Y-98781444D01*
X156427574Y-98708342D01*
X156625576Y-98601189D01*
X156803240Y-98462906D01*
X156955722Y-98297268D01*
X157046190Y-98158795D01*
X157090982Y-98117561D01*
X157150000Y-98102616D01*
X157209018Y-98117561D01*
X157253809Y-98158795D01*
X157344278Y-98297268D01*
X157496760Y-98462906D01*
X157674424Y-98601189D01*
X157872426Y-98708342D01*
X158085365Y-98781444D01*
X158307431Y-98818500D01*
X158532569Y-98818500D01*
X158754635Y-98781444D01*
X158967574Y-98708342D01*
X159165576Y-98601189D01*
X159343240Y-98462906D01*
X159495722Y-98297268D01*
X159586190Y-98158795D01*
X159630982Y-98117561D01*
X159690000Y-98102616D01*
X159749018Y-98117561D01*
X159793809Y-98158795D01*
X159884278Y-98297268D01*
X160036760Y-98462906D01*
X160214424Y-98601189D01*
X160412426Y-98708342D01*
X160625365Y-98781444D01*
X160847431Y-98818500D01*
X161072569Y-98818500D01*
X161294635Y-98781444D01*
X161507574Y-98708342D01*
X161705576Y-98601189D01*
X161883240Y-98462906D01*
X162035722Y-98297268D01*
X162126190Y-98158795D01*
X162170982Y-98117561D01*
X162230000Y-98102616D01*
X162289018Y-98117561D01*
X162333809Y-98158795D01*
X162424278Y-98297268D01*
X162576760Y-98462906D01*
X162754424Y-98601189D01*
X162952426Y-98708342D01*
X163165365Y-98781444D01*
X163387431Y-98818500D01*
X163612569Y-98818500D01*
X163834635Y-98781444D01*
X164047574Y-98708342D01*
X164245576Y-98601189D01*
X164423240Y-98462906D01*
X164575722Y-98297268D01*
X164698860Y-98108791D01*
X164789296Y-97902616D01*
X164844564Y-97684368D01*
X164863156Y-97460000D01*
X164844564Y-97235632D01*
X164789296Y-97017384D01*
X164698860Y-96811209D01*
X164575722Y-96622732D01*
X164423240Y-96457094D01*
X164245576Y-96318811D01*
X164047574Y-96211658D01*
X164047573Y-96211657D01*
X164047572Y-96211657D01*
X163834636Y-96138556D01*
X163612569Y-96101500D01*
X163387431Y-96101500D01*
X163165363Y-96138556D01*
X162952427Y-96211657D01*
X162754424Y-96318811D01*
X162576760Y-96457094D01*
X162424279Y-96622730D01*
X162333809Y-96761205D01*
X162289017Y-96802438D01*
X162230000Y-96817383D01*
X162170983Y-96802438D01*
X162126191Y-96761205D01*
X162035723Y-96622734D01*
X162035722Y-96622732D01*
X161883240Y-96457094D01*
X161705576Y-96318811D01*
X161507574Y-96211658D01*
X161507573Y-96211657D01*
X161507572Y-96211657D01*
X161294636Y-96138556D01*
X161072569Y-96101500D01*
X160847431Y-96101500D01*
X160625363Y-96138556D01*
X160412427Y-96211657D01*
X160214424Y-96318811D01*
X160036760Y-96457094D01*
X159884279Y-96622730D01*
X159793809Y-96761205D01*
X159749017Y-96802438D01*
X159690000Y-96817383D01*
X159630983Y-96802438D01*
X159586191Y-96761205D01*
X159495723Y-96622734D01*
X159495722Y-96622732D01*
X159343240Y-96457094D01*
X159165576Y-96318811D01*
X158967574Y-96211658D01*
X158967573Y-96211657D01*
X158967572Y-96211657D01*
X158754636Y-96138556D01*
X158532569Y-96101500D01*
X158307431Y-96101500D01*
X158085363Y-96138556D01*
X157872427Y-96211657D01*
X157674424Y-96318811D01*
X157496760Y-96457094D01*
X157344279Y-96622730D01*
X157253809Y-96761205D01*
X157209017Y-96802438D01*
X157150000Y-96817383D01*
X157090983Y-96802438D01*
X157046191Y-96761205D01*
X156955723Y-96622734D01*
X156955722Y-96622732D01*
X156803240Y-96457094D01*
X156625576Y-96318811D01*
X156427574Y-96211658D01*
X156427573Y-96211657D01*
X156427572Y-96211657D01*
X156214636Y-96138556D01*
X155992569Y-96101500D01*
X155767431Y-96101500D01*
X155545363Y-96138556D01*
X155332427Y-96211657D01*
X155134424Y-96318811D01*
X154956760Y-96457094D01*
X154804279Y-96622730D01*
X154713809Y-96761205D01*
X154669017Y-96802438D01*
X154610000Y-96817383D01*
X154550983Y-96802438D01*
X154506191Y-96761205D01*
X154415723Y-96622734D01*
X154415722Y-96622732D01*
X154263240Y-96457094D01*
X154085576Y-96318811D01*
X153887574Y-96211658D01*
X153887573Y-96211657D01*
X153887572Y-96211657D01*
X153674636Y-96138556D01*
X153452569Y-96101500D01*
X153227431Y-96101500D01*
X153005363Y-96138556D01*
X152792427Y-96211657D01*
X152594424Y-96318811D01*
X152416759Y-96457094D01*
X152353548Y-96525759D01*
X152300924Y-96559612D01*
X152238470Y-96563460D01*
X152182089Y-96536322D01*
X152146138Y-96485110D01*
X152121427Y-96418861D01*
X152100889Y-96363796D01*
X152077075Y-96331984D01*
X152013261Y-96246738D01*
X151896203Y-96159110D01*
X151759205Y-96108011D01*
X151728919Y-96104755D01*
X151698638Y-96101500D01*
X149901362Y-96101500D01*
X149874445Y-96104393D01*
X149840794Y-96108011D01*
X149703796Y-96159110D01*
X149586738Y-96246738D01*
X149499110Y-96363796D01*
X149448011Y-96500794D01*
X149444393Y-96534445D01*
X149441689Y-96559612D01*
X149441500Y-96561366D01*
X149441500Y-98358634D01*
X146739230Y-98358634D01*
X146795722Y-98297268D01*
X146918860Y-98108791D01*
X147009296Y-97902616D01*
X147064564Y-97684368D01*
X147083156Y-97460000D01*
X147064564Y-97235632D01*
X147009296Y-97017384D01*
X146918860Y-96811209D01*
X146795722Y-96622732D01*
X146643240Y-96457094D01*
X146465576Y-96318811D01*
X146267574Y-96211658D01*
X146267573Y-96211657D01*
X146267572Y-96211657D01*
X146054636Y-96138556D01*
X145832569Y-96101500D01*
X145607431Y-96101500D01*
X145385363Y-96138556D01*
X145172427Y-96211657D01*
X144974424Y-96318811D01*
X144796760Y-96457094D01*
X144644275Y-96622734D01*
X144550250Y-96766650D01*
X144506334Y-96807405D01*
X144448435Y-96822812D01*
X144390071Y-96809274D01*
X144344867Y-96769951D01*
X144218109Y-96588921D01*
X144051081Y-96421893D01*
X143857576Y-96286399D01*
X143643492Y-96186569D01*
X143430000Y-96129364D01*
X143430000Y-98790635D01*
X142930000Y-98790635D01*
X142930000Y-97710000D01*
X140890000Y-97710000D01*
X140390000Y-97710000D01*
X140390000Y-97210000D01*
X140890000Y-97210000D01*
X142930000Y-97210000D01*
X142930000Y-96129364D01*
X142929999Y-96129364D01*
X142716507Y-96186569D01*
X142502421Y-96286400D01*
X142308921Y-96421890D01*
X142141893Y-96588918D01*
X142011575Y-96775032D01*
X141967257Y-96813897D01*
X141910000Y-96827908D01*
X141852743Y-96813897D01*
X141808425Y-96775032D01*
X141678106Y-96588918D01*
X141511081Y-96421893D01*
X141317576Y-96286399D01*
X141103492Y-96186569D01*
X140890000Y-96129364D01*
X140890000Y-97210000D01*
X140390000Y-97210000D01*
X140390000Y-96129364D01*
X140389999Y-96129364D01*
X140176507Y-96186569D01*
X139962421Y-96286400D01*
X139768921Y-96421890D01*
X139601893Y-96588918D01*
X139475132Y-96769952D01*
X139429928Y-96809274D01*
X139371564Y-96822812D01*
X139313665Y-96807405D01*
X139269748Y-96766649D01*
X139175723Y-96622732D01*
X139086451Y-96525759D01*
X139023240Y-96457094D01*
X138845576Y-96318811D01*
X138647574Y-96211658D01*
X138647573Y-96211657D01*
X138647572Y-96211657D01*
X138434636Y-96138556D01*
X138212569Y-96101500D01*
X137987431Y-96101500D01*
X137765363Y-96138556D01*
X137552427Y-96211657D01*
X137354424Y-96318811D01*
X137176760Y-96457094D01*
X137024279Y-96622730D01*
X136933809Y-96761205D01*
X136889017Y-96802438D01*
X136830000Y-96817383D01*
X136770983Y-96802438D01*
X136726191Y-96761205D01*
X136635723Y-96622734D01*
X136635722Y-96622732D01*
X136483240Y-96457094D01*
X136438014Y-96421893D01*
X136370337Y-96369217D01*
X136335099Y-96325824D01*
X136322500Y-96271364D01*
X136322500Y-94730582D01*
X136323809Y-94712612D01*
X136324447Y-94708251D01*
X136327366Y-94688327D01*
X136322972Y-94638105D01*
X136322500Y-94627298D01*
X136322500Y-94621588D01*
X136318835Y-94590237D01*
X136318472Y-94586680D01*
X136311731Y-94509633D01*
X136307382Y-94490012D01*
X136280922Y-94417316D01*
X136279736Y-94413905D01*
X136255409Y-94340486D01*
X136246656Y-94322406D01*
X136221678Y-94284430D01*
X136204140Y-94257765D01*
X136202223Y-94254756D01*
X136161595Y-94188889D01*
X136148903Y-94173310D01*
X136092640Y-94120228D01*
X136090053Y-94117715D01*
X135207063Y-93234725D01*
X135176813Y-93185362D01*
X135124527Y-93024443D01*
X135029042Y-92859058D01*
X135009442Y-92837291D01*
X134901253Y-92717134D01*
X134746752Y-92604882D01*
X134746751Y-92604881D01*
X134572285Y-92527204D01*
X134385489Y-92487500D01*
X134385487Y-92487500D01*
X134194513Y-92487500D01*
X134194511Y-92487500D01*
X134007714Y-92527204D01*
X133833248Y-92604881D01*
X133678748Y-92717133D01*
X133550957Y-92859058D01*
X133455472Y-93024443D01*
X133396458Y-93206070D01*
X133376496Y-93395999D01*
X133396458Y-93585929D01*
X133455472Y-93767556D01*
X133550957Y-93932941D01*
X133550960Y-93932944D01*
X133678747Y-94074866D01*
X133833248Y-94187118D01*
X134007712Y-94264794D01*
X134064169Y-94276794D01*
X134097550Y-94289109D01*
X134126064Y-94310402D01*
X134761181Y-94945519D01*
X134788061Y-94985747D01*
X134797500Y-95033200D01*
X134797500Y-96271364D01*
X134784901Y-96325824D01*
X134749663Y-96369217D01*
X134636760Y-96457093D01*
X134484279Y-96622730D01*
X134393809Y-96761205D01*
X134349017Y-96802438D01*
X134290000Y-96817383D01*
X134230983Y-96802438D01*
X134186191Y-96761205D01*
X134095723Y-96622734D01*
X134095722Y-96622732D01*
X133943240Y-96457094D01*
X133765576Y-96318811D01*
X133567574Y-96211658D01*
X133567573Y-96211657D01*
X133567572Y-96211657D01*
X133354636Y-96138556D01*
X133132569Y-96101500D01*
X132907431Y-96101500D01*
X132685363Y-96138556D01*
X132472427Y-96211657D01*
X132274424Y-96318811D01*
X132096760Y-96457094D01*
X131944279Y-96622730D01*
X131853809Y-96761205D01*
X131809017Y-96802438D01*
X131750000Y-96817383D01*
X131690983Y-96802438D01*
X131646191Y-96761205D01*
X131555723Y-96622734D01*
X131555722Y-96622732D01*
X131403240Y-96457094D01*
X131225576Y-96318811D01*
X131027574Y-96211658D01*
X131027573Y-96211657D01*
X131027572Y-96211657D01*
X130814636Y-96138556D01*
X130592569Y-96101500D01*
X130367431Y-96101500D01*
X130145363Y-96138556D01*
X129932427Y-96211657D01*
X129734424Y-96318811D01*
X129556759Y-96457094D01*
X129493548Y-96525759D01*
X129440924Y-96559612D01*
X129378470Y-96563460D01*
X129322089Y-96536322D01*
X129286138Y-96485110D01*
X129261427Y-96418861D01*
X129240889Y-96363796D01*
X129217075Y-96331984D01*
X129153261Y-96246738D01*
X129036203Y-96159110D01*
X128899205Y-96108011D01*
X128868919Y-96104755D01*
X128838638Y-96101500D01*
X127041362Y-96101500D01*
X127014445Y-96104393D01*
X126980794Y-96108011D01*
X126843796Y-96159110D01*
X126726738Y-96246738D01*
X126639110Y-96363796D01*
X126588011Y-96500794D01*
X126584393Y-96534445D01*
X126581689Y-96559612D01*
X126581500Y-96561366D01*
X126581500Y-98358634D01*
X100075500Y-98358634D01*
X100075500Y-91094999D01*
X139152806Y-91094999D01*
X139171541Y-91309139D01*
X139227178Y-91516778D01*
X139234173Y-91531778D01*
X139318024Y-91711597D01*
X139441319Y-91887681D01*
X139593319Y-92039681D01*
X139769403Y-92162976D01*
X139964223Y-92253822D01*
X140171858Y-92309458D01*
X140314619Y-92321947D01*
X140385999Y-92328193D01*
X140385999Y-92328192D01*
X140386000Y-92328193D01*
X140600142Y-92309458D01*
X140807777Y-92253822D01*
X141002597Y-92162976D01*
X141178681Y-92039681D01*
X141330681Y-91887681D01*
X141453976Y-91711597D01*
X141544822Y-91516777D01*
X141600458Y-91309142D01*
X141617881Y-91109999D01*
X151090806Y-91109999D01*
X151109541Y-91324139D01*
X151161158Y-91516777D01*
X151165178Y-91531777D01*
X151256024Y-91726597D01*
X151379319Y-91902681D01*
X151531319Y-92054681D01*
X151707403Y-92177976D01*
X151902223Y-92268822D01*
X152109858Y-92324458D01*
X152324000Y-92343193D01*
X152538142Y-92324458D01*
X152745777Y-92268822D01*
X152940597Y-92177976D01*
X153116681Y-92054681D01*
X153268681Y-91902681D01*
X153391976Y-91726597D01*
X153482822Y-91531777D01*
X153538458Y-91324142D01*
X153557193Y-91110000D01*
X153546925Y-90992638D01*
X159855500Y-90992638D01*
X159858041Y-91016272D01*
X159862011Y-91053205D01*
X159913110Y-91190203D01*
X160000738Y-91307261D01*
X160117796Y-91394889D01*
X160254794Y-91445988D01*
X160254797Y-91445988D01*
X160254799Y-91445989D01*
X160315362Y-91452500D01*
X162112634Y-91452500D01*
X162112638Y-91452500D01*
X162173201Y-91445989D01*
X162173203Y-91445988D01*
X162173205Y-91445988D01*
X162251124Y-91416924D01*
X162310204Y-91394889D01*
X162427261Y-91307261D01*
X162514889Y-91190204D01*
X162563223Y-91060615D01*
X162598200Y-91010240D01*
X162653045Y-90982787D01*
X162714338Y-90984976D01*
X162767084Y-91016272D01*
X162882918Y-91132106D01*
X163076423Y-91267600D01*
X163290507Y-91367430D01*
X163503999Y-91424635D01*
X163504000Y-91424636D01*
X163504000Y-90344000D01*
X164004000Y-90344000D01*
X164004000Y-91424635D01*
X164217492Y-91367430D01*
X164431576Y-91267600D01*
X164625081Y-91132106D01*
X164792106Y-90965081D01*
X164927600Y-90771576D01*
X165027430Y-90557492D01*
X165084636Y-90344000D01*
X164004000Y-90344000D01*
X163504000Y-90344000D01*
X163504000Y-88763364D01*
X164004000Y-88763364D01*
X164004000Y-89844000D01*
X165084636Y-89844000D01*
X165084635Y-89843999D01*
X165027430Y-89630507D01*
X164927599Y-89416421D01*
X164792109Y-89222921D01*
X164625081Y-89055893D01*
X164431576Y-88920399D01*
X164217492Y-88820569D01*
X164004000Y-88763364D01*
X163504000Y-88763364D01*
X163503999Y-88763364D01*
X163290507Y-88820569D01*
X163076421Y-88920400D01*
X162882924Y-89055888D01*
X162767084Y-89171728D01*
X162714338Y-89203023D01*
X162653045Y-89205212D01*
X162598200Y-89177759D01*
X162563222Y-89127382D01*
X162514889Y-88997796D01*
X162510383Y-88991777D01*
X162427261Y-88880738D01*
X162310203Y-88793110D01*
X162173205Y-88742011D01*
X162142919Y-88738755D01*
X162112638Y-88735500D01*
X160315362Y-88735500D01*
X160288445Y-88738393D01*
X160254794Y-88742011D01*
X160117796Y-88793110D01*
X160000738Y-88880738D01*
X159913110Y-88997796D01*
X159862011Y-89134794D01*
X159858514Y-89167325D01*
X159855500Y-89195362D01*
X159855500Y-90992638D01*
X153546925Y-90992638D01*
X153538458Y-90895858D01*
X153482822Y-90688223D01*
X153391976Y-90493404D01*
X153381472Y-90478402D01*
X153268683Y-90317321D01*
X153253679Y-90302317D01*
X153116681Y-90165319D01*
X152940597Y-90042024D01*
X152745778Y-89951178D01*
X152538139Y-89895541D01*
X152323999Y-89876806D01*
X152109860Y-89895541D01*
X151902221Y-89951178D01*
X151707402Y-90042024D01*
X151531317Y-90165319D01*
X151379319Y-90317317D01*
X151256024Y-90493402D01*
X151165178Y-90688221D01*
X151109541Y-90895860D01*
X151090806Y-91109999D01*
X141617881Y-91109999D01*
X141619193Y-91095000D01*
X141600458Y-90880858D01*
X141544822Y-90673223D01*
X141453976Y-90478404D01*
X141453975Y-90478402D01*
X141330683Y-90302321D01*
X141330679Y-90302317D01*
X141178681Y-90150319D01*
X141002597Y-90027024D01*
X140839945Y-89951178D01*
X140807778Y-89936178D01*
X140600139Y-89880541D01*
X140385999Y-89861806D01*
X140171860Y-89880541D01*
X139964221Y-89936178D01*
X139769402Y-90027024D01*
X139593317Y-90150319D01*
X139441319Y-90302317D01*
X139318024Y-90478402D01*
X139227178Y-90673221D01*
X139171541Y-90880860D01*
X139152806Y-91094999D01*
X100075500Y-91094999D01*
X100075500Y-88555000D01*
X136612806Y-88555000D01*
X136631541Y-88769139D01*
X136687178Y-88976778D01*
X136696979Y-88997796D01*
X136778024Y-89171597D01*
X136901319Y-89347681D01*
X137053319Y-89499681D01*
X137229403Y-89622976D01*
X137424223Y-89713822D01*
X137631858Y-89769458D01*
X137774619Y-89781947D01*
X137845999Y-89788193D01*
X137845999Y-89788192D01*
X137846000Y-89788193D01*
X138060142Y-89769458D01*
X138267777Y-89713822D01*
X138462597Y-89622976D01*
X138528853Y-89576583D01*
X142257967Y-89576583D01*
X142313670Y-89615587D01*
X142507138Y-89705802D01*
X142713342Y-89761055D01*
X142926000Y-89779660D01*
X143138657Y-89761055D01*
X143344861Y-89705802D01*
X143538325Y-89615589D01*
X143594030Y-89576583D01*
X142926001Y-88908553D01*
X142926000Y-88908553D01*
X142257967Y-89576583D01*
X138528853Y-89576583D01*
X138638681Y-89499681D01*
X138790681Y-89347681D01*
X138913976Y-89171597D01*
X139004822Y-88976777D01*
X139060458Y-88769142D01*
X139079193Y-88555000D01*
X141701339Y-88555000D01*
X141719944Y-88767657D01*
X141775197Y-88973861D01*
X141865410Y-89167326D01*
X141904415Y-89223030D01*
X141904416Y-89223031D01*
X142572447Y-88555001D01*
X142572447Y-88555000D01*
X143279553Y-88555000D01*
X143947583Y-89223030D01*
X143986589Y-89167325D01*
X144076802Y-88973861D01*
X144132055Y-88767657D01*
X144149348Y-88570000D01*
X148550806Y-88570000D01*
X148569541Y-88784139D01*
X148625178Y-88991778D01*
X148688411Y-89127380D01*
X148716024Y-89186597D01*
X148839319Y-89362681D01*
X148991319Y-89514681D01*
X149167403Y-89637976D01*
X149362223Y-89728822D01*
X149569858Y-89784458D01*
X149784000Y-89803193D01*
X149998142Y-89784458D01*
X150205777Y-89728822D01*
X150400597Y-89637976D01*
X150466853Y-89591583D01*
X154195967Y-89591583D01*
X154251670Y-89630587D01*
X154445138Y-89720802D01*
X154651342Y-89776055D01*
X154864000Y-89794660D01*
X155076657Y-89776055D01*
X155282861Y-89720802D01*
X155476325Y-89630589D01*
X155532030Y-89591583D01*
X154864001Y-88923553D01*
X154864000Y-88923553D01*
X154195967Y-89591583D01*
X150466853Y-89591583D01*
X150576681Y-89514681D01*
X150728681Y-89362681D01*
X150851976Y-89186597D01*
X150942822Y-88991777D01*
X150998458Y-88784142D01*
X151017193Y-88570000D01*
X153639339Y-88570000D01*
X153657944Y-88782657D01*
X153713197Y-88988861D01*
X153803410Y-89182326D01*
X153842415Y-89238030D01*
X153842416Y-89238031D01*
X154510447Y-88570001D01*
X154510447Y-88570000D01*
X155217553Y-88570000D01*
X155885583Y-89238030D01*
X155924589Y-89182325D01*
X156014802Y-88988861D01*
X156070055Y-88782657D01*
X156088660Y-88570000D01*
X156070055Y-88357342D01*
X156014802Y-88151138D01*
X155924587Y-87957670D01*
X155885583Y-87901967D01*
X155217553Y-88570000D01*
X154510447Y-88570000D01*
X153842414Y-87901967D01*
X153803411Y-87957672D01*
X153713197Y-88151138D01*
X153657944Y-88357342D01*
X153639339Y-88570000D01*
X151017193Y-88570000D01*
X150998458Y-88355858D01*
X150942822Y-88148223D01*
X150851976Y-87953404D01*
X150851975Y-87953402D01*
X150728683Y-87777321D01*
X150713679Y-87762317D01*
X150576681Y-87625319D01*
X150466849Y-87548414D01*
X154195967Y-87548414D01*
X154864000Y-88216447D01*
X154864001Y-88216447D01*
X155532031Y-87548416D01*
X155532030Y-87548415D01*
X155476326Y-87509410D01*
X155282861Y-87419197D01*
X155076657Y-87363944D01*
X154864000Y-87345339D01*
X154651342Y-87363944D01*
X154445138Y-87419197D01*
X154251672Y-87509411D01*
X154195967Y-87548414D01*
X150466849Y-87548414D01*
X150400597Y-87502024D01*
X150384269Y-87494410D01*
X150205778Y-87411178D01*
X149998139Y-87355541D01*
X149784000Y-87336806D01*
X149569860Y-87355541D01*
X149362221Y-87411178D01*
X149167402Y-87502024D01*
X148991317Y-87625319D01*
X148839319Y-87777317D01*
X148716024Y-87953402D01*
X148625178Y-88148221D01*
X148569541Y-88355860D01*
X148550806Y-88570000D01*
X144149348Y-88570000D01*
X144150660Y-88555000D01*
X144132055Y-88342342D01*
X144076802Y-88136138D01*
X143986587Y-87942670D01*
X143947583Y-87886967D01*
X143279553Y-88555000D01*
X142572447Y-88555000D01*
X141904414Y-87886967D01*
X141865411Y-87942672D01*
X141775197Y-88136138D01*
X141719944Y-88342342D01*
X141701339Y-88555000D01*
X139079193Y-88555000D01*
X139060458Y-88340858D01*
X139004822Y-88133223D01*
X138913976Y-87938404D01*
X138877960Y-87886967D01*
X138790683Y-87762321D01*
X138790679Y-87762317D01*
X138638681Y-87610319D01*
X138528849Y-87533414D01*
X142257967Y-87533414D01*
X142926000Y-88201447D01*
X142926001Y-88201447D01*
X143594031Y-87533416D01*
X143594030Y-87533415D01*
X143538326Y-87494410D01*
X143344861Y-87404197D01*
X143138657Y-87348944D01*
X142926000Y-87330339D01*
X142713342Y-87348944D01*
X142507138Y-87404197D01*
X142313672Y-87494411D01*
X142257967Y-87533414D01*
X138528849Y-87533414D01*
X138462597Y-87487024D01*
X138462596Y-87487023D01*
X138267778Y-87396178D01*
X138060139Y-87340541D01*
X137846000Y-87321806D01*
X137631860Y-87340541D01*
X137424221Y-87396178D01*
X137229402Y-87487024D01*
X137053317Y-87610319D01*
X136901319Y-87762317D01*
X136778024Y-87938402D01*
X136687178Y-88133221D01*
X136631541Y-88340860D01*
X136612806Y-88555000D01*
X100075500Y-88555000D01*
X100075500Y-84506000D01*
X105913333Y-84506000D01*
X105932395Y-84760363D01*
X105989156Y-85009051D01*
X106082346Y-85246493D01*
X106190722Y-85434207D01*
X106209886Y-85467399D01*
X106368925Y-85666828D01*
X106555911Y-85840325D01*
X106766667Y-85984016D01*
X106996485Y-86094691D01*
X107240231Y-86169876D01*
X107447694Y-86201146D01*
X107492460Y-86207894D01*
X107492461Y-86207894D01*
X107747539Y-86207894D01*
X107747540Y-86207894D01*
X107785557Y-86202163D01*
X107999769Y-86169876D01*
X108243515Y-86094691D01*
X108473333Y-85984016D01*
X108684089Y-85840325D01*
X108871075Y-85666828D01*
X109030114Y-85467399D01*
X109157653Y-85246495D01*
X109250844Y-85009049D01*
X109307604Y-84760365D01*
X109326666Y-84506000D01*
X109324179Y-84472808D01*
X118630934Y-84472808D01*
X118649996Y-84727172D01*
X118706757Y-84975860D01*
X118785660Y-85176900D01*
X118799948Y-85213304D01*
X118927487Y-85434208D01*
X119086526Y-85633637D01*
X119273512Y-85807134D01*
X119484268Y-85950825D01*
X119714086Y-86061500D01*
X119957832Y-86136685D01*
X120156555Y-86166638D01*
X120210061Y-86174703D01*
X120210062Y-86174703D01*
X120465140Y-86174703D01*
X120465141Y-86174703D01*
X120518647Y-86166638D01*
X159850500Y-86166638D01*
X159853041Y-86190272D01*
X159857011Y-86227205D01*
X159908110Y-86364203D01*
X159995738Y-86481261D01*
X160112796Y-86568889D01*
X160249794Y-86619988D01*
X160249797Y-86619988D01*
X160249799Y-86619989D01*
X160310362Y-86626500D01*
X162107634Y-86626500D01*
X162107638Y-86626500D01*
X162168201Y-86619989D01*
X162168203Y-86619988D01*
X162168205Y-86619988D01*
X162246124Y-86590924D01*
X162305204Y-86568889D01*
X162422261Y-86481261D01*
X162509889Y-86364204D01*
X162558223Y-86234615D01*
X162593200Y-86184240D01*
X162648045Y-86156787D01*
X162709338Y-86158976D01*
X162762084Y-86190272D01*
X162877918Y-86306106D01*
X163071423Y-86441600D01*
X163285507Y-86541430D01*
X163498999Y-86598635D01*
X163499000Y-86598636D01*
X163499000Y-85518000D01*
X163999000Y-85518000D01*
X163999000Y-86598635D01*
X164212492Y-86541430D01*
X164426576Y-86441600D01*
X164620081Y-86306106D01*
X164787106Y-86139081D01*
X164922600Y-85945576D01*
X165022430Y-85731492D01*
X165079636Y-85518000D01*
X163999000Y-85518000D01*
X163499000Y-85518000D01*
X163499000Y-83937364D01*
X163999000Y-83937364D01*
X163999000Y-85018000D01*
X165079636Y-85018000D01*
X165079635Y-85017999D01*
X165022430Y-84804507D01*
X164922599Y-84590421D01*
X164787109Y-84396921D01*
X164620081Y-84229893D01*
X164426576Y-84094399D01*
X164212492Y-83994569D01*
X163999000Y-83937364D01*
X163499000Y-83937364D01*
X163498999Y-83937364D01*
X163285507Y-83994569D01*
X163071421Y-84094400D01*
X162877924Y-84229888D01*
X162762084Y-84345728D01*
X162709338Y-84377023D01*
X162648045Y-84379212D01*
X162593200Y-84351759D01*
X162558222Y-84301382D01*
X162509889Y-84171796D01*
X162509887Y-84171793D01*
X162422261Y-84054738D01*
X162305203Y-83967110D01*
X162168205Y-83916011D01*
X162137919Y-83912755D01*
X162107638Y-83909500D01*
X160310362Y-83909500D01*
X160283445Y-83912393D01*
X160249794Y-83916011D01*
X160112796Y-83967110D01*
X159995738Y-84054738D01*
X159908110Y-84171796D01*
X159857011Y-84308794D01*
X159853393Y-84342445D01*
X159850500Y-84369362D01*
X159850500Y-86166638D01*
X120518647Y-86166638D01*
X120717370Y-86136685D01*
X120961116Y-86061500D01*
X121190934Y-85950825D01*
X121401690Y-85807134D01*
X121588676Y-85633637D01*
X121747715Y-85434208D01*
X121875254Y-85213304D01*
X121968445Y-84975858D01*
X122025205Y-84727174D01*
X122044267Y-84472809D01*
X122025205Y-84218444D01*
X121968445Y-83969760D01*
X121967405Y-83967111D01*
X121902568Y-83801909D01*
X121875254Y-83732314D01*
X121747715Y-83511410D01*
X121588676Y-83311981D01*
X121401690Y-83138484D01*
X121190934Y-82994793D01*
X121190933Y-82994792D01*
X121190931Y-82994791D01*
X120961114Y-82884117D01*
X120717371Y-82808933D01*
X120465141Y-82770915D01*
X120465140Y-82770915D01*
X120210062Y-82770915D01*
X120210061Y-82770915D01*
X119957830Y-82808933D01*
X119714087Y-82884117D01*
X119484270Y-82994791D01*
X119273510Y-83138485D01*
X119086526Y-83311981D01*
X118927486Y-83511410D01*
X118799947Y-83732315D01*
X118706757Y-83969757D01*
X118649996Y-84218445D01*
X118630934Y-84472808D01*
X109324179Y-84472808D01*
X109307604Y-84251635D01*
X109250844Y-84002951D01*
X109237817Y-83969760D01*
X109214167Y-83909500D01*
X109157653Y-83765505D01*
X109030114Y-83544601D01*
X108871075Y-83345172D01*
X108684089Y-83171675D01*
X108473333Y-83027984D01*
X108473332Y-83027983D01*
X108473330Y-83027982D01*
X108243513Y-82917308D01*
X107999770Y-82842124D01*
X107747540Y-82804106D01*
X107747539Y-82804106D01*
X107492461Y-82804106D01*
X107492460Y-82804106D01*
X107240229Y-82842124D01*
X106996486Y-82917308D01*
X106766669Y-83027982D01*
X106555909Y-83171676D01*
X106368925Y-83345172D01*
X106209885Y-83544601D01*
X106082346Y-83765506D01*
X105989156Y-84002948D01*
X105932395Y-84251636D01*
X105913333Y-84506000D01*
X100075500Y-84506000D01*
X100075500Y-77898000D01*
X136954000Y-77898000D01*
X136954000Y-78595824D01*
X136960402Y-78655375D01*
X137010647Y-78790089D01*
X137096811Y-78905188D01*
X137211910Y-78991352D01*
X137346624Y-79041597D01*
X137406176Y-79048000D01*
X138104000Y-79048000D01*
X138604000Y-79048000D01*
X139301824Y-79048000D01*
X139361375Y-79041597D01*
X139496089Y-78991352D01*
X139611188Y-78905188D01*
X139697352Y-78790088D01*
X139722940Y-78721485D01*
X139758891Y-78670271D01*
X139815273Y-78643133D01*
X139877727Y-78646981D01*
X139930351Y-78680835D01*
X139936776Y-78687815D01*
X139936780Y-78687818D01*
X140120983Y-78831190D01*
X140326273Y-78942287D01*
X140357380Y-78952966D01*
X140547046Y-79018080D01*
X140777288Y-79056500D01*
X141010712Y-79056500D01*
X141240953Y-79018080D01*
X141351339Y-78980183D01*
X141461727Y-78942287D01*
X141506607Y-78917999D01*
X144152501Y-78917999D01*
X144172456Y-79146084D01*
X144231717Y-79367246D01*
X144328474Y-79574744D01*
X144328476Y-79574746D01*
X144328477Y-79574749D01*
X144459802Y-79762300D01*
X144621700Y-79924198D01*
X144809251Y-80055523D01*
X145016757Y-80152284D01*
X145237913Y-80211543D01*
X145466000Y-80231498D01*
X145694087Y-80211543D01*
X145915243Y-80152284D01*
X146122749Y-80055523D01*
X146310300Y-79924198D01*
X146472198Y-79762300D01*
X146603523Y-79574749D01*
X146700284Y-79367243D01*
X146759543Y-79146087D01*
X146779498Y-78918000D01*
X146779498Y-78917999D01*
X147708501Y-78917999D01*
X147728456Y-79146084D01*
X147787717Y-79367246D01*
X147884474Y-79574744D01*
X147884476Y-79574746D01*
X147884477Y-79574749D01*
X148015802Y-79762300D01*
X148177700Y-79924198D01*
X148365251Y-80055523D01*
X148572757Y-80152284D01*
X148793913Y-80211543D01*
X149022000Y-80231498D01*
X149250087Y-80211543D01*
X149471243Y-80152284D01*
X149678749Y-80055523D01*
X149866300Y-79924198D01*
X150028198Y-79762300D01*
X150159523Y-79574749D01*
X150256284Y-79367243D01*
X150315543Y-79146087D01*
X150335498Y-78918000D01*
X150335498Y-78917999D01*
X151264501Y-78917999D01*
X151284456Y-79146084D01*
X151343717Y-79367246D01*
X151440474Y-79574744D01*
X151440476Y-79574746D01*
X151440477Y-79574749D01*
X151571802Y-79762300D01*
X151733700Y-79924198D01*
X151921251Y-80055523D01*
X152128757Y-80152284D01*
X152349913Y-80211543D01*
X152578000Y-80231498D01*
X152806087Y-80211543D01*
X153027243Y-80152284D01*
X153234749Y-80055523D01*
X153422300Y-79924198D01*
X153584198Y-79762300D01*
X153715523Y-79574749D01*
X153812284Y-79367243D01*
X153871543Y-79146087D01*
X153891498Y-78918000D01*
X153874790Y-78727026D01*
X156678526Y-78727026D01*
X156751515Y-78778133D01*
X156957673Y-78874266D01*
X157177397Y-78933141D01*
X157404000Y-78952966D01*
X157630602Y-78933141D01*
X157850326Y-78874266D01*
X158056480Y-78778134D01*
X158129472Y-78727025D01*
X157404001Y-78001553D01*
X157404000Y-78001553D01*
X156678526Y-78727025D01*
X156678526Y-78727026D01*
X153874790Y-78727026D01*
X153871543Y-78689913D01*
X153812284Y-78468757D01*
X153715523Y-78261251D01*
X153584198Y-78073700D01*
X153422300Y-77911802D01*
X153234749Y-77780477D01*
X153234746Y-77780476D01*
X153234744Y-77780474D01*
X153027246Y-77683717D01*
X153027243Y-77683716D01*
X152893950Y-77648000D01*
X156099033Y-77648000D01*
X156118858Y-77874602D01*
X156177733Y-78094326D01*
X156273866Y-78300484D01*
X156324972Y-78373471D01*
X156324973Y-78373472D01*
X157050445Y-77648000D01*
X157757553Y-77648000D01*
X158483025Y-78373472D01*
X158534134Y-78300480D01*
X158630266Y-78094326D01*
X158689141Y-77874602D01*
X158708966Y-77648000D01*
X158689141Y-77421397D01*
X158630266Y-77201673D01*
X158534133Y-76995515D01*
X158483025Y-76922526D01*
X157757553Y-77647998D01*
X157757553Y-77648000D01*
X157050445Y-77648000D01*
X157050446Y-77647999D01*
X157050446Y-77647998D01*
X156324973Y-76922527D01*
X156273865Y-76995516D01*
X156177733Y-77201672D01*
X156118858Y-77421397D01*
X156099033Y-77648000D01*
X152893950Y-77648000D01*
X152893943Y-77647998D01*
X152806084Y-77624456D01*
X152578000Y-77604501D01*
X152349915Y-77624456D01*
X152128753Y-77683717D01*
X151921255Y-77780474D01*
X151733696Y-77911805D01*
X151571805Y-78073696D01*
X151571802Y-78073699D01*
X151571802Y-78073700D01*
X151506139Y-78167475D01*
X151440474Y-78261255D01*
X151343717Y-78468753D01*
X151284456Y-78689915D01*
X151264501Y-78917999D01*
X150335498Y-78917999D01*
X150315543Y-78689913D01*
X150256284Y-78468757D01*
X150159523Y-78261251D01*
X150028198Y-78073700D01*
X149866300Y-77911802D01*
X149678749Y-77780477D01*
X149678746Y-77780476D01*
X149678744Y-77780474D01*
X149471246Y-77683717D01*
X149471243Y-77683716D01*
X149337943Y-77647998D01*
X149250084Y-77624456D01*
X149022000Y-77604501D01*
X148793915Y-77624456D01*
X148572753Y-77683717D01*
X148365255Y-77780474D01*
X148177696Y-77911805D01*
X148015805Y-78073696D01*
X148015802Y-78073699D01*
X148015802Y-78073700D01*
X147950139Y-78167475D01*
X147884474Y-78261255D01*
X147787717Y-78468753D01*
X147728456Y-78689915D01*
X147708501Y-78917999D01*
X146779498Y-78917999D01*
X146759543Y-78689913D01*
X146700284Y-78468757D01*
X146603523Y-78261251D01*
X146472198Y-78073700D01*
X146310300Y-77911802D01*
X146122749Y-77780477D01*
X146122746Y-77780476D01*
X146122744Y-77780474D01*
X145915246Y-77683717D01*
X145915243Y-77683716D01*
X145781943Y-77647998D01*
X145694084Y-77624456D01*
X145466000Y-77604501D01*
X145237915Y-77624456D01*
X145016753Y-77683717D01*
X144809255Y-77780474D01*
X144621696Y-77911805D01*
X144459805Y-78073696D01*
X144459802Y-78073699D01*
X144459802Y-78073700D01*
X144394139Y-78167475D01*
X144328474Y-78261255D01*
X144231717Y-78468753D01*
X144172456Y-78689915D01*
X144152501Y-78917999D01*
X141506607Y-78917999D01*
X141667017Y-78831190D01*
X141851220Y-78687818D01*
X142009314Y-78516083D01*
X142136984Y-78320669D01*
X142230749Y-78106907D01*
X142288051Y-77880626D01*
X142307327Y-77648000D01*
X142288051Y-77415374D01*
X142230749Y-77189093D01*
X142136984Y-76975331D01*
X142009314Y-76779917D01*
X141851220Y-76608182D01*
X141800845Y-76568973D01*
X156678526Y-76568973D01*
X157404000Y-77294446D01*
X157404001Y-77294446D01*
X158129472Y-76568974D01*
X158129471Y-76568972D01*
X158056484Y-76517866D01*
X157850326Y-76421733D01*
X157630602Y-76362858D01*
X157404000Y-76343033D01*
X157177397Y-76362858D01*
X156957672Y-76421733D01*
X156751516Y-76517865D01*
X156678527Y-76568973D01*
X156678526Y-76568973D01*
X141800845Y-76568973D01*
X141667017Y-76464810D01*
X141461727Y-76353713D01*
X141461726Y-76353712D01*
X141461725Y-76353712D01*
X141240953Y-76277919D01*
X141010712Y-76239500D01*
X140777288Y-76239500D01*
X140547046Y-76277919D01*
X140326274Y-76353712D01*
X140120983Y-76464810D01*
X139936777Y-76608184D01*
X139930348Y-76615168D01*
X139877724Y-76649019D01*
X139815271Y-76652866D01*
X139758891Y-76625727D01*
X139722940Y-76574514D01*
X139697352Y-76505911D01*
X139611188Y-76390811D01*
X139496089Y-76304647D01*
X139361375Y-76254402D01*
X139301824Y-76248000D01*
X138604000Y-76248000D01*
X138604000Y-79048000D01*
X138104000Y-79048000D01*
X138104000Y-77898000D01*
X136954000Y-77898000D01*
X100075500Y-77898000D01*
X100075500Y-77398000D01*
X136954000Y-77398000D01*
X138104000Y-77398000D01*
X138104000Y-76248000D01*
X137406176Y-76248000D01*
X137346624Y-76254402D01*
X137211910Y-76304647D01*
X137096811Y-76390811D01*
X137010647Y-76505910D01*
X136960402Y-76640624D01*
X136954000Y-76700176D01*
X136954000Y-77398000D01*
X100075500Y-77398000D01*
X100075500Y-74342000D01*
X130096000Y-74342000D01*
X130096000Y-75039824D01*
X130102402Y-75099375D01*
X130152647Y-75234089D01*
X130238811Y-75349188D01*
X130353910Y-75435352D01*
X130488624Y-75485597D01*
X130548176Y-75492000D01*
X131246000Y-75492000D01*
X131746000Y-75492000D01*
X132443824Y-75492000D01*
X132503375Y-75485597D01*
X132638089Y-75435352D01*
X132753188Y-75349188D01*
X132839352Y-75234088D01*
X132864940Y-75165485D01*
X132900891Y-75114271D01*
X132957273Y-75087133D01*
X133019727Y-75090981D01*
X133072351Y-75124835D01*
X133078776Y-75131815D01*
X133078780Y-75131818D01*
X133262983Y-75275190D01*
X133468273Y-75386287D01*
X133523466Y-75405235D01*
X133689046Y-75462080D01*
X133919288Y-75500500D01*
X134152712Y-75500500D01*
X134382953Y-75462080D01*
X134493339Y-75424183D01*
X134603727Y-75386287D01*
X134809017Y-75275190D01*
X134993220Y-75131818D01*
X135151314Y-74960083D01*
X135278984Y-74764669D01*
X135372749Y-74550907D01*
X135373485Y-74547999D01*
X159482835Y-74547999D01*
X159501465Y-74784712D01*
X159556894Y-75015593D01*
X159566931Y-75039824D01*
X159647760Y-75234963D01*
X159771824Y-75437416D01*
X159926031Y-75617969D01*
X160106584Y-75772176D01*
X160309037Y-75896240D01*
X160528406Y-75987105D01*
X160759289Y-76042535D01*
X160996000Y-76061165D01*
X161232711Y-76042535D01*
X161463594Y-75987105D01*
X161682963Y-75896240D01*
X161885416Y-75772176D01*
X162065969Y-75617969D01*
X162220176Y-75437416D01*
X162344240Y-75234963D01*
X162435105Y-75015594D01*
X162490535Y-74784711D01*
X162509165Y-74548000D01*
X162509165Y-74547999D01*
X163982835Y-74547999D01*
X164001465Y-74784712D01*
X164056894Y-75015593D01*
X164066931Y-75039824D01*
X164147760Y-75234963D01*
X164271824Y-75437416D01*
X164426031Y-75617969D01*
X164606584Y-75772176D01*
X164809037Y-75896240D01*
X165028406Y-75987105D01*
X165259289Y-76042535D01*
X165496000Y-76061165D01*
X165732711Y-76042535D01*
X165963594Y-75987105D01*
X166182963Y-75896240D01*
X166385416Y-75772176D01*
X166565969Y-75617969D01*
X166720176Y-75437416D01*
X166844240Y-75234963D01*
X166935105Y-75015594D01*
X166990535Y-74784711D01*
X167009165Y-74548000D01*
X166990535Y-74311289D01*
X166935105Y-74080406D01*
X166844240Y-73861037D01*
X166720176Y-73658584D01*
X166565969Y-73478031D01*
X166385416Y-73323824D01*
X166182963Y-73199760D01*
X166073278Y-73154327D01*
X165963593Y-73108894D01*
X165732712Y-73053465D01*
X165496000Y-73034835D01*
X165259287Y-73053465D01*
X165028406Y-73108894D01*
X164809035Y-73199761D01*
X164606585Y-73323823D01*
X164426031Y-73478031D01*
X164271823Y-73658585D01*
X164147761Y-73861035D01*
X164056894Y-74080406D01*
X164001465Y-74311287D01*
X163982835Y-74547999D01*
X162509165Y-74547999D01*
X162490535Y-74311289D01*
X162435105Y-74080406D01*
X162344240Y-73861037D01*
X162220176Y-73658584D01*
X162065969Y-73478031D01*
X161885416Y-73323824D01*
X161682963Y-73199760D01*
X161573278Y-73154327D01*
X161463593Y-73108894D01*
X161232712Y-73053465D01*
X160996000Y-73034835D01*
X160759287Y-73053465D01*
X160528406Y-73108894D01*
X160309035Y-73199761D01*
X160106585Y-73323823D01*
X159926031Y-73478031D01*
X159771823Y-73658585D01*
X159647761Y-73861035D01*
X159556894Y-74080406D01*
X159501465Y-74311287D01*
X159482835Y-74547999D01*
X135373485Y-74547999D01*
X135430051Y-74324626D01*
X135449327Y-74092000D01*
X135430051Y-73859374D01*
X135372749Y-73633093D01*
X135278984Y-73419331D01*
X135151314Y-73223917D01*
X134993220Y-73052182D01*
X134809017Y-72908810D01*
X134603727Y-72797713D01*
X134603726Y-72797712D01*
X134603725Y-72797712D01*
X134382953Y-72721919D01*
X134152712Y-72683500D01*
X133919288Y-72683500D01*
X133689046Y-72721919D01*
X133468274Y-72797712D01*
X133262983Y-72908810D01*
X133078777Y-73052184D01*
X133072348Y-73059168D01*
X133019724Y-73093019D01*
X132957271Y-73096866D01*
X132900891Y-73069727D01*
X132864940Y-73018514D01*
X132839352Y-72949911D01*
X132753188Y-72834811D01*
X132638089Y-72748647D01*
X132503375Y-72698402D01*
X132443824Y-72692000D01*
X131746000Y-72692000D01*
X131746000Y-75492000D01*
X131246000Y-75492000D01*
X131246000Y-74342000D01*
X130096000Y-74342000D01*
X100075500Y-74342000D01*
X100075500Y-73842000D01*
X130096000Y-73842000D01*
X131246000Y-73842000D01*
X131246000Y-72692000D01*
X130548176Y-72692000D01*
X130488624Y-72698402D01*
X130353910Y-72748647D01*
X130238811Y-72834811D01*
X130152647Y-72949910D01*
X130102402Y-73084624D01*
X130096000Y-73144176D01*
X130096000Y-73842000D01*
X100075500Y-73842000D01*
X100075500Y-71040000D01*
X136954000Y-71040000D01*
X136954000Y-71737824D01*
X136960402Y-71797375D01*
X137010647Y-71932089D01*
X137096811Y-72047188D01*
X137211910Y-72133352D01*
X137346624Y-72183597D01*
X137406176Y-72190000D01*
X138104000Y-72190000D01*
X138604000Y-72190000D01*
X139301824Y-72190000D01*
X139361375Y-72183597D01*
X139496089Y-72133352D01*
X139611188Y-72047188D01*
X139697352Y-71932088D01*
X139722940Y-71863485D01*
X139758891Y-71812271D01*
X139815273Y-71785133D01*
X139877727Y-71788981D01*
X139930351Y-71822835D01*
X139936776Y-71829815D01*
X139936780Y-71829818D01*
X140120983Y-71973190D01*
X140326273Y-72084287D01*
X140381466Y-72103235D01*
X140547046Y-72160080D01*
X140777288Y-72198500D01*
X141010712Y-72198500D01*
X141240953Y-72160080D01*
X141351339Y-72122183D01*
X141461727Y-72084287D01*
X141667017Y-71973190D01*
X141851220Y-71829818D01*
X142009314Y-71658083D01*
X142136984Y-71462669D01*
X142230749Y-71248907D01*
X142288051Y-71022626D01*
X142307327Y-70790000D01*
X142288051Y-70557374D01*
X142230749Y-70331093D01*
X142136984Y-70117331D01*
X142009314Y-69921917D01*
X141985016Y-69895523D01*
X141851219Y-69750181D01*
X141719823Y-69647911D01*
X141667017Y-69606810D01*
X141461727Y-69495713D01*
X141461726Y-69495712D01*
X141461725Y-69495712D01*
X141240953Y-69419919D01*
X141010712Y-69381500D01*
X140777288Y-69381500D01*
X140547046Y-69419919D01*
X140326274Y-69495712D01*
X140120983Y-69606810D01*
X139936777Y-69750184D01*
X139930348Y-69757168D01*
X139877724Y-69791019D01*
X139815271Y-69794866D01*
X139758891Y-69767727D01*
X139722940Y-69716514D01*
X139697352Y-69647911D01*
X139611188Y-69532811D01*
X139496089Y-69446647D01*
X139361375Y-69396402D01*
X139301824Y-69390000D01*
X138604000Y-69390000D01*
X138604000Y-72190000D01*
X138104000Y-72190000D01*
X138104000Y-71040000D01*
X136954000Y-71040000D01*
X100075500Y-71040000D01*
X100075500Y-69516000D01*
X109572000Y-69516000D01*
X109572000Y-70163824D01*
X109578402Y-70223375D01*
X109628647Y-70358089D01*
X109714811Y-70473188D01*
X109829910Y-70559352D01*
X109964624Y-70609597D01*
X110024176Y-70616000D01*
X110672000Y-70616000D01*
X111172000Y-70616000D01*
X111819824Y-70616000D01*
X111879375Y-70609597D01*
X112014089Y-70559352D01*
X112129188Y-70473188D01*
X112215352Y-70358088D01*
X112261680Y-70233878D01*
X112297631Y-70182665D01*
X112354013Y-70155526D01*
X112416467Y-70159374D01*
X112469091Y-70193227D01*
X112496845Y-70223375D01*
X112538760Y-70268906D01*
X112716424Y-70407189D01*
X112914426Y-70514342D01*
X113127365Y-70587444D01*
X113349431Y-70624500D01*
X113574569Y-70624500D01*
X113796635Y-70587444D01*
X114009574Y-70514342D01*
X114207576Y-70407189D01*
X114385240Y-70268906D01*
X114537722Y-70103268D01*
X114628190Y-69964795D01*
X114672982Y-69923561D01*
X114732000Y-69908616D01*
X114791018Y-69923561D01*
X114835809Y-69964795D01*
X114905521Y-70071498D01*
X114926278Y-70103268D01*
X115078760Y-70268906D01*
X115256424Y-70407189D01*
X115454426Y-70514342D01*
X115667365Y-70587444D01*
X115889431Y-70624500D01*
X116114569Y-70624500D01*
X116336635Y-70587444D01*
X116549574Y-70514342D01*
X116747576Y-70407189D01*
X116925240Y-70268906D01*
X117077722Y-70103268D01*
X117168190Y-69964795D01*
X117212982Y-69923561D01*
X117272000Y-69908616D01*
X117331018Y-69923561D01*
X117375809Y-69964795D01*
X117445521Y-70071498D01*
X117466278Y-70103268D01*
X117618760Y-70268906D01*
X117796424Y-70407189D01*
X117994426Y-70514342D01*
X118207365Y-70587444D01*
X118429431Y-70624500D01*
X118654569Y-70624500D01*
X118876635Y-70587444D01*
X119014835Y-70540000D01*
X136954000Y-70540000D01*
X138104000Y-70540000D01*
X138104000Y-69390000D01*
X137406176Y-69390000D01*
X137346624Y-69396402D01*
X137211910Y-69446647D01*
X137096811Y-69532811D01*
X137010647Y-69647910D01*
X136960402Y-69782624D01*
X136954000Y-69842176D01*
X136954000Y-70540000D01*
X119014835Y-70540000D01*
X119089574Y-70514342D01*
X119287576Y-70407189D01*
X119465240Y-70268906D01*
X119617722Y-70103268D01*
X119740860Y-69914791D01*
X119831296Y-69708616D01*
X119886564Y-69490368D01*
X119905156Y-69266000D01*
X119886564Y-69041632D01*
X119831296Y-68823384D01*
X119802616Y-68758000D01*
X144152501Y-68758000D01*
X144172456Y-68986084D01*
X144231717Y-69207246D01*
X144328474Y-69414744D01*
X144328476Y-69414746D01*
X144328477Y-69414749D01*
X144459802Y-69602300D01*
X144621700Y-69764198D01*
X144809251Y-69895523D01*
X144809254Y-69895524D01*
X144809255Y-69895525D01*
X144865853Y-69921917D01*
X145016757Y-69992284D01*
X145237913Y-70051543D01*
X145466000Y-70071498D01*
X145694087Y-70051543D01*
X145915243Y-69992284D01*
X146122749Y-69895523D01*
X146310300Y-69764198D01*
X146472198Y-69602300D01*
X146603523Y-69414749D01*
X146700284Y-69207243D01*
X146759543Y-68986087D01*
X146779498Y-68758000D01*
X147708501Y-68758000D01*
X147728456Y-68986084D01*
X147787717Y-69207246D01*
X147884474Y-69414744D01*
X147884476Y-69414746D01*
X147884477Y-69414749D01*
X148015802Y-69602300D01*
X148177700Y-69764198D01*
X148365251Y-69895523D01*
X148365254Y-69895524D01*
X148365255Y-69895525D01*
X148421853Y-69921917D01*
X148572757Y-69992284D01*
X148793913Y-70051543D01*
X149022000Y-70071498D01*
X149250087Y-70051543D01*
X149471243Y-69992284D01*
X149678749Y-69895523D01*
X149866300Y-69764198D01*
X150028198Y-69602300D01*
X150159523Y-69414749D01*
X150256284Y-69207243D01*
X150315543Y-68986087D01*
X150335498Y-68758000D01*
X151264501Y-68758000D01*
X151284456Y-68986084D01*
X151343717Y-69207246D01*
X151440474Y-69414744D01*
X151440476Y-69414746D01*
X151440477Y-69414749D01*
X151571802Y-69602300D01*
X151733700Y-69764198D01*
X151921251Y-69895523D01*
X151921254Y-69895524D01*
X151921255Y-69895525D01*
X151977853Y-69921917D01*
X152128757Y-69992284D01*
X152349913Y-70051543D01*
X152578000Y-70071498D01*
X152806087Y-70051543D01*
X153027243Y-69992284D01*
X153234749Y-69895523D01*
X153422300Y-69764198D01*
X153584198Y-69602300D01*
X153715523Y-69414749D01*
X153812284Y-69207243D01*
X153871543Y-68986087D01*
X153891498Y-68758000D01*
X153871543Y-68529913D01*
X153812284Y-68308757D01*
X153715523Y-68101251D01*
X153584198Y-67913700D01*
X153422300Y-67751802D01*
X153234749Y-67620477D01*
X153234746Y-67620476D01*
X153234744Y-67620474D01*
X153027246Y-67523717D01*
X153027243Y-67523716D01*
X152893950Y-67488000D01*
X156090501Y-67488000D01*
X156110456Y-67716084D01*
X156110457Y-67716087D01*
X156165739Y-67922402D01*
X156169717Y-67937246D01*
X156266474Y-68144744D01*
X156266476Y-68144746D01*
X156266477Y-68144749D01*
X156397802Y-68332300D01*
X156559700Y-68494198D01*
X156747251Y-68625523D01*
X156954757Y-68722284D01*
X157175913Y-68781543D01*
X157327970Y-68794846D01*
X157403999Y-68801498D01*
X157403999Y-68801497D01*
X157404000Y-68801498D01*
X157632087Y-68781543D01*
X157853243Y-68722284D01*
X158060749Y-68625523D01*
X158248300Y-68494198D01*
X158410198Y-68332300D01*
X158541523Y-68144749D01*
X158586638Y-68048000D01*
X159482835Y-68048000D01*
X159492149Y-68166355D01*
X159501465Y-68284712D01*
X159556894Y-68515593D01*
X159563720Y-68532072D01*
X159647760Y-68734963D01*
X159771824Y-68937416D01*
X159926031Y-69117969D01*
X160106584Y-69272176D01*
X160309037Y-69396240D01*
X160528406Y-69487105D01*
X160759289Y-69542535D01*
X160996000Y-69561165D01*
X161232711Y-69542535D01*
X161463594Y-69487105D01*
X161682963Y-69396240D01*
X161885416Y-69272176D01*
X162065969Y-69117969D01*
X162220176Y-68937416D01*
X162344240Y-68734963D01*
X162435105Y-68515594D01*
X162490535Y-68284711D01*
X162509165Y-68048000D01*
X163982835Y-68048000D01*
X163992149Y-68166355D01*
X164001465Y-68284712D01*
X164056894Y-68515593D01*
X164063720Y-68532072D01*
X164147760Y-68734963D01*
X164271824Y-68937416D01*
X164426031Y-69117969D01*
X164606584Y-69272176D01*
X164809037Y-69396240D01*
X165028406Y-69487105D01*
X165259289Y-69542535D01*
X165496000Y-69561165D01*
X165732711Y-69542535D01*
X165963594Y-69487105D01*
X166182963Y-69396240D01*
X166385416Y-69272176D01*
X166565969Y-69117969D01*
X166720176Y-68937416D01*
X166844240Y-68734963D01*
X166935105Y-68515594D01*
X166990535Y-68284711D01*
X167009165Y-68048000D01*
X166990535Y-67811289D01*
X166935105Y-67580406D01*
X166844240Y-67361037D01*
X166720176Y-67158584D01*
X166565969Y-66978031D01*
X166385416Y-66823824D01*
X166182963Y-66699760D01*
X166073278Y-66654327D01*
X165963593Y-66608894D01*
X165732712Y-66553465D01*
X165496000Y-66534835D01*
X165259287Y-66553465D01*
X165028406Y-66608894D01*
X164841162Y-66686453D01*
X164811080Y-66698914D01*
X164809035Y-66699761D01*
X164606585Y-66823823D01*
X164426031Y-66978031D01*
X164271823Y-67158585D01*
X164147761Y-67361035D01*
X164056894Y-67580406D01*
X164001465Y-67811287D01*
X163985223Y-68017657D01*
X163982835Y-68048000D01*
X162509165Y-68048000D01*
X162490535Y-67811289D01*
X162435105Y-67580406D01*
X162344240Y-67361037D01*
X162220176Y-67158584D01*
X162065969Y-66978031D01*
X161885416Y-66823824D01*
X161682963Y-66699760D01*
X161573278Y-66654327D01*
X161463593Y-66608894D01*
X161232712Y-66553465D01*
X160996000Y-66534835D01*
X160759287Y-66553465D01*
X160528406Y-66608894D01*
X160341162Y-66686453D01*
X160311080Y-66698914D01*
X160309035Y-66699761D01*
X160106585Y-66823823D01*
X159926031Y-66978031D01*
X159771823Y-67158585D01*
X159647761Y-67361035D01*
X159556894Y-67580406D01*
X159501465Y-67811287D01*
X159485223Y-68017657D01*
X159482835Y-68048000D01*
X158586638Y-68048000D01*
X158638284Y-67937243D01*
X158697543Y-67716087D01*
X158717498Y-67488000D01*
X158697543Y-67259913D01*
X158638284Y-67038757D01*
X158541523Y-66831251D01*
X158410198Y-66643700D01*
X158248300Y-66481802D01*
X158060749Y-66350477D01*
X158060746Y-66350476D01*
X158060744Y-66350474D01*
X157853246Y-66253717D01*
X157853243Y-66253716D01*
X157718491Y-66217609D01*
X157632084Y-66194456D01*
X157404000Y-66174501D01*
X157175915Y-66194456D01*
X156954753Y-66253717D01*
X156747255Y-66350474D01*
X156716806Y-66371795D01*
X156585213Y-66463938D01*
X156559696Y-66481805D01*
X156397805Y-66643696D01*
X156397802Y-66643699D01*
X156397802Y-66643700D01*
X156383913Y-66663536D01*
X156266474Y-66831255D01*
X156169717Y-67038753D01*
X156110456Y-67259915D01*
X156090501Y-67488000D01*
X152893950Y-67488000D01*
X152806084Y-67464456D01*
X152578000Y-67444501D01*
X152349915Y-67464456D01*
X152128753Y-67523717D01*
X151921255Y-67620474D01*
X151827475Y-67686139D01*
X151784711Y-67716084D01*
X151733696Y-67751805D01*
X151571805Y-67913696D01*
X151440474Y-68101255D01*
X151343717Y-68308753D01*
X151284456Y-68529915D01*
X151264501Y-68758000D01*
X150335498Y-68758000D01*
X150315543Y-68529913D01*
X150256284Y-68308757D01*
X150159523Y-68101251D01*
X150028198Y-67913700D01*
X149866300Y-67751802D01*
X149678749Y-67620477D01*
X149678746Y-67620476D01*
X149678744Y-67620474D01*
X149471246Y-67523717D01*
X149471243Y-67523716D01*
X149337950Y-67488000D01*
X149250084Y-67464456D01*
X149022000Y-67444501D01*
X148793915Y-67464456D01*
X148572753Y-67523717D01*
X148365255Y-67620474D01*
X148271475Y-67686139D01*
X148228711Y-67716084D01*
X148177696Y-67751805D01*
X148015805Y-67913696D01*
X147884474Y-68101255D01*
X147787717Y-68308753D01*
X147728456Y-68529915D01*
X147708501Y-68758000D01*
X146779498Y-68758000D01*
X146759543Y-68529913D01*
X146700284Y-68308757D01*
X146603523Y-68101251D01*
X146472198Y-67913700D01*
X146310300Y-67751802D01*
X146122749Y-67620477D01*
X146122746Y-67620476D01*
X146122744Y-67620474D01*
X145915246Y-67523717D01*
X145915243Y-67523716D01*
X145781950Y-67488000D01*
X145694084Y-67464456D01*
X145466000Y-67444501D01*
X145237915Y-67464456D01*
X145016753Y-67523717D01*
X144809255Y-67620474D01*
X144715475Y-67686139D01*
X144672711Y-67716084D01*
X144621696Y-67751805D01*
X144459805Y-67913696D01*
X144328474Y-68101255D01*
X144231717Y-68308753D01*
X144172456Y-68529915D01*
X144152501Y-68758000D01*
X119802616Y-68758000D01*
X119740860Y-68617209D01*
X119685238Y-68532072D01*
X119666286Y-68481733D01*
X119670432Y-68428105D01*
X119696895Y-68381281D01*
X119789040Y-68278944D01*
X119795675Y-68267453D01*
X119884527Y-68113556D01*
X119902315Y-68058811D01*
X119943542Y-67931928D01*
X119963504Y-67742000D01*
X119943542Y-67552072D01*
X119884527Y-67370444D01*
X119884527Y-67370443D01*
X119789040Y-67205056D01*
X119717350Y-67125436D01*
X119693736Y-67086902D01*
X119685500Y-67042464D01*
X119685500Y-66555853D01*
X119687796Y-66535057D01*
X119686729Y-66501118D01*
X119685560Y-66463937D01*
X119685500Y-66460043D01*
X119685500Y-66432022D01*
X119685500Y-66432017D01*
X119684977Y-66427885D01*
X119684061Y-66416240D01*
X119683201Y-66388866D01*
X119682665Y-66371795D01*
X119676942Y-66352098D01*
X119672998Y-66333055D01*
X119670427Y-66312701D01*
X119654048Y-66271334D01*
X119650280Y-66260325D01*
X119637869Y-66217607D01*
X119627424Y-66199946D01*
X119618869Y-66182482D01*
X119611319Y-66163412D01*
X119585178Y-66127432D01*
X119578770Y-66117677D01*
X119556134Y-66079402D01*
X119541632Y-66064900D01*
X119529000Y-66050109D01*
X119516943Y-66033513D01*
X119482675Y-66005165D01*
X119474034Y-65997302D01*
X119234288Y-65757555D01*
X119210048Y-65723257D01*
X119198649Y-65682839D01*
X119181542Y-65520072D01*
X119122527Y-65338444D01*
X119122527Y-65338443D01*
X119027042Y-65173058D01*
X119007442Y-65151291D01*
X118899253Y-65031134D01*
X118744752Y-64918882D01*
X118744751Y-64918881D01*
X118570285Y-64841204D01*
X118383489Y-64801500D01*
X118383487Y-64801500D01*
X118192513Y-64801500D01*
X118192511Y-64801500D01*
X118005714Y-64841204D01*
X117831248Y-64918881D01*
X117676748Y-65031133D01*
X117548957Y-65173058D01*
X117453472Y-65338443D01*
X117394458Y-65520070D01*
X117374496Y-65709999D01*
X117394458Y-65899929D01*
X117453472Y-66081556D01*
X117548957Y-66246941D01*
X117555058Y-66253717D01*
X117676747Y-66388866D01*
X117804662Y-66481802D01*
X117831248Y-66501118D01*
X118005714Y-66578795D01*
X118192511Y-66618500D01*
X118192513Y-66618500D01*
X118246405Y-66618500D01*
X118293858Y-66627939D01*
X118334086Y-66654819D01*
X118378181Y-66698914D01*
X118405061Y-66739142D01*
X118414500Y-66786595D01*
X118414500Y-67042464D01*
X118406264Y-67086902D01*
X118382650Y-67125436D01*
X118310959Y-67205056D01*
X118215472Y-67370443D01*
X118156458Y-67552070D01*
X118136496Y-67742000D01*
X118149192Y-67862798D01*
X118142625Y-67917527D01*
X118112987Y-67964002D01*
X118066134Y-67993040D01*
X117994427Y-68017657D01*
X117796424Y-68124811D01*
X117618760Y-68263094D01*
X117466279Y-68428730D01*
X117375809Y-68567205D01*
X117331017Y-68608438D01*
X117272000Y-68623383D01*
X117212983Y-68608438D01*
X117168191Y-68567205D01*
X117077718Y-68428726D01*
X116929254Y-68267453D01*
X116902765Y-68222438D01*
X116897162Y-68170511D01*
X116915504Y-67996000D01*
X116895542Y-67806072D01*
X116836527Y-67624444D01*
X116836527Y-67624443D01*
X116741040Y-67459056D01*
X116669350Y-67379436D01*
X116645736Y-67340902D01*
X116637500Y-67296464D01*
X116637500Y-66663536D01*
X116645736Y-66619098D01*
X116669350Y-66580564D01*
X116703926Y-66542163D01*
X116741040Y-66500944D01*
X116836527Y-66335556D01*
X116895542Y-66153928D01*
X116915504Y-65964000D01*
X116895542Y-65774072D01*
X116836527Y-65592444D01*
X116836527Y-65592443D01*
X116741042Y-65427058D01*
X116661253Y-65338444D01*
X116613253Y-65285134D01*
X116516901Y-65215130D01*
X116458751Y-65172881D01*
X116284285Y-65095204D01*
X116097489Y-65055500D01*
X116097487Y-65055500D01*
X115906513Y-65055500D01*
X115906511Y-65055500D01*
X115719714Y-65095204D01*
X115545248Y-65172881D01*
X115390748Y-65285133D01*
X115262957Y-65427058D01*
X115167472Y-65592443D01*
X115108458Y-65774070D01*
X115088496Y-65964000D01*
X115108458Y-66153929D01*
X115167472Y-66335556D01*
X115262959Y-66500943D01*
X115334650Y-66580564D01*
X115358264Y-66619098D01*
X115366500Y-66663536D01*
X115366500Y-67296464D01*
X115358264Y-67340902D01*
X115334650Y-67379436D01*
X115262959Y-67459056D01*
X115167472Y-67624443D01*
X115108458Y-67806070D01*
X115094671Y-67937246D01*
X115088496Y-67996000D01*
X115106837Y-68170511D01*
X115101235Y-68222438D01*
X115074746Y-68267453D01*
X114926281Y-68428726D01*
X114835809Y-68567205D01*
X114791017Y-68608438D01*
X114732000Y-68623383D01*
X114672983Y-68608438D01*
X114628191Y-68567205D01*
X114548248Y-68444844D01*
X114537722Y-68428732D01*
X114385240Y-68263094D01*
X114207576Y-68124811D01*
X114009574Y-68017658D01*
X114009573Y-68017657D01*
X114009572Y-68017657D01*
X113796636Y-67944556D01*
X113574569Y-67907500D01*
X113349431Y-67907500D01*
X113127363Y-67944556D01*
X112914427Y-68017657D01*
X112716424Y-68124811D01*
X112538759Y-68263094D01*
X112469090Y-68338773D01*
X112416466Y-68372626D01*
X112354012Y-68376473D01*
X112297631Y-68349335D01*
X112261680Y-68298121D01*
X112215352Y-68173911D01*
X112129188Y-68058811D01*
X112014089Y-67972647D01*
X111879375Y-67922402D01*
X111819824Y-67916000D01*
X111172000Y-67916000D01*
X111172000Y-70616000D01*
X110672000Y-70616000D01*
X110672000Y-69516000D01*
X109572000Y-69516000D01*
X100075500Y-69516000D01*
X100075500Y-69016000D01*
X109572000Y-69016000D01*
X110672000Y-69016000D01*
X110672000Y-67916000D01*
X110024176Y-67916000D01*
X109964624Y-67922402D01*
X109829910Y-67972647D01*
X109714811Y-68058811D01*
X109628647Y-68173910D01*
X109578402Y-68308624D01*
X109572000Y-68368176D01*
X109572000Y-69016000D01*
X100075500Y-69016000D01*
X100075500Y-61274634D01*
X104483500Y-61274634D01*
X104490011Y-61335205D01*
X104541110Y-61472203D01*
X104628738Y-61589261D01*
X104745796Y-61676889D01*
X104882794Y-61727988D01*
X104882797Y-61727988D01*
X104882799Y-61727989D01*
X104943362Y-61734500D01*
X106740634Y-61734500D01*
X106740638Y-61734500D01*
X106801201Y-61727989D01*
X106801203Y-61727988D01*
X106801205Y-61727988D01*
X106883097Y-61697443D01*
X106938204Y-61676889D01*
X107055261Y-61589261D01*
X107142889Y-61472204D01*
X107188137Y-61350889D01*
X107224089Y-61299677D01*
X107280471Y-61272539D01*
X107342925Y-61276387D01*
X107395548Y-61310241D01*
X107427299Y-61344731D01*
X107458760Y-61378906D01*
X107636424Y-61517189D01*
X107834426Y-61624342D01*
X108047365Y-61697444D01*
X108269431Y-61734500D01*
X108494569Y-61734500D01*
X108716635Y-61697444D01*
X108929574Y-61624342D01*
X109127576Y-61517189D01*
X109305240Y-61378906D01*
X109457722Y-61213268D01*
X109548190Y-61074795D01*
X109592982Y-61033561D01*
X109652000Y-61018616D01*
X109711018Y-61033561D01*
X109755809Y-61074795D01*
X109834132Y-61194678D01*
X109846278Y-61213268D01*
X109998760Y-61378906D01*
X110176424Y-61517189D01*
X110374426Y-61624342D01*
X110587365Y-61697444D01*
X110809431Y-61734500D01*
X111034569Y-61734500D01*
X111256635Y-61697444D01*
X111469574Y-61624342D01*
X111667576Y-61517189D01*
X111845240Y-61378906D01*
X111997722Y-61213268D01*
X111997722Y-61213267D01*
X112009868Y-61194678D01*
X112054659Y-61153445D01*
X112113676Y-61138500D01*
X115380801Y-61138500D01*
X115428254Y-61147939D01*
X115468482Y-61174819D01*
X120164936Y-65871274D01*
X120195186Y-65920636D01*
X120247473Y-66081557D01*
X120342957Y-66246941D01*
X120349058Y-66253717D01*
X120470747Y-66388866D01*
X120598662Y-66481802D01*
X120625248Y-66501118D01*
X120799714Y-66578795D01*
X120986511Y-66618500D01*
X120986513Y-66618500D01*
X121177487Y-66618500D01*
X121177489Y-66618500D01*
X121364285Y-66578795D01*
X121364286Y-66578794D01*
X121364288Y-66578794D01*
X121538752Y-66501118D01*
X121693253Y-66388866D01*
X121821040Y-66246944D01*
X121851344Y-66194457D01*
X121916527Y-66081556D01*
X121943903Y-65997302D01*
X121975542Y-65899928D01*
X121995504Y-65710000D01*
X121975542Y-65520072D01*
X121916527Y-65338444D01*
X121916527Y-65338443D01*
X121821042Y-65173058D01*
X121801442Y-65151291D01*
X121693253Y-65031134D01*
X121538752Y-64918882D01*
X121538751Y-64918881D01*
X121441963Y-64875788D01*
X121364288Y-64841206D01*
X121345022Y-64837110D01*
X121307832Y-64829205D01*
X121274446Y-64816888D01*
X121245934Y-64795596D01*
X120128337Y-63677999D01*
X135008501Y-63677999D01*
X135028456Y-63906084D01*
X135028457Y-63906087D01*
X135086934Y-64124326D01*
X135087717Y-64127246D01*
X135184474Y-64334744D01*
X135184476Y-64334746D01*
X135184477Y-64334749D01*
X135315802Y-64522300D01*
X135477700Y-64684198D01*
X135665251Y-64815523D01*
X135872757Y-64912284D01*
X136093913Y-64971543D01*
X136322000Y-64991498D01*
X136550087Y-64971543D01*
X136771243Y-64912284D01*
X136978749Y-64815523D01*
X137166300Y-64684198D01*
X137328198Y-64522300D01*
X137459523Y-64334749D01*
X137556284Y-64127243D01*
X137615543Y-63906087D01*
X137635498Y-63678000D01*
X137635498Y-63677999D01*
X138564501Y-63677999D01*
X138584456Y-63906084D01*
X138584457Y-63906087D01*
X138642934Y-64124326D01*
X138643717Y-64127246D01*
X138740474Y-64334744D01*
X138740476Y-64334746D01*
X138740477Y-64334749D01*
X138871802Y-64522300D01*
X139033700Y-64684198D01*
X139221251Y-64815523D01*
X139428757Y-64912284D01*
X139649913Y-64971543D01*
X139878000Y-64991498D01*
X140106087Y-64971543D01*
X140327243Y-64912284D01*
X140534749Y-64815523D01*
X140722300Y-64684198D01*
X140884198Y-64522300D01*
X141015523Y-64334749D01*
X141112284Y-64127243D01*
X141171543Y-63906087D01*
X141191498Y-63678000D01*
X141191498Y-63677999D01*
X142120501Y-63677999D01*
X142140456Y-63906084D01*
X142140457Y-63906087D01*
X142198934Y-64124326D01*
X142199717Y-64127246D01*
X142296474Y-64334744D01*
X142296476Y-64334746D01*
X142296477Y-64334749D01*
X142427802Y-64522300D01*
X142589700Y-64684198D01*
X142777251Y-64815523D01*
X142984757Y-64912284D01*
X143205913Y-64971543D01*
X143434000Y-64991498D01*
X143662087Y-64971543D01*
X143883243Y-64912284D01*
X144090749Y-64815523D01*
X144174291Y-64757026D01*
X155154526Y-64757026D01*
X155227515Y-64808133D01*
X155433673Y-64904266D01*
X155653397Y-64963141D01*
X155880000Y-64982966D01*
X156106602Y-64963141D01*
X156326326Y-64904266D01*
X156532480Y-64808134D01*
X156605472Y-64757025D01*
X155880001Y-64031553D01*
X155880000Y-64031553D01*
X155154526Y-64757025D01*
X155154526Y-64757026D01*
X144174291Y-64757026D01*
X144278300Y-64684198D01*
X144440198Y-64522300D01*
X144571523Y-64334749D01*
X144668284Y-64127243D01*
X144727543Y-63906087D01*
X144747498Y-63678000D01*
X154575033Y-63678000D01*
X154594858Y-63904602D01*
X154653733Y-64124326D01*
X154749866Y-64330484D01*
X154800972Y-64403471D01*
X154800974Y-64403472D01*
X155526446Y-63678001D01*
X156233553Y-63678001D01*
X156959025Y-64403472D01*
X157010134Y-64330480D01*
X157106266Y-64124326D01*
X157165141Y-63904602D01*
X157184966Y-63678000D01*
X157165141Y-63451397D01*
X157106266Y-63231673D01*
X157010133Y-63025515D01*
X156959025Y-62952526D01*
X156233553Y-63678000D01*
X156233553Y-63678001D01*
X155526446Y-63678001D01*
X155526446Y-63678000D01*
X154800973Y-62952526D01*
X154800973Y-62952527D01*
X154749865Y-63025516D01*
X154653733Y-63231672D01*
X154594858Y-63451397D01*
X154575033Y-63678000D01*
X144747498Y-63678000D01*
X144727543Y-63449913D01*
X144668284Y-63228757D01*
X144571523Y-63021251D01*
X144440198Y-62833700D01*
X144278300Y-62671802D01*
X144174290Y-62598973D01*
X155154526Y-62598973D01*
X155880000Y-63324446D01*
X155880001Y-63324446D01*
X156605472Y-62598974D01*
X156605471Y-62598972D01*
X156532484Y-62547866D01*
X156326326Y-62451733D01*
X156106602Y-62392858D01*
X155880000Y-62373033D01*
X155653397Y-62392858D01*
X155433672Y-62451733D01*
X155227516Y-62547865D01*
X155154527Y-62598973D01*
X155154526Y-62598973D01*
X144174290Y-62598973D01*
X144090749Y-62540477D01*
X144090746Y-62540476D01*
X144090744Y-62540474D01*
X143883246Y-62443717D01*
X143883243Y-62443716D01*
X143693440Y-62392858D01*
X143662084Y-62384456D01*
X143434000Y-62364501D01*
X143205915Y-62384456D01*
X142984753Y-62443717D01*
X142777255Y-62540474D01*
X142766213Y-62548206D01*
X142599042Y-62665261D01*
X142589696Y-62671805D01*
X142427805Y-62833696D01*
X142296474Y-63021255D01*
X142199717Y-63228753D01*
X142140456Y-63449915D01*
X142120501Y-63677999D01*
X141191498Y-63677999D01*
X141171543Y-63449913D01*
X141112284Y-63228757D01*
X141015523Y-63021251D01*
X140884198Y-62833700D01*
X140722300Y-62671802D01*
X140534749Y-62540477D01*
X140534746Y-62540476D01*
X140534744Y-62540474D01*
X140327246Y-62443717D01*
X140327243Y-62443716D01*
X140137440Y-62392858D01*
X140106084Y-62384456D01*
X139878000Y-62364501D01*
X139649915Y-62384456D01*
X139428753Y-62443717D01*
X139221255Y-62540474D01*
X139210213Y-62548206D01*
X139043042Y-62665261D01*
X139033696Y-62671805D01*
X138871805Y-62833696D01*
X138740474Y-63021255D01*
X138643717Y-63228753D01*
X138584456Y-63449915D01*
X138564501Y-63677999D01*
X137635498Y-63677999D01*
X137615543Y-63449913D01*
X137556284Y-63228757D01*
X137459523Y-63021251D01*
X137328198Y-62833700D01*
X137166300Y-62671802D01*
X136978749Y-62540477D01*
X136978746Y-62540476D01*
X136978744Y-62540474D01*
X136771246Y-62443717D01*
X136771243Y-62443716D01*
X136581440Y-62392858D01*
X136550084Y-62384456D01*
X136322000Y-62364501D01*
X136093915Y-62384456D01*
X135872753Y-62443717D01*
X135665255Y-62540474D01*
X135654213Y-62548206D01*
X135487042Y-62665261D01*
X135477696Y-62671805D01*
X135315805Y-62833696D01*
X135184474Y-63021255D01*
X135087717Y-63228753D01*
X135028456Y-63449915D01*
X135008501Y-63677999D01*
X120128337Y-63677999D01*
X118800976Y-62350638D01*
X120582500Y-62350638D01*
X120584908Y-62373033D01*
X120589011Y-62411205D01*
X120640110Y-62548203D01*
X120727738Y-62665261D01*
X120844796Y-62752889D01*
X120981794Y-62803988D01*
X120981797Y-62803988D01*
X120981799Y-62803989D01*
X121042362Y-62810500D01*
X122839634Y-62810500D01*
X122839638Y-62810500D01*
X122900201Y-62803989D01*
X122900203Y-62803988D01*
X122900205Y-62803988D01*
X122982097Y-62773443D01*
X123037204Y-62752889D01*
X123154261Y-62665261D01*
X123241889Y-62548204D01*
X123287137Y-62426889D01*
X123323089Y-62375677D01*
X123379471Y-62348539D01*
X123441925Y-62352387D01*
X123494548Y-62386241D01*
X123554839Y-62451733D01*
X123557760Y-62454906D01*
X123735424Y-62593189D01*
X123933426Y-62700342D01*
X124146365Y-62773444D01*
X124368431Y-62810500D01*
X124593569Y-62810500D01*
X124815635Y-62773444D01*
X125028574Y-62700342D01*
X125226576Y-62593189D01*
X125404240Y-62454906D01*
X125556722Y-62289268D01*
X125647190Y-62150795D01*
X125691982Y-62109561D01*
X125751000Y-62094616D01*
X125810018Y-62109561D01*
X125854809Y-62150795D01*
X125945278Y-62289268D01*
X126097760Y-62454906D01*
X126275424Y-62593189D01*
X126473426Y-62700342D01*
X126686365Y-62773444D01*
X126908431Y-62810500D01*
X127133569Y-62810500D01*
X127355635Y-62773444D01*
X127568574Y-62700342D01*
X127766576Y-62593189D01*
X127944240Y-62454906D01*
X128096722Y-62289268D01*
X128219860Y-62100791D01*
X128310296Y-61894616D01*
X128365564Y-61676368D01*
X128384156Y-61452000D01*
X128365564Y-61227632D01*
X128310296Y-61009384D01*
X128219860Y-60803209D01*
X128096722Y-60614732D01*
X127944240Y-60449094D01*
X127850330Y-60376000D01*
X147354451Y-60376000D01*
X147374598Y-60580560D01*
X147384964Y-60614732D01*
X147434267Y-60777262D01*
X147531163Y-60958543D01*
X147661564Y-61117436D01*
X147820457Y-61247837D01*
X148001738Y-61344733D01*
X148198438Y-61404401D01*
X148351738Y-61419500D01*
X149184261Y-61419500D01*
X149184262Y-61419500D01*
X149337562Y-61404401D01*
X149534262Y-61344733D01*
X149715543Y-61247837D01*
X149874436Y-61117436D01*
X150004837Y-60958543D01*
X150101733Y-60777262D01*
X150161401Y-60580562D01*
X150181549Y-60376000D01*
X150181549Y-60375999D01*
X157994835Y-60375999D01*
X158013465Y-60612712D01*
X158068894Y-60843593D01*
X158114327Y-60953278D01*
X158159760Y-61062963D01*
X158283824Y-61265416D01*
X158438031Y-61445969D01*
X158618584Y-61600176D01*
X158821037Y-61724240D01*
X159040406Y-61815105D01*
X159271289Y-61870535D01*
X159508000Y-61889165D01*
X159744711Y-61870535D01*
X159975594Y-61815105D01*
X160194963Y-61724240D01*
X160397416Y-61600176D01*
X160577969Y-61445969D01*
X160732176Y-61265416D01*
X160856240Y-61062963D01*
X160947105Y-60843594D01*
X161002535Y-60612711D01*
X161021165Y-60376000D01*
X161021165Y-60375999D01*
X162494835Y-60375999D01*
X162513465Y-60612712D01*
X162568894Y-60843593D01*
X162614327Y-60953278D01*
X162659760Y-61062963D01*
X162783824Y-61265416D01*
X162938031Y-61445969D01*
X163118584Y-61600176D01*
X163321037Y-61724240D01*
X163540406Y-61815105D01*
X163771289Y-61870535D01*
X164008000Y-61889165D01*
X164244711Y-61870535D01*
X164475594Y-61815105D01*
X164694963Y-61724240D01*
X164897416Y-61600176D01*
X165077969Y-61445969D01*
X165232176Y-61265416D01*
X165356240Y-61062963D01*
X165447105Y-60843594D01*
X165502535Y-60612711D01*
X165521165Y-60376000D01*
X165502535Y-60139289D01*
X165447105Y-59908406D01*
X165356240Y-59689037D01*
X165232176Y-59486584D01*
X165077969Y-59306031D01*
X164897416Y-59151824D01*
X164694963Y-59027760D01*
X164585278Y-58982327D01*
X164475593Y-58936894D01*
X164244712Y-58881465D01*
X164008000Y-58862835D01*
X163771287Y-58881465D01*
X163540406Y-58936894D01*
X163321035Y-59027761D01*
X163118585Y-59151823D01*
X162938031Y-59306031D01*
X162783823Y-59486585D01*
X162659900Y-59688808D01*
X162659760Y-59689037D01*
X162659204Y-59690380D01*
X162568894Y-59908406D01*
X162513465Y-60139287D01*
X162494835Y-60375999D01*
X161021165Y-60375999D01*
X161002535Y-60139289D01*
X160947105Y-59908406D01*
X160856240Y-59689037D01*
X160732176Y-59486584D01*
X160577969Y-59306031D01*
X160397416Y-59151824D01*
X160194963Y-59027760D01*
X160085278Y-58982327D01*
X159975593Y-58936894D01*
X159744712Y-58881465D01*
X159508000Y-58862835D01*
X159271287Y-58881465D01*
X159040406Y-58936894D01*
X158821035Y-59027761D01*
X158618585Y-59151823D01*
X158438031Y-59306031D01*
X158283823Y-59486585D01*
X158159900Y-59688808D01*
X158159760Y-59689037D01*
X158159204Y-59690380D01*
X158068894Y-59908406D01*
X158013465Y-60139287D01*
X157994835Y-60375999D01*
X150181549Y-60375999D01*
X150161401Y-60171438D01*
X150101733Y-59974738D01*
X150008042Y-59799453D01*
X149993400Y-59741000D01*
X150008042Y-59682547D01*
X150045086Y-59613241D01*
X150101733Y-59507262D01*
X150161401Y-59310562D01*
X150181549Y-59106000D01*
X150161401Y-58901438D01*
X150101733Y-58704738D01*
X150004837Y-58523457D01*
X150004836Y-58523456D01*
X150003222Y-58520436D01*
X149988580Y-58461982D01*
X150003222Y-58403529D01*
X150093842Y-58233991D01*
X150138735Y-58086001D01*
X150138735Y-58086000D01*
X149383651Y-58086000D01*
X149347657Y-58080661D01*
X149337562Y-58077598D01*
X149198006Y-58063853D01*
X149184262Y-58062500D01*
X148351738Y-58062500D01*
X148339124Y-58063742D01*
X148198437Y-58077598D01*
X148188343Y-58080661D01*
X148152349Y-58086000D01*
X147397265Y-58086000D01*
X147397264Y-58086001D01*
X147442157Y-58233994D01*
X147532777Y-58403531D01*
X147547419Y-58461984D01*
X147532778Y-58520437D01*
X147531165Y-58523454D01*
X147531163Y-58523457D01*
X147434267Y-58704738D01*
X147434267Y-58704739D01*
X147374598Y-58901439D01*
X147354451Y-59106000D01*
X147374598Y-59310560D01*
X147390595Y-59363293D01*
X147434267Y-59507262D01*
X147483064Y-59598555D01*
X147527958Y-59682548D01*
X147542599Y-59741000D01*
X147527958Y-59799452D01*
X147474102Y-59900209D01*
X147434267Y-59974738D01*
X147404432Y-60073088D01*
X147374598Y-60171439D01*
X147354451Y-60376000D01*
X127850330Y-60376000D01*
X127766576Y-60310811D01*
X127568574Y-60203658D01*
X127568573Y-60203657D01*
X127568572Y-60203657D01*
X127355636Y-60130556D01*
X127133569Y-60093500D01*
X126908431Y-60093500D01*
X126686363Y-60130556D01*
X126473427Y-60203657D01*
X126275424Y-60310811D01*
X126097760Y-60449094D01*
X125945279Y-60614730D01*
X125854809Y-60753205D01*
X125810017Y-60794438D01*
X125751000Y-60809383D01*
X125691983Y-60794438D01*
X125647191Y-60753205D01*
X125627043Y-60722367D01*
X125556722Y-60614732D01*
X125404240Y-60449094D01*
X125226576Y-60310811D01*
X125028574Y-60203658D01*
X125028573Y-60203657D01*
X125028572Y-60203657D01*
X124815636Y-60130556D01*
X124593569Y-60093500D01*
X124368431Y-60093500D01*
X124146363Y-60130556D01*
X123933427Y-60203657D01*
X123735424Y-60310811D01*
X123557759Y-60449094D01*
X123494548Y-60517759D01*
X123441924Y-60551612D01*
X123379470Y-60555460D01*
X123323089Y-60528322D01*
X123287138Y-60477110D01*
X123262427Y-60410861D01*
X123241889Y-60355796D01*
X123208214Y-60310811D01*
X123154261Y-60238738D01*
X123037203Y-60151110D01*
X122900205Y-60100011D01*
X122869919Y-60096755D01*
X122839638Y-60093500D01*
X121042362Y-60093500D01*
X121015445Y-60096393D01*
X120981794Y-60100011D01*
X120844796Y-60151110D01*
X120727738Y-60238738D01*
X120640110Y-60355796D01*
X120589011Y-60492794D01*
X120585393Y-60526445D01*
X120582500Y-60553362D01*
X120582500Y-62350638D01*
X118800976Y-62350638D01*
X116332837Y-59882499D01*
X116321055Y-59868866D01*
X116306397Y-59849177D01*
X116267773Y-59816768D01*
X116259793Y-59809455D01*
X116255766Y-59805428D01*
X116255765Y-59805427D01*
X116231017Y-59785859D01*
X116228273Y-59783624D01*
X116169853Y-59734604D01*
X116169851Y-59734603D01*
X116168985Y-59733876D01*
X116152036Y-59723078D01*
X116081914Y-59690380D01*
X116078668Y-59688808D01*
X116009565Y-59654103D01*
X115990576Y-59647502D01*
X115914841Y-59631864D01*
X115911323Y-59631084D01*
X115836032Y-59613241D01*
X115816038Y-59611198D01*
X115748705Y-59613157D01*
X115738710Y-59613448D01*
X115735106Y-59613500D01*
X112113676Y-59613500D01*
X112054659Y-59598555D01*
X112009868Y-59557322D01*
X111997722Y-59538731D01*
X111845242Y-59373096D01*
X111845241Y-59373095D01*
X111845240Y-59373094D01*
X111667576Y-59234811D01*
X111469574Y-59127658D01*
X111469573Y-59127657D01*
X111469572Y-59127657D01*
X111256636Y-59054556D01*
X111034569Y-59017500D01*
X110809431Y-59017500D01*
X110587363Y-59054556D01*
X110374427Y-59127657D01*
X110176424Y-59234811D01*
X109998760Y-59373094D01*
X109846279Y-59538730D01*
X109755809Y-59677205D01*
X109711017Y-59718438D01*
X109652000Y-59733383D01*
X109592983Y-59718438D01*
X109548191Y-59677205D01*
X109469867Y-59557322D01*
X109457722Y-59538732D01*
X109305240Y-59373094D01*
X109127576Y-59234811D01*
X108929574Y-59127658D01*
X108929573Y-59127657D01*
X108929572Y-59127657D01*
X108716636Y-59054556D01*
X108494569Y-59017500D01*
X108269431Y-59017500D01*
X108047363Y-59054556D01*
X107834427Y-59127657D01*
X107636424Y-59234811D01*
X107458759Y-59373094D01*
X107395548Y-59441759D01*
X107342924Y-59475612D01*
X107280470Y-59479460D01*
X107224089Y-59452322D01*
X107188138Y-59401110D01*
X107152674Y-59306031D01*
X107142889Y-59279796D01*
X107109214Y-59234811D01*
X107055261Y-59162738D01*
X106938203Y-59075110D01*
X106801205Y-59024011D01*
X106770919Y-59020755D01*
X106740638Y-59017500D01*
X104943362Y-59017500D01*
X104916445Y-59020393D01*
X104882794Y-59024011D01*
X104745796Y-59075110D01*
X104628738Y-59162738D01*
X104541110Y-59279796D01*
X104490011Y-59416794D01*
X104486393Y-59450445D01*
X104483689Y-59475612D01*
X104483500Y-59477366D01*
X104483500Y-61274634D01*
X100075500Y-61274634D01*
X100075500Y-57149634D01*
X147359500Y-57149634D01*
X147366011Y-57210205D01*
X147417604Y-57348528D01*
X147439783Y-57399791D01*
X147436317Y-57457258D01*
X147397264Y-57585999D01*
X147397265Y-57586000D01*
X147690877Y-57586000D01*
X147734210Y-57593817D01*
X147758799Y-57602989D01*
X147819362Y-57609500D01*
X149716634Y-57609500D01*
X149716638Y-57609500D01*
X149777201Y-57602989D01*
X149801789Y-57593817D01*
X149845123Y-57586000D01*
X150138735Y-57586000D01*
X150138735Y-57585999D01*
X150099682Y-57457260D01*
X150096217Y-57399790D01*
X150118389Y-57348543D01*
X150118887Y-57347205D01*
X150118889Y-57347204D01*
X150169989Y-57210201D01*
X150176500Y-57149638D01*
X150176500Y-55982362D01*
X150169989Y-55921799D01*
X150169988Y-55921797D01*
X150169988Y-55921794D01*
X150118889Y-55784796D01*
X150031261Y-55667738D01*
X149914203Y-55580110D01*
X149777205Y-55529011D01*
X149746919Y-55525755D01*
X149716638Y-55522500D01*
X147819362Y-55522500D01*
X147792445Y-55525393D01*
X147758794Y-55529011D01*
X147621796Y-55580110D01*
X147504738Y-55667738D01*
X147417110Y-55784796D01*
X147366011Y-55921794D01*
X147359500Y-55982366D01*
X147359500Y-57149634D01*
X100075500Y-57149634D01*
X100075500Y-54416638D01*
X103213500Y-54416638D01*
X103216192Y-54441677D01*
X103220011Y-54477205D01*
X103271110Y-54614203D01*
X103358738Y-54731261D01*
X103475796Y-54818889D01*
X103612794Y-54869988D01*
X103612797Y-54869988D01*
X103612799Y-54869989D01*
X103673362Y-54876500D01*
X105470634Y-54876500D01*
X105470638Y-54876500D01*
X105531201Y-54869989D01*
X105531203Y-54869988D01*
X105531205Y-54869988D01*
X105634398Y-54831498D01*
X105668204Y-54818889D01*
X105785261Y-54731261D01*
X105872889Y-54614204D01*
X105918137Y-54492889D01*
X105954089Y-54441677D01*
X106010471Y-54414539D01*
X106072925Y-54418387D01*
X106125548Y-54452241D01*
X106162969Y-54492890D01*
X106188760Y-54520906D01*
X106366424Y-54659189D01*
X106564426Y-54766342D01*
X106777365Y-54839444D01*
X106999431Y-54876500D01*
X107224569Y-54876500D01*
X107446635Y-54839444D01*
X107659574Y-54766342D01*
X107857576Y-54659189D01*
X108035240Y-54520906D01*
X108187722Y-54355268D01*
X108257097Y-54249080D01*
X108278191Y-54216795D01*
X108322982Y-54175561D01*
X108382000Y-54160616D01*
X108441018Y-54175561D01*
X108485809Y-54216795D01*
X108513125Y-54258606D01*
X108576278Y-54355268D01*
X108728760Y-54520906D01*
X108906424Y-54659189D01*
X109104426Y-54766342D01*
X109317365Y-54839444D01*
X109539431Y-54876500D01*
X109764569Y-54876500D01*
X109986635Y-54839444D01*
X110199574Y-54766342D01*
X110397576Y-54659189D01*
X110575240Y-54520906D01*
X110727722Y-54355268D01*
X110821748Y-54211349D01*
X110865663Y-54170595D01*
X110923562Y-54155188D01*
X110981926Y-54168726D01*
X111027131Y-54208048D01*
X111153892Y-54389080D01*
X111320918Y-54556106D01*
X111514423Y-54691600D01*
X111728507Y-54791430D01*
X111941999Y-54848635D01*
X111942000Y-54848636D01*
X111942000Y-53768000D01*
X112442000Y-53768000D01*
X112442000Y-54848635D01*
X112655492Y-54791430D01*
X112869576Y-54691600D01*
X112899518Y-54670634D01*
X116421500Y-54670634D01*
X116428011Y-54731205D01*
X116479110Y-54868203D01*
X116566738Y-54985261D01*
X116683796Y-55072889D01*
X116820794Y-55123988D01*
X116820797Y-55123988D01*
X116820799Y-55123989D01*
X116881362Y-55130500D01*
X118678634Y-55130500D01*
X118678638Y-55130500D01*
X118739201Y-55123989D01*
X118739203Y-55123988D01*
X118739205Y-55123988D01*
X118821097Y-55093443D01*
X118876204Y-55072889D01*
X118993261Y-54985261D01*
X119080889Y-54868204D01*
X119126137Y-54746889D01*
X119162089Y-54695677D01*
X119218471Y-54668539D01*
X119280925Y-54672387D01*
X119333548Y-54706241D01*
X119388876Y-54766342D01*
X119396760Y-54774906D01*
X119574424Y-54913189D01*
X119772426Y-55020342D01*
X119985365Y-55093444D01*
X120207431Y-55130500D01*
X120432569Y-55130500D01*
X120654635Y-55093444D01*
X120867574Y-55020342D01*
X121065576Y-54913189D01*
X121243240Y-54774906D01*
X121395722Y-54609268D01*
X121465097Y-54503080D01*
X121486191Y-54470795D01*
X121530982Y-54429561D01*
X121590000Y-54414616D01*
X121649018Y-54429561D01*
X121693809Y-54470795D01*
X121749545Y-54556106D01*
X121784278Y-54609268D01*
X121936760Y-54774906D01*
X122114424Y-54913189D01*
X122312426Y-55020342D01*
X122525365Y-55093444D01*
X122747431Y-55130500D01*
X122972569Y-55130500D01*
X123194635Y-55093444D01*
X123407574Y-55020342D01*
X123605576Y-54913189D01*
X123783240Y-54774906D01*
X123935722Y-54609268D01*
X124005097Y-54503080D01*
X124026191Y-54470795D01*
X124070982Y-54429561D01*
X124130000Y-54414616D01*
X124189018Y-54429561D01*
X124233809Y-54470795D01*
X124289545Y-54556106D01*
X124324278Y-54609268D01*
X124476760Y-54774906D01*
X124654424Y-54913189D01*
X124852426Y-55020342D01*
X125065365Y-55093444D01*
X125287431Y-55130500D01*
X125512569Y-55130500D01*
X125734635Y-55093444D01*
X125947574Y-55020342D01*
X126145576Y-54913189D01*
X126323240Y-54774906D01*
X126475722Y-54609268D01*
X126545097Y-54503080D01*
X126566191Y-54470795D01*
X126610982Y-54429561D01*
X126670000Y-54414616D01*
X126729018Y-54429561D01*
X126773809Y-54470795D01*
X126829545Y-54556106D01*
X126864278Y-54609268D01*
X127016760Y-54774906D01*
X127194424Y-54913189D01*
X127392426Y-55020342D01*
X127605365Y-55093444D01*
X127827431Y-55130500D01*
X128052569Y-55130500D01*
X128274635Y-55093444D01*
X128487574Y-55020342D01*
X128685576Y-54913189D01*
X128863240Y-54774906D01*
X129015722Y-54609268D01*
X129109748Y-54465349D01*
X129153663Y-54424595D01*
X129211562Y-54409188D01*
X129269926Y-54422726D01*
X129315131Y-54462048D01*
X129441892Y-54643080D01*
X129608918Y-54810106D01*
X129802423Y-54945600D01*
X130016507Y-55045430D01*
X130229999Y-55102635D01*
X130230000Y-55102636D01*
X130230000Y-54022000D01*
X130730000Y-54022000D01*
X130730000Y-55102635D01*
X130943492Y-55045430D01*
X131157576Y-54945600D01*
X131351081Y-54810106D01*
X131518106Y-54643081D01*
X131653600Y-54449576D01*
X131753430Y-54235492D01*
X131810636Y-54022000D01*
X130730000Y-54022000D01*
X130230000Y-54022000D01*
X130230000Y-52441364D01*
X130730000Y-52441364D01*
X130730000Y-53522000D01*
X131810636Y-53522000D01*
X131810635Y-53521999D01*
X131809563Y-53518000D01*
X135008501Y-53518000D01*
X135028456Y-53746084D01*
X135087717Y-53967246D01*
X135184474Y-54174744D01*
X135184476Y-54174746D01*
X135184477Y-54174749D01*
X135315802Y-54362300D01*
X135477700Y-54524198D01*
X135665251Y-54655523D01*
X135665254Y-54655524D01*
X135665255Y-54655525D01*
X135673113Y-54659189D01*
X135872757Y-54752284D01*
X136093913Y-54811543D01*
X136322000Y-54831498D01*
X136550087Y-54811543D01*
X136771243Y-54752284D01*
X136978749Y-54655523D01*
X137166300Y-54524198D01*
X137328198Y-54362300D01*
X137459523Y-54174749D01*
X137556284Y-53967243D01*
X137615543Y-53746087D01*
X137635498Y-53518000D01*
X138564501Y-53518000D01*
X138584456Y-53746084D01*
X138643717Y-53967246D01*
X138740474Y-54174744D01*
X138740476Y-54174746D01*
X138740477Y-54174749D01*
X138871802Y-54362300D01*
X139033700Y-54524198D01*
X139221251Y-54655523D01*
X139221254Y-54655524D01*
X139221255Y-54655525D01*
X139229113Y-54659189D01*
X139428757Y-54752284D01*
X139649913Y-54811543D01*
X139878000Y-54831498D01*
X140106087Y-54811543D01*
X140327243Y-54752284D01*
X140534749Y-54655523D01*
X140722300Y-54524198D01*
X140884198Y-54362300D01*
X141015523Y-54174749D01*
X141112284Y-53967243D01*
X141171543Y-53746087D01*
X141191498Y-53518000D01*
X142120501Y-53518000D01*
X142140456Y-53746084D01*
X142199717Y-53967246D01*
X142296474Y-54174744D01*
X142296476Y-54174746D01*
X142296477Y-54174749D01*
X142427802Y-54362300D01*
X142589700Y-54524198D01*
X142777251Y-54655523D01*
X142777254Y-54655524D01*
X142777255Y-54655525D01*
X142785113Y-54659189D01*
X142984757Y-54752284D01*
X143205913Y-54811543D01*
X143434000Y-54831498D01*
X143662087Y-54811543D01*
X143883243Y-54752284D01*
X144090749Y-54655523D01*
X144278300Y-54524198D01*
X144440198Y-54362300D01*
X144571523Y-54174749D01*
X144668284Y-53967243D01*
X144727543Y-53746087D01*
X144747498Y-53518000D01*
X144727543Y-53289913D01*
X144668284Y-53068757D01*
X144577172Y-52873366D01*
X144571525Y-52861255D01*
X144571524Y-52861254D01*
X144571523Y-52861251D01*
X144440198Y-52673700D01*
X144278300Y-52511802D01*
X144090749Y-52380477D01*
X144090746Y-52380476D01*
X144090744Y-52380474D01*
X143883246Y-52283717D01*
X143883243Y-52283716D01*
X143772665Y-52254086D01*
X143662084Y-52224456D01*
X143434000Y-52204501D01*
X143205915Y-52224456D01*
X142984753Y-52283717D01*
X142777255Y-52380474D01*
X142589696Y-52511805D01*
X142427805Y-52673696D01*
X142427802Y-52673699D01*
X142427802Y-52673700D01*
X142422880Y-52680730D01*
X142296474Y-52861255D01*
X142199717Y-53068753D01*
X142140456Y-53289915D01*
X142120501Y-53518000D01*
X141191498Y-53518000D01*
X141171543Y-53289913D01*
X141112284Y-53068757D01*
X141021172Y-52873366D01*
X141015525Y-52861255D01*
X141015524Y-52861254D01*
X141015523Y-52861251D01*
X140884198Y-52673700D01*
X140722300Y-52511802D01*
X140534749Y-52380477D01*
X140534746Y-52380476D01*
X140534744Y-52380474D01*
X140327246Y-52283717D01*
X140327243Y-52283716D01*
X140216665Y-52254086D01*
X140106084Y-52224456D01*
X139878000Y-52204501D01*
X139649915Y-52224456D01*
X139428753Y-52283717D01*
X139221255Y-52380474D01*
X139033696Y-52511805D01*
X138871805Y-52673696D01*
X138871802Y-52673699D01*
X138871802Y-52673700D01*
X138866880Y-52680730D01*
X138740474Y-52861255D01*
X138643717Y-53068753D01*
X138584456Y-53289915D01*
X138564501Y-53518000D01*
X137635498Y-53518000D01*
X137615543Y-53289913D01*
X137556284Y-53068757D01*
X137465172Y-52873366D01*
X137459525Y-52861255D01*
X137459524Y-52861254D01*
X137459523Y-52861251D01*
X137328198Y-52673700D01*
X137166300Y-52511802D01*
X136978749Y-52380477D01*
X136978746Y-52380476D01*
X136978744Y-52380474D01*
X136771246Y-52283717D01*
X136771243Y-52283716D01*
X136660665Y-52254086D01*
X136550084Y-52224456D01*
X136322000Y-52204501D01*
X136093915Y-52224456D01*
X135872753Y-52283717D01*
X135665255Y-52380474D01*
X135477696Y-52511805D01*
X135315805Y-52673696D01*
X135315802Y-52673699D01*
X135315802Y-52673700D01*
X135310880Y-52680730D01*
X135184474Y-52861255D01*
X135087717Y-53068753D01*
X135028456Y-53289915D01*
X135008501Y-53518000D01*
X131809563Y-53518000D01*
X131753430Y-53308507D01*
X131653599Y-53094421D01*
X131518109Y-52900921D01*
X131351081Y-52733893D01*
X131157576Y-52598399D01*
X130943492Y-52498569D01*
X130730000Y-52441364D01*
X130230000Y-52441364D01*
X130229999Y-52441364D01*
X130016507Y-52498569D01*
X129802421Y-52598400D01*
X129608921Y-52733890D01*
X129441893Y-52900918D01*
X129315132Y-53081952D01*
X129269928Y-53121274D01*
X129211564Y-53134812D01*
X129153665Y-53119405D01*
X129109748Y-53078649D01*
X129015723Y-52934732D01*
X128910167Y-52820070D01*
X128863240Y-52769094D01*
X128685576Y-52630811D01*
X128487574Y-52523658D01*
X128487573Y-52523657D01*
X128487572Y-52523657D01*
X128274636Y-52450556D01*
X128052569Y-52413500D01*
X127827431Y-52413500D01*
X127605363Y-52450556D01*
X127392427Y-52523657D01*
X127194424Y-52630811D01*
X127016760Y-52769094D01*
X126864279Y-52934730D01*
X126773809Y-53073205D01*
X126729017Y-53114438D01*
X126670000Y-53129383D01*
X126610983Y-53114438D01*
X126566191Y-53073205D01*
X126509599Y-52986585D01*
X126475722Y-52934732D01*
X126323240Y-52769094D01*
X126145576Y-52630811D01*
X125947574Y-52523658D01*
X125947573Y-52523657D01*
X125947572Y-52523657D01*
X125734636Y-52450556D01*
X125512569Y-52413500D01*
X125287431Y-52413500D01*
X125065363Y-52450556D01*
X124852427Y-52523657D01*
X124654424Y-52630811D01*
X124476760Y-52769094D01*
X124324279Y-52934730D01*
X124233809Y-53073205D01*
X124189017Y-53114438D01*
X124130000Y-53129383D01*
X124070983Y-53114438D01*
X124026191Y-53073205D01*
X123969599Y-52986585D01*
X123935722Y-52934732D01*
X123783240Y-52769094D01*
X123605576Y-52630811D01*
X123407574Y-52523658D01*
X123407573Y-52523657D01*
X123407572Y-52523657D01*
X123194636Y-52450556D01*
X122972569Y-52413500D01*
X122747431Y-52413500D01*
X122525363Y-52450556D01*
X122312427Y-52523657D01*
X122114424Y-52630811D01*
X121936760Y-52769094D01*
X121784279Y-52934730D01*
X121693809Y-53073205D01*
X121649017Y-53114438D01*
X121590000Y-53129383D01*
X121530983Y-53114438D01*
X121486191Y-53073205D01*
X121429599Y-52986585D01*
X121395722Y-52934732D01*
X121243240Y-52769094D01*
X121065576Y-52630811D01*
X120867574Y-52523658D01*
X120867573Y-52523657D01*
X120867572Y-52523657D01*
X120654636Y-52450556D01*
X120432569Y-52413500D01*
X120207431Y-52413500D01*
X119985363Y-52450556D01*
X119772427Y-52523657D01*
X119574424Y-52630811D01*
X119396759Y-52769094D01*
X119333548Y-52837759D01*
X119280924Y-52871612D01*
X119218470Y-52875460D01*
X119162089Y-52848322D01*
X119126138Y-52797110D01*
X119101427Y-52730861D01*
X119080889Y-52675796D01*
X119047214Y-52630811D01*
X118993261Y-52558738D01*
X118876203Y-52471110D01*
X118739205Y-52420011D01*
X118708919Y-52416755D01*
X118678638Y-52413500D01*
X116881362Y-52413500D01*
X116854445Y-52416393D01*
X116820794Y-52420011D01*
X116683796Y-52471110D01*
X116566738Y-52558738D01*
X116479110Y-52675796D01*
X116428011Y-52812794D01*
X116425041Y-52840421D01*
X116421689Y-52871612D01*
X116421500Y-52873366D01*
X116421500Y-54670634D01*
X112899518Y-54670634D01*
X113063081Y-54556106D01*
X113230106Y-54389081D01*
X113365600Y-54195576D01*
X113465430Y-53981492D01*
X113522636Y-53768000D01*
X112442000Y-53768000D01*
X111942000Y-53768000D01*
X111942000Y-52187364D01*
X112442000Y-52187364D01*
X112442000Y-53268000D01*
X113522636Y-53268000D01*
X113522635Y-53267999D01*
X113465430Y-53054507D01*
X113365599Y-52840421D01*
X113230109Y-52646921D01*
X113063081Y-52479893D01*
X112869576Y-52344399D01*
X112655492Y-52244569D01*
X112442000Y-52187364D01*
X111942000Y-52187364D01*
X111941999Y-52187364D01*
X111728507Y-52244569D01*
X111514421Y-52344400D01*
X111320921Y-52479890D01*
X111153893Y-52646918D01*
X111027132Y-52827952D01*
X110981928Y-52867274D01*
X110923564Y-52880812D01*
X110865665Y-52865405D01*
X110821748Y-52824649D01*
X110727723Y-52680732D01*
X110638451Y-52583759D01*
X110575240Y-52515094D01*
X110397576Y-52376811D01*
X110199574Y-52269658D01*
X110199573Y-52269657D01*
X110199572Y-52269657D01*
X109986636Y-52196556D01*
X109764569Y-52159500D01*
X109539431Y-52159500D01*
X109317363Y-52196556D01*
X109104427Y-52269657D01*
X108906424Y-52376811D01*
X108728760Y-52515094D01*
X108576279Y-52680730D01*
X108485809Y-52819205D01*
X108441017Y-52860438D01*
X108382000Y-52875383D01*
X108322983Y-52860438D01*
X108278191Y-52819205D01*
X108245452Y-52769094D01*
X108187722Y-52680732D01*
X108035240Y-52515094D01*
X107857576Y-52376811D01*
X107659574Y-52269658D01*
X107659573Y-52269657D01*
X107659572Y-52269657D01*
X107446636Y-52196556D01*
X107224569Y-52159500D01*
X106999431Y-52159500D01*
X106777363Y-52196556D01*
X106564427Y-52269657D01*
X106366424Y-52376811D01*
X106188759Y-52515094D01*
X106125548Y-52583759D01*
X106072924Y-52617612D01*
X106010470Y-52621460D01*
X105954089Y-52594322D01*
X105918138Y-52543110D01*
X105883616Y-52450556D01*
X105872889Y-52421796D01*
X105814951Y-52344400D01*
X105785261Y-52304738D01*
X105668203Y-52217110D01*
X105531205Y-52166011D01*
X105500919Y-52162755D01*
X105470638Y-52159500D01*
X103673362Y-52159500D01*
X103646445Y-52162393D01*
X103612794Y-52166011D01*
X103475796Y-52217110D01*
X103358738Y-52304738D01*
X103271110Y-52421796D01*
X103220011Y-52558794D01*
X103216393Y-52592445D01*
X103213500Y-52619362D01*
X103213500Y-54416638D01*
X100075500Y-54416638D01*
X100075500Y-50098634D01*
X117437500Y-50098634D01*
X117444011Y-50159205D01*
X117495110Y-50296203D01*
X117582738Y-50413261D01*
X117699796Y-50500889D01*
X117836794Y-50551988D01*
X117836797Y-50551988D01*
X117836799Y-50551989D01*
X117897362Y-50558500D01*
X119694634Y-50558500D01*
X119694638Y-50558500D01*
X119755201Y-50551989D01*
X119755203Y-50551988D01*
X119755205Y-50551988D01*
X119837097Y-50521443D01*
X119892204Y-50500889D01*
X120009261Y-50413261D01*
X120096889Y-50296204D01*
X120142137Y-50174889D01*
X120178089Y-50123677D01*
X120234471Y-50096539D01*
X120296925Y-50100387D01*
X120349548Y-50134241D01*
X120386969Y-50174890D01*
X120412760Y-50202906D01*
X120590424Y-50341189D01*
X120788426Y-50448342D01*
X121001365Y-50521444D01*
X121223431Y-50558500D01*
X121448569Y-50558500D01*
X121670635Y-50521444D01*
X121883574Y-50448342D01*
X122081576Y-50341189D01*
X122259240Y-50202906D01*
X122411722Y-50037268D01*
X122502190Y-49898795D01*
X122546982Y-49857561D01*
X122606000Y-49842616D01*
X122665018Y-49857561D01*
X122709809Y-49898795D01*
X122800278Y-50037268D01*
X122952760Y-50202906D01*
X123130424Y-50341189D01*
X123328426Y-50448342D01*
X123541365Y-50521444D01*
X123763431Y-50558500D01*
X123988569Y-50558500D01*
X124210635Y-50521444D01*
X124423574Y-50448342D01*
X124621576Y-50341189D01*
X124799240Y-50202906D01*
X124951722Y-50037268D01*
X125045748Y-49893349D01*
X125089663Y-49852595D01*
X125147562Y-49837188D01*
X125205926Y-49850726D01*
X125251131Y-49890048D01*
X125377892Y-50071080D01*
X125544918Y-50238106D01*
X125738423Y-50373600D01*
X125952507Y-50473430D01*
X126165999Y-50530635D01*
X126166000Y-50530636D01*
X126166000Y-50530635D01*
X126666000Y-50530635D01*
X126879492Y-50473430D01*
X127093576Y-50373600D01*
X127287081Y-50238106D01*
X127454106Y-50071081D01*
X127580868Y-49890048D01*
X127626072Y-49850726D01*
X127684436Y-49837188D01*
X127742335Y-49852595D01*
X127786252Y-49893351D01*
X127880276Y-50037267D01*
X127959824Y-50123677D01*
X128032760Y-50202906D01*
X128210424Y-50341189D01*
X128408426Y-50448342D01*
X128621365Y-50521444D01*
X128843431Y-50558500D01*
X129068569Y-50558500D01*
X129290635Y-50521444D01*
X129503574Y-50448342D01*
X129701576Y-50341189D01*
X129879240Y-50202906D01*
X130031722Y-50037268D01*
X130122190Y-49898795D01*
X130166982Y-49857561D01*
X130226000Y-49842616D01*
X130285018Y-49857561D01*
X130329809Y-49898795D01*
X130420278Y-50037268D01*
X130572760Y-50202906D01*
X130750424Y-50341189D01*
X130948426Y-50448342D01*
X131161365Y-50521444D01*
X131383431Y-50558500D01*
X131608569Y-50558500D01*
X131830635Y-50521444D01*
X132043574Y-50448342D01*
X132241576Y-50341189D01*
X132419240Y-50202906D01*
X132571722Y-50037268D01*
X132662190Y-49898795D01*
X132706982Y-49857561D01*
X132766000Y-49842616D01*
X132825018Y-49857561D01*
X132869809Y-49898795D01*
X132960278Y-50037268D01*
X133112760Y-50202906D01*
X133290424Y-50341189D01*
X133488426Y-50448342D01*
X133701365Y-50521444D01*
X133923431Y-50558500D01*
X134148569Y-50558500D01*
X134370635Y-50521444D01*
X134583574Y-50448342D01*
X134781576Y-50341189D01*
X134959240Y-50202906D01*
X135111722Y-50037268D01*
X135202190Y-49898795D01*
X135246982Y-49857561D01*
X135306000Y-49842616D01*
X135365018Y-49857561D01*
X135409809Y-49898795D01*
X135500278Y-50037268D01*
X135652760Y-50202906D01*
X135830424Y-50341189D01*
X136028426Y-50448342D01*
X136241365Y-50521444D01*
X136463431Y-50558500D01*
X136688569Y-50558500D01*
X136910635Y-50521444D01*
X137123574Y-50448342D01*
X137321576Y-50341189D01*
X137499240Y-50202906D01*
X137651722Y-50037268D01*
X137742190Y-49898795D01*
X137786982Y-49857561D01*
X137846000Y-49842616D01*
X137905018Y-49857561D01*
X137949809Y-49898795D01*
X138040278Y-50037268D01*
X138192760Y-50202906D01*
X138370424Y-50341189D01*
X138568426Y-50448342D01*
X138781365Y-50521444D01*
X139003431Y-50558500D01*
X139228569Y-50558500D01*
X139450635Y-50521444D01*
X139663574Y-50448342D01*
X139861576Y-50341189D01*
X140039240Y-50202906D01*
X140191722Y-50037268D01*
X140282190Y-49898795D01*
X140326982Y-49857561D01*
X140386000Y-49842616D01*
X140445018Y-49857561D01*
X140489809Y-49898795D01*
X140580278Y-50037268D01*
X140732760Y-50202906D01*
X140910424Y-50341189D01*
X141108426Y-50448342D01*
X141321365Y-50521444D01*
X141543431Y-50558500D01*
X141768569Y-50558500D01*
X141990635Y-50521444D01*
X142203574Y-50448342D01*
X142401576Y-50341189D01*
X142579240Y-50202906D01*
X142675230Y-50098634D01*
X144361500Y-50098634D01*
X144368011Y-50159205D01*
X144419110Y-50296203D01*
X144506738Y-50413261D01*
X144623796Y-50500889D01*
X144760794Y-50551988D01*
X144760797Y-50551988D01*
X144760799Y-50551989D01*
X144821362Y-50558500D01*
X144845026Y-50558500D01*
X144907026Y-50575113D01*
X144952413Y-50620500D01*
X144969026Y-50682500D01*
X144952413Y-50744500D01*
X144885472Y-50860443D01*
X144826458Y-51042070D01*
X144806496Y-51231999D01*
X144826458Y-51421929D01*
X144885472Y-51603556D01*
X144980957Y-51768941D01*
X144980960Y-51768944D01*
X145108747Y-51910866D01*
X145263247Y-52023117D01*
X145263248Y-52023118D01*
X145437714Y-52100795D01*
X145624511Y-52140500D01*
X145624513Y-52140500D01*
X145678406Y-52140500D01*
X145725859Y-52149939D01*
X145766087Y-52176819D01*
X146989341Y-53400074D01*
X147002429Y-53416409D01*
X147054280Y-53465100D01*
X147057078Y-53467811D01*
X147076906Y-53487639D01*
X147080202Y-53490195D01*
X147089075Y-53497773D01*
X147121494Y-53528217D01*
X147139461Y-53538094D01*
X147155724Y-53548776D01*
X147171933Y-53561350D01*
X147212746Y-53579011D01*
X147223232Y-53584148D01*
X147262197Y-53605569D01*
X147282067Y-53610670D01*
X147300462Y-53616968D01*
X147319292Y-53625117D01*
X147363219Y-53632073D01*
X147374642Y-53634439D01*
X147417718Y-53645500D01*
X147438226Y-53645500D01*
X147457624Y-53647026D01*
X147477879Y-53650235D01*
X147522150Y-53646050D01*
X147533820Y-53645500D01*
X149586492Y-53645500D01*
X149636926Y-53656220D01*
X149678640Y-53686526D01*
X149680747Y-53688866D01*
X149795171Y-53772000D01*
X149835248Y-53801118D01*
X150009714Y-53878795D01*
X150196511Y-53918500D01*
X150196513Y-53918500D01*
X150387487Y-53918500D01*
X150387489Y-53918500D01*
X150574285Y-53878795D01*
X150574286Y-53878794D01*
X150574288Y-53878794D01*
X150748752Y-53801118D01*
X150903253Y-53688866D01*
X151031040Y-53546944D01*
X151045442Y-53522000D01*
X151047751Y-53518000D01*
X154566501Y-53518000D01*
X154586456Y-53746084D01*
X154645717Y-53967246D01*
X154742474Y-54174744D01*
X154742476Y-54174746D01*
X154742477Y-54174749D01*
X154873802Y-54362300D01*
X155035700Y-54524198D01*
X155223251Y-54655523D01*
X155223254Y-54655524D01*
X155223255Y-54655525D01*
X155231113Y-54659189D01*
X155430757Y-54752284D01*
X155651913Y-54811543D01*
X155880000Y-54831498D01*
X156108087Y-54811543D01*
X156329243Y-54752284D01*
X156536749Y-54655523D01*
X156724300Y-54524198D01*
X156886198Y-54362300D01*
X157017523Y-54174749D01*
X157114284Y-53967243D01*
X157138733Y-53876000D01*
X157994835Y-53876000D01*
X158013465Y-54112712D01*
X158068894Y-54343593D01*
X158099875Y-54418387D01*
X158159760Y-54562963D01*
X158283824Y-54765416D01*
X158438031Y-54945969D01*
X158618584Y-55100176D01*
X158821037Y-55224240D01*
X159040406Y-55315105D01*
X159271289Y-55370535D01*
X159508000Y-55389165D01*
X159744711Y-55370535D01*
X159975594Y-55315105D01*
X160194963Y-55224240D01*
X160397416Y-55100176D01*
X160577969Y-54945969D01*
X160732176Y-54765416D01*
X160856240Y-54562963D01*
X160947105Y-54343594D01*
X161002535Y-54112711D01*
X161021165Y-53876000D01*
X162494835Y-53876000D01*
X162513465Y-54112712D01*
X162568894Y-54343593D01*
X162599875Y-54418387D01*
X162659760Y-54562963D01*
X162783824Y-54765416D01*
X162938031Y-54945969D01*
X163118584Y-55100176D01*
X163321037Y-55224240D01*
X163540406Y-55315105D01*
X163771289Y-55370535D01*
X164008000Y-55389165D01*
X164244711Y-55370535D01*
X164475594Y-55315105D01*
X164694963Y-55224240D01*
X164897416Y-55100176D01*
X165077969Y-54945969D01*
X165232176Y-54765416D01*
X165356240Y-54562963D01*
X165447105Y-54343594D01*
X165502535Y-54112711D01*
X165521165Y-53876000D01*
X165502535Y-53639289D01*
X165447105Y-53408406D01*
X165356240Y-53189037D01*
X165232176Y-52986584D01*
X165077969Y-52806031D01*
X164897416Y-52651824D01*
X164694963Y-52527760D01*
X164562895Y-52473056D01*
X164475593Y-52436894D01*
X164244712Y-52381465D01*
X164008000Y-52362835D01*
X163771287Y-52381465D01*
X163540406Y-52436894D01*
X163321035Y-52527761D01*
X163118585Y-52651823D01*
X162938031Y-52806031D01*
X162783823Y-52986585D01*
X162696316Y-53129383D01*
X162659760Y-53189037D01*
X162646453Y-53221162D01*
X162568894Y-53408406D01*
X162513465Y-53639287D01*
X162494835Y-53876000D01*
X161021165Y-53876000D01*
X161002535Y-53639289D01*
X160947105Y-53408406D01*
X160856240Y-53189037D01*
X160732176Y-52986584D01*
X160577969Y-52806031D01*
X160397416Y-52651824D01*
X160194963Y-52527760D01*
X160062895Y-52473056D01*
X159975593Y-52436894D01*
X159744712Y-52381465D01*
X159508000Y-52362835D01*
X159271287Y-52381465D01*
X159040406Y-52436894D01*
X158821035Y-52527761D01*
X158618585Y-52651823D01*
X158438031Y-52806031D01*
X158283823Y-52986585D01*
X158196316Y-53129383D01*
X158159760Y-53189037D01*
X158146453Y-53221162D01*
X158068894Y-53408406D01*
X158013465Y-53639287D01*
X157994835Y-53876000D01*
X157138733Y-53876000D01*
X157173543Y-53746087D01*
X157193498Y-53518000D01*
X157173543Y-53289913D01*
X157114284Y-53068757D01*
X157023172Y-52873366D01*
X157017525Y-52861255D01*
X157017524Y-52861254D01*
X157017523Y-52861251D01*
X156886198Y-52673700D01*
X156724300Y-52511802D01*
X156536749Y-52380477D01*
X156536746Y-52380476D01*
X156536744Y-52380474D01*
X156329246Y-52283717D01*
X156329243Y-52283716D01*
X156218665Y-52254086D01*
X156108084Y-52224456D01*
X155880000Y-52204501D01*
X155651915Y-52224456D01*
X155430753Y-52283717D01*
X155223255Y-52380474D01*
X155035696Y-52511805D01*
X154873805Y-52673696D01*
X154873802Y-52673699D01*
X154873802Y-52673700D01*
X154868880Y-52680730D01*
X154742474Y-52861255D01*
X154645717Y-53068753D01*
X154586456Y-53289915D01*
X154566501Y-53518000D01*
X151047751Y-53518000D01*
X151126527Y-53381556D01*
X151156304Y-53289913D01*
X151185542Y-53199928D01*
X151205504Y-53010000D01*
X151185542Y-52820072D01*
X151138663Y-52675795D01*
X151126527Y-52638443D01*
X151031042Y-52473058D01*
X151002504Y-52441364D01*
X150903253Y-52331134D01*
X150784107Y-52244569D01*
X150748751Y-52218881D01*
X150574285Y-52141204D01*
X150387489Y-52101500D01*
X150387487Y-52101500D01*
X150196513Y-52101500D01*
X150196511Y-52101500D01*
X150009714Y-52141204D01*
X149835248Y-52218881D01*
X149680744Y-52331136D01*
X149678640Y-52333474D01*
X149636926Y-52363780D01*
X149586492Y-52374500D01*
X147812595Y-52374500D01*
X147765142Y-52365061D01*
X147724914Y-52338181D01*
X146666288Y-51279555D01*
X146642048Y-51245257D01*
X146630649Y-51204839D01*
X146613542Y-51042072D01*
X146554527Y-50860444D01*
X146554527Y-50860443D01*
X146487587Y-50744500D01*
X146470974Y-50682500D01*
X146487587Y-50620500D01*
X146532974Y-50575113D01*
X146594974Y-50558500D01*
X146618634Y-50558500D01*
X146618638Y-50558500D01*
X146679201Y-50551989D01*
X146679203Y-50551988D01*
X146679205Y-50551988D01*
X146761097Y-50521443D01*
X146816204Y-50500889D01*
X146933261Y-50413261D01*
X147020889Y-50296204D01*
X147066137Y-50174889D01*
X147102089Y-50123677D01*
X147158471Y-50096539D01*
X147220925Y-50100387D01*
X147273548Y-50134241D01*
X147310969Y-50174890D01*
X147336760Y-50202906D01*
X147514424Y-50341189D01*
X147712426Y-50448342D01*
X147925365Y-50521444D01*
X148147431Y-50558500D01*
X148372569Y-50558500D01*
X148594635Y-50521444D01*
X148807574Y-50448342D01*
X149005576Y-50341189D01*
X149183240Y-50202906D01*
X149335722Y-50037268D01*
X149426190Y-49898795D01*
X149470982Y-49857561D01*
X149530000Y-49842616D01*
X149589018Y-49857561D01*
X149633809Y-49898795D01*
X149724278Y-50037268D01*
X149876760Y-50202906D01*
X150054424Y-50341189D01*
X150252426Y-50448342D01*
X150465365Y-50521444D01*
X150687431Y-50558500D01*
X150912569Y-50558500D01*
X151134635Y-50521444D01*
X151347574Y-50448342D01*
X151545576Y-50341189D01*
X151723240Y-50202906D01*
X151875722Y-50037268D01*
X151966190Y-49898795D01*
X152010982Y-49857561D01*
X152070000Y-49842616D01*
X152129018Y-49857561D01*
X152173809Y-49898795D01*
X152264278Y-50037268D01*
X152416760Y-50202906D01*
X152594424Y-50341189D01*
X152792426Y-50448342D01*
X153005365Y-50521444D01*
X153227431Y-50558500D01*
X153452569Y-50558500D01*
X153674635Y-50521444D01*
X153887574Y-50448342D01*
X154085576Y-50341189D01*
X154263240Y-50202906D01*
X154415722Y-50037268D01*
X154506190Y-49898795D01*
X154550982Y-49857561D01*
X154610000Y-49842616D01*
X154669018Y-49857561D01*
X154713809Y-49898795D01*
X154804278Y-50037268D01*
X154956760Y-50202906D01*
X155134424Y-50341189D01*
X155332426Y-50448342D01*
X155545365Y-50521444D01*
X155767431Y-50558500D01*
X155992569Y-50558500D01*
X156214635Y-50521444D01*
X156427574Y-50448342D01*
X156625576Y-50341189D01*
X156803240Y-50202906D01*
X156955722Y-50037268D01*
X157046190Y-49898795D01*
X157090982Y-49857561D01*
X157150000Y-49842616D01*
X157209018Y-49857561D01*
X157253809Y-49898795D01*
X157344278Y-50037268D01*
X157496760Y-50202906D01*
X157674424Y-50341189D01*
X157872426Y-50448342D01*
X158085365Y-50521444D01*
X158307431Y-50558500D01*
X158532569Y-50558500D01*
X158754635Y-50521444D01*
X158967574Y-50448342D01*
X159165576Y-50341189D01*
X159343240Y-50202906D01*
X159495722Y-50037268D01*
X159586190Y-49898795D01*
X159630982Y-49857561D01*
X159690000Y-49842616D01*
X159749018Y-49857561D01*
X159793809Y-49898795D01*
X159884278Y-50037268D01*
X160036760Y-50202906D01*
X160214424Y-50341189D01*
X160412426Y-50448342D01*
X160625365Y-50521444D01*
X160847431Y-50558500D01*
X161072569Y-50558500D01*
X161294635Y-50521444D01*
X161507574Y-50448342D01*
X161705576Y-50341189D01*
X161883240Y-50202906D01*
X162035722Y-50037268D01*
X162126190Y-49898795D01*
X162170982Y-49857561D01*
X162230000Y-49842616D01*
X162289018Y-49857561D01*
X162333809Y-49898795D01*
X162424278Y-50037268D01*
X162576760Y-50202906D01*
X162754424Y-50341189D01*
X162952426Y-50448342D01*
X163165365Y-50521444D01*
X163387431Y-50558500D01*
X163612569Y-50558500D01*
X163834635Y-50521444D01*
X164047574Y-50448342D01*
X164245576Y-50341189D01*
X164423240Y-50202906D01*
X164575722Y-50037268D01*
X164698860Y-49848791D01*
X164789296Y-49642616D01*
X164844564Y-49424368D01*
X164863156Y-49200000D01*
X164844564Y-48975632D01*
X164789296Y-48757384D01*
X164698860Y-48551209D01*
X164575722Y-48362732D01*
X164423240Y-48197094D01*
X164245576Y-48058811D01*
X164047574Y-47951658D01*
X164047573Y-47951657D01*
X164047572Y-47951657D01*
X163834636Y-47878556D01*
X163612569Y-47841500D01*
X163387431Y-47841500D01*
X163165363Y-47878556D01*
X162952427Y-47951657D01*
X162754424Y-48058811D01*
X162576760Y-48197094D01*
X162424279Y-48362730D01*
X162333809Y-48501205D01*
X162289017Y-48542438D01*
X162230000Y-48557383D01*
X162170983Y-48542438D01*
X162126191Y-48501205D01*
X162035723Y-48362734D01*
X162035722Y-48362732D01*
X161883240Y-48197094D01*
X161705576Y-48058811D01*
X161507574Y-47951658D01*
X161507573Y-47951657D01*
X161507572Y-47951657D01*
X161294636Y-47878556D01*
X161072569Y-47841500D01*
X160847431Y-47841500D01*
X160625363Y-47878556D01*
X160412427Y-47951657D01*
X160214424Y-48058811D01*
X160036760Y-48197094D01*
X159884279Y-48362730D01*
X159793809Y-48501205D01*
X159749017Y-48542438D01*
X159690000Y-48557383D01*
X159630983Y-48542438D01*
X159586191Y-48501205D01*
X159495723Y-48362734D01*
X159495722Y-48362732D01*
X159343240Y-48197094D01*
X159165576Y-48058811D01*
X158967574Y-47951658D01*
X158967573Y-47951657D01*
X158967572Y-47951657D01*
X158754636Y-47878556D01*
X158532569Y-47841500D01*
X158307431Y-47841500D01*
X158085363Y-47878556D01*
X157872427Y-47951657D01*
X157674424Y-48058811D01*
X157496760Y-48197094D01*
X157344279Y-48362730D01*
X157253809Y-48501205D01*
X157209017Y-48542438D01*
X157150000Y-48557383D01*
X157090983Y-48542438D01*
X157046191Y-48501205D01*
X156955723Y-48362734D01*
X156955722Y-48362732D01*
X156803240Y-48197094D01*
X156625576Y-48058811D01*
X156427574Y-47951658D01*
X156427573Y-47951657D01*
X156427572Y-47951657D01*
X156214636Y-47878556D01*
X155992569Y-47841500D01*
X155767431Y-47841500D01*
X155545363Y-47878556D01*
X155332427Y-47951657D01*
X155134424Y-48058811D01*
X154956760Y-48197094D01*
X154804279Y-48362730D01*
X154713809Y-48501205D01*
X154669017Y-48542438D01*
X154610000Y-48557383D01*
X154550983Y-48542438D01*
X154506191Y-48501205D01*
X154415723Y-48362734D01*
X154415722Y-48362732D01*
X154263240Y-48197094D01*
X154085576Y-48058811D01*
X153887574Y-47951658D01*
X153887573Y-47951657D01*
X153887572Y-47951657D01*
X153674636Y-47878556D01*
X153452569Y-47841500D01*
X153227431Y-47841500D01*
X153005363Y-47878556D01*
X152792427Y-47951657D01*
X152594424Y-48058811D01*
X152416760Y-48197094D01*
X152264279Y-48362730D01*
X152173809Y-48501205D01*
X152129017Y-48542438D01*
X152070000Y-48557383D01*
X152010983Y-48542438D01*
X151966191Y-48501205D01*
X151875723Y-48362734D01*
X151875722Y-48362732D01*
X151723240Y-48197094D01*
X151545576Y-48058811D01*
X151347574Y-47951658D01*
X151347573Y-47951657D01*
X151347572Y-47951657D01*
X151134636Y-47878556D01*
X150912569Y-47841500D01*
X150687431Y-47841500D01*
X150465363Y-47878556D01*
X150252427Y-47951657D01*
X150054424Y-48058811D01*
X149876760Y-48197094D01*
X149724279Y-48362730D01*
X149633809Y-48501205D01*
X149589017Y-48542438D01*
X149530000Y-48557383D01*
X149470983Y-48542438D01*
X149426191Y-48501205D01*
X149335723Y-48362734D01*
X149335722Y-48362732D01*
X149183240Y-48197094D01*
X149005576Y-48058811D01*
X148807574Y-47951658D01*
X148807573Y-47951657D01*
X148807572Y-47951657D01*
X148594636Y-47878556D01*
X148372569Y-47841500D01*
X148147431Y-47841500D01*
X147925363Y-47878556D01*
X147712427Y-47951657D01*
X147514424Y-48058811D01*
X147336759Y-48197094D01*
X147273548Y-48265759D01*
X147220924Y-48299612D01*
X147158470Y-48303460D01*
X147102089Y-48276322D01*
X147066138Y-48225110D01*
X147041427Y-48158861D01*
X147020889Y-48103796D01*
X146962951Y-48026400D01*
X146933261Y-47986738D01*
X146816203Y-47899110D01*
X146679205Y-47848011D01*
X146648919Y-47844755D01*
X146618638Y-47841500D01*
X144821362Y-47841500D01*
X144794445Y-47844393D01*
X144760794Y-47848011D01*
X144623796Y-47899110D01*
X144506738Y-47986738D01*
X144419110Y-48103796D01*
X144368011Y-48240794D01*
X144364393Y-48274445D01*
X144361689Y-48299612D01*
X144361500Y-48301366D01*
X144361500Y-50098634D01*
X142675230Y-50098634D01*
X142731722Y-50037268D01*
X142854860Y-49848791D01*
X142945296Y-49642616D01*
X143000564Y-49424368D01*
X143019156Y-49200000D01*
X143000564Y-48975632D01*
X142945296Y-48757384D01*
X142854860Y-48551209D01*
X142731722Y-48362732D01*
X142579240Y-48197094D01*
X142401576Y-48058811D01*
X142203574Y-47951658D01*
X142203573Y-47951657D01*
X142203572Y-47951657D01*
X141990636Y-47878556D01*
X141768569Y-47841500D01*
X141543431Y-47841500D01*
X141321363Y-47878556D01*
X141108427Y-47951657D01*
X140910424Y-48058811D01*
X140732760Y-48197094D01*
X140580279Y-48362730D01*
X140489809Y-48501205D01*
X140445017Y-48542438D01*
X140386000Y-48557383D01*
X140326983Y-48542438D01*
X140282191Y-48501205D01*
X140191723Y-48362734D01*
X140191722Y-48362732D01*
X140039240Y-48197094D01*
X139861576Y-48058811D01*
X139663574Y-47951658D01*
X139663573Y-47951657D01*
X139663572Y-47951657D01*
X139450636Y-47878556D01*
X139228569Y-47841500D01*
X139003431Y-47841500D01*
X138781363Y-47878556D01*
X138568427Y-47951657D01*
X138370424Y-48058811D01*
X138192760Y-48197094D01*
X138040279Y-48362730D01*
X137949809Y-48501205D01*
X137905017Y-48542438D01*
X137846000Y-48557383D01*
X137786983Y-48542438D01*
X137742191Y-48501205D01*
X137651723Y-48362734D01*
X137651722Y-48362732D01*
X137499240Y-48197094D01*
X137321576Y-48058811D01*
X137123574Y-47951658D01*
X137123573Y-47951657D01*
X137123572Y-47951657D01*
X136910636Y-47878556D01*
X136688569Y-47841500D01*
X136463431Y-47841500D01*
X136241363Y-47878556D01*
X136028427Y-47951657D01*
X135830424Y-48058811D01*
X135652760Y-48197094D01*
X135500279Y-48362730D01*
X135409809Y-48501205D01*
X135365017Y-48542438D01*
X135306000Y-48557383D01*
X135246983Y-48542438D01*
X135202191Y-48501205D01*
X135111723Y-48362734D01*
X135111722Y-48362732D01*
X134959240Y-48197094D01*
X134781576Y-48058811D01*
X134583574Y-47951658D01*
X134583573Y-47951657D01*
X134583572Y-47951657D01*
X134370636Y-47878556D01*
X134148569Y-47841500D01*
X133923431Y-47841500D01*
X133701363Y-47878556D01*
X133488427Y-47951657D01*
X133290424Y-48058811D01*
X133112760Y-48197094D01*
X132960279Y-48362730D01*
X132869809Y-48501205D01*
X132825017Y-48542438D01*
X132766000Y-48557383D01*
X132706983Y-48542438D01*
X132662191Y-48501205D01*
X132571723Y-48362734D01*
X132571722Y-48362732D01*
X132419240Y-48197094D01*
X132241576Y-48058811D01*
X132043574Y-47951658D01*
X132043573Y-47951657D01*
X132043572Y-47951657D01*
X131830636Y-47878556D01*
X131608569Y-47841500D01*
X131383431Y-47841500D01*
X131161363Y-47878556D01*
X130948427Y-47951657D01*
X130750424Y-48058811D01*
X130572760Y-48197094D01*
X130420279Y-48362730D01*
X130329809Y-48501205D01*
X130285017Y-48542438D01*
X130226000Y-48557383D01*
X130166983Y-48542438D01*
X130122191Y-48501205D01*
X130031723Y-48362734D01*
X130031722Y-48362732D01*
X129879240Y-48197094D01*
X129701576Y-48058811D01*
X129503574Y-47951658D01*
X129503573Y-47951657D01*
X129503572Y-47951657D01*
X129290636Y-47878556D01*
X129068569Y-47841500D01*
X128843431Y-47841500D01*
X128621363Y-47878556D01*
X128408427Y-47951657D01*
X128210424Y-48058811D01*
X128032760Y-48197094D01*
X127880275Y-48362734D01*
X127786250Y-48506650D01*
X127742334Y-48547405D01*
X127684435Y-48562812D01*
X127626071Y-48549274D01*
X127580867Y-48509951D01*
X127454109Y-48328921D01*
X127287081Y-48161893D01*
X127093576Y-48026399D01*
X126879492Y-47926569D01*
X126666000Y-47869364D01*
X126666000Y-50530635D01*
X126166000Y-50530635D01*
X126166000Y-47869364D01*
X126165999Y-47869364D01*
X125952507Y-47926569D01*
X125738421Y-48026400D01*
X125544921Y-48161890D01*
X125377893Y-48328918D01*
X125251132Y-48509952D01*
X125205928Y-48549274D01*
X125147564Y-48562812D01*
X125089665Y-48547405D01*
X125045748Y-48506649D01*
X124951723Y-48362732D01*
X124862451Y-48265759D01*
X124799240Y-48197094D01*
X124621576Y-48058811D01*
X124423574Y-47951658D01*
X124423573Y-47951657D01*
X124423572Y-47951657D01*
X124210636Y-47878556D01*
X123988569Y-47841500D01*
X123763431Y-47841500D01*
X123541363Y-47878556D01*
X123328427Y-47951657D01*
X123130424Y-48058811D01*
X122952760Y-48197094D01*
X122800279Y-48362730D01*
X122709809Y-48501205D01*
X122665017Y-48542438D01*
X122606000Y-48557383D01*
X122546983Y-48542438D01*
X122502191Y-48501205D01*
X122411723Y-48362734D01*
X122411722Y-48362732D01*
X122259240Y-48197094D01*
X122081576Y-48058811D01*
X121883574Y-47951658D01*
X121883573Y-47951657D01*
X121883572Y-47951657D01*
X121670636Y-47878556D01*
X121448569Y-47841500D01*
X121223431Y-47841500D01*
X121001363Y-47878556D01*
X120788427Y-47951657D01*
X120590424Y-48058811D01*
X120412759Y-48197094D01*
X120349548Y-48265759D01*
X120296924Y-48299612D01*
X120234470Y-48303460D01*
X120178089Y-48276322D01*
X120142138Y-48225110D01*
X120117427Y-48158861D01*
X120096889Y-48103796D01*
X120038951Y-48026400D01*
X120009261Y-47986738D01*
X119892203Y-47899110D01*
X119755205Y-47848011D01*
X119724919Y-47844755D01*
X119694638Y-47841500D01*
X117897362Y-47841500D01*
X117870445Y-47844393D01*
X117836794Y-47848011D01*
X117699796Y-47899110D01*
X117582738Y-47986738D01*
X117495110Y-48103796D01*
X117444011Y-48240794D01*
X117440393Y-48274445D01*
X117437689Y-48299612D01*
X117437500Y-48301366D01*
X117437500Y-50098634D01*
X100075500Y-50098634D01*
X100075500Y-47428093D01*
X100076097Y-47415939D01*
X100087494Y-47300222D01*
X100092234Y-47276389D01*
X100124216Y-47170959D01*
X100133508Y-47148526D01*
X100185442Y-47051365D01*
X100198938Y-47031166D01*
X100268827Y-46946006D01*
X100286006Y-46928827D01*
X100371166Y-46858938D01*
X100391365Y-46845442D01*
X100488526Y-46793508D01*
X100510959Y-46784216D01*
X100616389Y-46752234D01*
X100640220Y-46747494D01*
X100755938Y-46736097D01*
X100768093Y-46735500D01*
X100786531Y-46735500D01*
X163417365Y-46735500D01*
X163464818Y-46744939D01*
G37*
%TD.AperFunction*%
%TD*%
M02*
