M48
; DRILL file {KiCad 7.0.1} date Sat Jan 27 23:50:35 2024
; FORMAT={-:-/ absolute / inch / decimal}
; #@! TF.CreationDate,2024-01-27T23:50:35-07:00
; #@! TF.GenerationSoftware,Kicad,Pcbnew,7.0.1
; #@! TF.FileFunction,Plated,1,2,PTH
FMAT,2
INCH
; #@! TA.AperFunction,Plated,PTH,ViaDrill
T1C0.0157
; #@! TA.AperFunction,Plated,PTH,ComponentDrill
T2C0.0315
; #@! TA.AperFunction,Plated,PTH,ComponentDrill
T3C0.0354
; #@! TA.AperFunction,Plated,PTH,ComponentDrill
T4C0.0394
; #@! TA.AperFunction,Plated,PTH,ComponentDrill
T5C0.0433
%
G90
G05
T1
X4.567Y-2.597
X4.567Y-2.677
X4.657Y-2.587
X4.687Y-2.667
X4.767Y-2.587
X5.287Y-3.677
X5.737Y-2.017
X5.917Y-2.087
T2
X5.367Y-2.107
X5.367Y-2.507
X5.427Y-3.4864
X5.507Y-2.107
X5.507Y-2.507
X5.527Y-3.5864
X5.627Y-3.4864
X5.647Y-2.107
X5.647Y-2.507
X5.727Y-2.707
X5.727Y-3.107
X5.867Y-2.707
X5.867Y-3.107
X5.897Y-3.487
X5.997Y-3.587
X6.007Y-2.707
X6.007Y-3.107
X6.097Y-3.487
X6.137Y-2.107
X6.137Y-2.507
X6.197Y-2.657
X6.197Y-3.057
T3
X5.177Y-2.917
X5.277Y-2.917
X5.447Y-2.787
X5.447Y-3.057
X5.547Y-2.787
X5.547Y-3.057
X5.857Y-2.227
X5.857Y-2.277
X5.857Y-2.327
X5.857Y-2.377
T4
X4.117Y-2.107
X4.167Y-2.377
X4.217Y-2.107
X4.267Y-2.377
X4.317Y-2.107
X4.367Y-2.377
X4.367Y-2.727
X4.417Y-2.107
X4.467Y-2.727
X4.567Y-2.727
X4.637Y-2.117
X4.667Y-2.727
X4.677Y-1.937
X4.737Y-2.117
X4.777Y-1.937
X4.8008Y-2.4194
X4.837Y-2.117
X4.877Y-1.937
X4.9008Y-2.4194
X4.937Y-2.117
X4.977Y-1.937
X5.0008Y-2.4194
X5.037Y-2.117
X5.037Y-3.837
X5.077Y-1.937
X5.137Y-2.117
X5.137Y-3.837
X5.177Y-1.937
X5.237Y-3.837
X5.277Y-1.937
X5.337Y-3.837
X5.377Y-1.937
X5.437Y-3.837
X5.477Y-1.937
X5.537Y-3.837
X5.577Y-1.937
X5.637Y-3.837
X5.737Y-1.937
X5.737Y-3.837
X5.837Y-1.937
X5.937Y-1.937
X5.937Y-3.837
X6.037Y-1.937
X6.037Y-3.837
X6.137Y-1.937
X6.137Y-3.837
X6.237Y-1.937
X6.237Y-3.837
X6.337Y-1.937
X6.337Y-3.837
X6.3468Y-3.357
X6.347Y-3.547
X6.437Y-1.937
X6.437Y-3.837
X6.4468Y-3.357
X6.447Y-3.547
T5
X6.2798Y-2.1211
X6.2798Y-2.377
X6.3384Y-2.6791
X6.3384Y-2.935
X6.457Y-2.1211
X6.457Y-2.377
X6.5156Y-2.6791
X6.5156Y-2.935
T0
M30
