%TF.GenerationSoftware,KiCad,Pcbnew,7.0.1*%
%TF.CreationDate,2024-01-27T23:50:39-07:00*%
%TF.ProjectId,Uno_Shield_PhaseB,556e6f5f-5368-4696-956c-645f50686173,rev?*%
%TF.SameCoordinates,Original*%
%TF.FileFunction,Legend,Bot*%
%TF.FilePolarity,Positive*%
%FSLAX46Y46*%
G04 Gerber Fmt 4.6, Leading zero omitted, Abs format (unit mm)*
G04 Created by KiCad (PCBNEW 7.0.1) date 2024-01-27 23:50:39*
%MOMM*%
%LPD*%
G01*
G04 APERTURE LIST*
%ADD10C,0.375000*%
G04 APERTURE END LIST*
D10*
X120513714Y-74550428D02*
X120513714Y-75764714D01*
X120513714Y-75764714D02*
X120442285Y-75907571D01*
X120442285Y-75907571D02*
X120370857Y-75979000D01*
X120370857Y-75979000D02*
X120227999Y-76050428D01*
X120227999Y-76050428D02*
X119942285Y-76050428D01*
X119942285Y-76050428D02*
X119799428Y-75979000D01*
X119799428Y-75979000D02*
X119727999Y-75907571D01*
X119727999Y-75907571D02*
X119656571Y-75764714D01*
X119656571Y-75764714D02*
X119656571Y-74550428D01*
X118942285Y-76050428D02*
X118942285Y-74550428D01*
X118942285Y-74550428D02*
X118085142Y-76050428D01*
X118085142Y-76050428D02*
X118085142Y-74550428D01*
X117085141Y-74550428D02*
X116799427Y-74550428D01*
X116799427Y-74550428D02*
X116656570Y-74621857D01*
X116656570Y-74621857D02*
X116513713Y-74764714D01*
X116513713Y-74764714D02*
X116442284Y-75050428D01*
X116442284Y-75050428D02*
X116442284Y-75550428D01*
X116442284Y-75550428D02*
X116513713Y-75836142D01*
X116513713Y-75836142D02*
X116656570Y-75979000D01*
X116656570Y-75979000D02*
X116799427Y-76050428D01*
X116799427Y-76050428D02*
X117085141Y-76050428D01*
X117085141Y-76050428D02*
X117227999Y-75979000D01*
X117227999Y-75979000D02*
X117370856Y-75836142D01*
X117370856Y-75836142D02*
X117442284Y-75550428D01*
X117442284Y-75550428D02*
X117442284Y-75050428D01*
X117442284Y-75050428D02*
X117370856Y-74764714D01*
X117370856Y-74764714D02*
X117227999Y-74621857D01*
X117227999Y-74621857D02*
X117085141Y-74550428D01*
X114727998Y-75979000D02*
X114513713Y-76050428D01*
X114513713Y-76050428D02*
X114156570Y-76050428D01*
X114156570Y-76050428D02*
X114013713Y-75979000D01*
X114013713Y-75979000D02*
X113942284Y-75907571D01*
X113942284Y-75907571D02*
X113870855Y-75764714D01*
X113870855Y-75764714D02*
X113870855Y-75621857D01*
X113870855Y-75621857D02*
X113942284Y-75479000D01*
X113942284Y-75479000D02*
X114013713Y-75407571D01*
X114013713Y-75407571D02*
X114156570Y-75336142D01*
X114156570Y-75336142D02*
X114442284Y-75264714D01*
X114442284Y-75264714D02*
X114585141Y-75193285D01*
X114585141Y-75193285D02*
X114656570Y-75121857D01*
X114656570Y-75121857D02*
X114727998Y-74979000D01*
X114727998Y-74979000D02*
X114727998Y-74836142D01*
X114727998Y-74836142D02*
X114656570Y-74693285D01*
X114656570Y-74693285D02*
X114585141Y-74621857D01*
X114585141Y-74621857D02*
X114442284Y-74550428D01*
X114442284Y-74550428D02*
X114085141Y-74550428D01*
X114085141Y-74550428D02*
X113870855Y-74621857D01*
X113227999Y-76050428D02*
X113227999Y-74550428D01*
X112585142Y-76050428D02*
X112585142Y-75264714D01*
X112585142Y-75264714D02*
X112656570Y-75121857D01*
X112656570Y-75121857D02*
X112799427Y-75050428D01*
X112799427Y-75050428D02*
X113013713Y-75050428D01*
X113013713Y-75050428D02*
X113156570Y-75121857D01*
X113156570Y-75121857D02*
X113227999Y-75193285D01*
X111870856Y-76050428D02*
X111870856Y-75050428D01*
X111870856Y-74550428D02*
X111942284Y-74621857D01*
X111942284Y-74621857D02*
X111870856Y-74693285D01*
X111870856Y-74693285D02*
X111799427Y-74621857D01*
X111799427Y-74621857D02*
X111870856Y-74550428D01*
X111870856Y-74550428D02*
X111870856Y-74693285D01*
X110585141Y-75979000D02*
X110727998Y-76050428D01*
X110727998Y-76050428D02*
X111013713Y-76050428D01*
X111013713Y-76050428D02*
X111156570Y-75979000D01*
X111156570Y-75979000D02*
X111227998Y-75836142D01*
X111227998Y-75836142D02*
X111227998Y-75264714D01*
X111227998Y-75264714D02*
X111156570Y-75121857D01*
X111156570Y-75121857D02*
X111013713Y-75050428D01*
X111013713Y-75050428D02*
X110727998Y-75050428D01*
X110727998Y-75050428D02*
X110585141Y-75121857D01*
X110585141Y-75121857D02*
X110513713Y-75264714D01*
X110513713Y-75264714D02*
X110513713Y-75407571D01*
X110513713Y-75407571D02*
X111227998Y-75550428D01*
X109656570Y-76050428D02*
X109799427Y-75979000D01*
X109799427Y-75979000D02*
X109870856Y-75836142D01*
X109870856Y-75836142D02*
X109870856Y-74550428D01*
X108442285Y-76050428D02*
X108442285Y-74550428D01*
X108442285Y-75979000D02*
X108585142Y-76050428D01*
X108585142Y-76050428D02*
X108870856Y-76050428D01*
X108870856Y-76050428D02*
X109013713Y-75979000D01*
X109013713Y-75979000D02*
X109085142Y-75907571D01*
X109085142Y-75907571D02*
X109156570Y-75764714D01*
X109156570Y-75764714D02*
X109156570Y-75336142D01*
X109156570Y-75336142D02*
X109085142Y-75193285D01*
X109085142Y-75193285D02*
X109013713Y-75121857D01*
X109013713Y-75121857D02*
X108870856Y-75050428D01*
X108870856Y-75050428D02*
X108585142Y-75050428D01*
X108585142Y-75050428D02*
X108442285Y-75121857D01*
X119799428Y-77480428D02*
X119799428Y-78480428D01*
X120442285Y-77480428D02*
X120442285Y-78266142D01*
X120442285Y-78266142D02*
X120370856Y-78409000D01*
X120370856Y-78409000D02*
X120227999Y-78480428D01*
X120227999Y-78480428D02*
X120013713Y-78480428D01*
X120013713Y-78480428D02*
X119870856Y-78409000D01*
X119870856Y-78409000D02*
X119799428Y-78337571D01*
X119085142Y-78480428D02*
X119085142Y-76980428D01*
X119085142Y-76980428D02*
X118513713Y-76980428D01*
X118513713Y-76980428D02*
X118370856Y-77051857D01*
X118370856Y-77051857D02*
X118299427Y-77123285D01*
X118299427Y-77123285D02*
X118227999Y-77266142D01*
X118227999Y-77266142D02*
X118227999Y-77480428D01*
X118227999Y-77480428D02*
X118299427Y-77623285D01*
X118299427Y-77623285D02*
X118370856Y-77694714D01*
X118370856Y-77694714D02*
X118513713Y-77766142D01*
X118513713Y-77766142D02*
X119085142Y-77766142D01*
X115656570Y-78480428D02*
X116513713Y-78480428D01*
X116085142Y-78480428D02*
X116085142Y-76980428D01*
X116085142Y-76980428D02*
X116227999Y-77194714D01*
X116227999Y-77194714D02*
X116370856Y-77337571D01*
X116370856Y-77337571D02*
X116513713Y-77409000D01*
X113013714Y-78337571D02*
X113085142Y-78409000D01*
X113085142Y-78409000D02*
X113299428Y-78480428D01*
X113299428Y-78480428D02*
X113442285Y-78480428D01*
X113442285Y-78480428D02*
X113656571Y-78409000D01*
X113656571Y-78409000D02*
X113799428Y-78266142D01*
X113799428Y-78266142D02*
X113870857Y-78123285D01*
X113870857Y-78123285D02*
X113942285Y-77837571D01*
X113942285Y-77837571D02*
X113942285Y-77623285D01*
X113942285Y-77623285D02*
X113870857Y-77337571D01*
X113870857Y-77337571D02*
X113799428Y-77194714D01*
X113799428Y-77194714D02*
X113656571Y-77051857D01*
X113656571Y-77051857D02*
X113442285Y-76980428D01*
X113442285Y-76980428D02*
X113299428Y-76980428D01*
X113299428Y-76980428D02*
X113085142Y-77051857D01*
X113085142Y-77051857D02*
X113013714Y-77123285D01*
X112156571Y-78480428D02*
X112299428Y-78409000D01*
X112299428Y-78409000D02*
X112370857Y-78266142D01*
X112370857Y-78266142D02*
X112370857Y-76980428D01*
X110942286Y-78480428D02*
X110942286Y-77694714D01*
X110942286Y-77694714D02*
X111013714Y-77551857D01*
X111013714Y-77551857D02*
X111156571Y-77480428D01*
X111156571Y-77480428D02*
X111442286Y-77480428D01*
X111442286Y-77480428D02*
X111585143Y-77551857D01*
X110942286Y-78409000D02*
X111085143Y-78480428D01*
X111085143Y-78480428D02*
X111442286Y-78480428D01*
X111442286Y-78480428D02*
X111585143Y-78409000D01*
X111585143Y-78409000D02*
X111656571Y-78266142D01*
X111656571Y-78266142D02*
X111656571Y-78123285D01*
X111656571Y-78123285D02*
X111585143Y-77980428D01*
X111585143Y-77980428D02*
X111442286Y-77909000D01*
X111442286Y-77909000D02*
X111085143Y-77909000D01*
X111085143Y-77909000D02*
X110942286Y-77837571D01*
X110299428Y-78409000D02*
X110156571Y-78480428D01*
X110156571Y-78480428D02*
X109870857Y-78480428D01*
X109870857Y-78480428D02*
X109728000Y-78409000D01*
X109728000Y-78409000D02*
X109656571Y-78266142D01*
X109656571Y-78266142D02*
X109656571Y-78194714D01*
X109656571Y-78194714D02*
X109728000Y-78051857D01*
X109728000Y-78051857D02*
X109870857Y-77980428D01*
X109870857Y-77980428D02*
X110085143Y-77980428D01*
X110085143Y-77980428D02*
X110228000Y-77909000D01*
X110228000Y-77909000D02*
X110299428Y-77766142D01*
X110299428Y-77766142D02*
X110299428Y-77694714D01*
X110299428Y-77694714D02*
X110228000Y-77551857D01*
X110228000Y-77551857D02*
X110085143Y-77480428D01*
X110085143Y-77480428D02*
X109870857Y-77480428D01*
X109870857Y-77480428D02*
X109728000Y-77551857D01*
X109085142Y-78409000D02*
X108942285Y-78480428D01*
X108942285Y-78480428D02*
X108656571Y-78480428D01*
X108656571Y-78480428D02*
X108513714Y-78409000D01*
X108513714Y-78409000D02*
X108442285Y-78266142D01*
X108442285Y-78266142D02*
X108442285Y-78194714D01*
X108442285Y-78194714D02*
X108513714Y-78051857D01*
X108513714Y-78051857D02*
X108656571Y-77980428D01*
X108656571Y-77980428D02*
X108870857Y-77980428D01*
X108870857Y-77980428D02*
X109013714Y-77909000D01*
X109013714Y-77909000D02*
X109085142Y-77766142D01*
X109085142Y-77766142D02*
X109085142Y-77694714D01*
X109085142Y-77694714D02*
X109013714Y-77551857D01*
X109013714Y-77551857D02*
X108870857Y-77480428D01*
X108870857Y-77480428D02*
X108656571Y-77480428D01*
X108656571Y-77480428D02*
X108513714Y-77551857D01*
X120550285Y-90044428D02*
X120550285Y-91115857D01*
X120550285Y-91115857D02*
X120621714Y-91330142D01*
X120621714Y-91330142D02*
X120764571Y-91473000D01*
X120764571Y-91473000D02*
X120978857Y-91544428D01*
X120978857Y-91544428D02*
X121121714Y-91544428D01*
X119193143Y-91544428D02*
X119193143Y-90758714D01*
X119193143Y-90758714D02*
X119264571Y-90615857D01*
X119264571Y-90615857D02*
X119407428Y-90544428D01*
X119407428Y-90544428D02*
X119693143Y-90544428D01*
X119693143Y-90544428D02*
X119836000Y-90615857D01*
X119193143Y-91473000D02*
X119336000Y-91544428D01*
X119336000Y-91544428D02*
X119693143Y-91544428D01*
X119693143Y-91544428D02*
X119836000Y-91473000D01*
X119836000Y-91473000D02*
X119907428Y-91330142D01*
X119907428Y-91330142D02*
X119907428Y-91187285D01*
X119907428Y-91187285D02*
X119836000Y-91044428D01*
X119836000Y-91044428D02*
X119693143Y-90973000D01*
X119693143Y-90973000D02*
X119336000Y-90973000D01*
X119336000Y-90973000D02*
X119193143Y-90901571D01*
X118478857Y-90544428D02*
X118478857Y-91544428D01*
X118478857Y-90687285D02*
X118407428Y-90615857D01*
X118407428Y-90615857D02*
X118264571Y-90544428D01*
X118264571Y-90544428D02*
X118050285Y-90544428D01*
X118050285Y-90544428D02*
X117907428Y-90615857D01*
X117907428Y-90615857D02*
X117836000Y-90758714D01*
X117836000Y-90758714D02*
X117836000Y-91544428D01*
X116050285Y-90187285D02*
X115978857Y-90115857D01*
X115978857Y-90115857D02*
X115836000Y-90044428D01*
X115836000Y-90044428D02*
X115478857Y-90044428D01*
X115478857Y-90044428D02*
X115336000Y-90115857D01*
X115336000Y-90115857D02*
X115264571Y-90187285D01*
X115264571Y-90187285D02*
X115193142Y-90330142D01*
X115193142Y-90330142D02*
X115193142Y-90473000D01*
X115193142Y-90473000D02*
X115264571Y-90687285D01*
X115264571Y-90687285D02*
X116121714Y-91544428D01*
X116121714Y-91544428D02*
X115193142Y-91544428D01*
X114693143Y-90044428D02*
X113693143Y-90044428D01*
X113693143Y-90044428D02*
X114336000Y-91544428D01*
X113050286Y-91473000D02*
X113050286Y-91544428D01*
X113050286Y-91544428D02*
X113121715Y-91687285D01*
X113121715Y-91687285D02*
X113193143Y-91758714D01*
X111336000Y-90187285D02*
X111264572Y-90115857D01*
X111264572Y-90115857D02*
X111121715Y-90044428D01*
X111121715Y-90044428D02*
X110764572Y-90044428D01*
X110764572Y-90044428D02*
X110621715Y-90115857D01*
X110621715Y-90115857D02*
X110550286Y-90187285D01*
X110550286Y-90187285D02*
X110478857Y-90330142D01*
X110478857Y-90330142D02*
X110478857Y-90473000D01*
X110478857Y-90473000D02*
X110550286Y-90687285D01*
X110550286Y-90687285D02*
X111407429Y-91544428D01*
X111407429Y-91544428D02*
X110478857Y-91544428D01*
X109550286Y-90044428D02*
X109407429Y-90044428D01*
X109407429Y-90044428D02*
X109264572Y-90115857D01*
X109264572Y-90115857D02*
X109193144Y-90187285D01*
X109193144Y-90187285D02*
X109121715Y-90330142D01*
X109121715Y-90330142D02*
X109050286Y-90615857D01*
X109050286Y-90615857D02*
X109050286Y-90973000D01*
X109050286Y-90973000D02*
X109121715Y-91258714D01*
X109121715Y-91258714D02*
X109193144Y-91401571D01*
X109193144Y-91401571D02*
X109264572Y-91473000D01*
X109264572Y-91473000D02*
X109407429Y-91544428D01*
X109407429Y-91544428D02*
X109550286Y-91544428D01*
X109550286Y-91544428D02*
X109693144Y-91473000D01*
X109693144Y-91473000D02*
X109764572Y-91401571D01*
X109764572Y-91401571D02*
X109836001Y-91258714D01*
X109836001Y-91258714D02*
X109907429Y-90973000D01*
X109907429Y-90973000D02*
X109907429Y-90615857D01*
X109907429Y-90615857D02*
X109836001Y-90330142D01*
X109836001Y-90330142D02*
X109764572Y-90187285D01*
X109764572Y-90187285D02*
X109693144Y-90115857D01*
X109693144Y-90115857D02*
X109550286Y-90044428D01*
X108478858Y-90187285D02*
X108407430Y-90115857D01*
X108407430Y-90115857D02*
X108264573Y-90044428D01*
X108264573Y-90044428D02*
X107907430Y-90044428D01*
X107907430Y-90044428D02*
X107764573Y-90115857D01*
X107764573Y-90115857D02*
X107693144Y-90187285D01*
X107693144Y-90187285D02*
X107621715Y-90330142D01*
X107621715Y-90330142D02*
X107621715Y-90473000D01*
X107621715Y-90473000D02*
X107693144Y-90687285D01*
X107693144Y-90687285D02*
X108550287Y-91544428D01*
X108550287Y-91544428D02*
X107621715Y-91544428D01*
X106336002Y-90544428D02*
X106336002Y-91544428D01*
X106693144Y-89973000D02*
X107050287Y-91044428D01*
X107050287Y-91044428D02*
X106121716Y-91044428D01*
X121193142Y-92474428D02*
X120693142Y-93974428D01*
X120693142Y-93974428D02*
X120193142Y-92474428D01*
X119121714Y-93903000D02*
X119264571Y-93974428D01*
X119264571Y-93974428D02*
X119550286Y-93974428D01*
X119550286Y-93974428D02*
X119693143Y-93903000D01*
X119693143Y-93903000D02*
X119764571Y-93760142D01*
X119764571Y-93760142D02*
X119764571Y-93188714D01*
X119764571Y-93188714D02*
X119693143Y-93045857D01*
X119693143Y-93045857D02*
X119550286Y-92974428D01*
X119550286Y-92974428D02*
X119264571Y-92974428D01*
X119264571Y-92974428D02*
X119121714Y-93045857D01*
X119121714Y-93045857D02*
X119050286Y-93188714D01*
X119050286Y-93188714D02*
X119050286Y-93331571D01*
X119050286Y-93331571D02*
X119764571Y-93474428D01*
X118407429Y-93974428D02*
X118407429Y-92974428D01*
X118407429Y-93260142D02*
X118336000Y-93117285D01*
X118336000Y-93117285D02*
X118264572Y-93045857D01*
X118264572Y-93045857D02*
X118121714Y-92974428D01*
X118121714Y-92974428D02*
X117978857Y-92974428D01*
X117550286Y-93903000D02*
X117407429Y-93974428D01*
X117407429Y-93974428D02*
X117121715Y-93974428D01*
X117121715Y-93974428D02*
X116978858Y-93903000D01*
X116978858Y-93903000D02*
X116907429Y-93760142D01*
X116907429Y-93760142D02*
X116907429Y-93688714D01*
X116907429Y-93688714D02*
X116978858Y-93545857D01*
X116978858Y-93545857D02*
X117121715Y-93474428D01*
X117121715Y-93474428D02*
X117336001Y-93474428D01*
X117336001Y-93474428D02*
X117478858Y-93403000D01*
X117478858Y-93403000D02*
X117550286Y-93260142D01*
X117550286Y-93260142D02*
X117550286Y-93188714D01*
X117550286Y-93188714D02*
X117478858Y-93045857D01*
X117478858Y-93045857D02*
X117336001Y-92974428D01*
X117336001Y-92974428D02*
X117121715Y-92974428D01*
X117121715Y-92974428D02*
X116978858Y-93045857D01*
X116264572Y-93974428D02*
X116264572Y-92974428D01*
X116264572Y-92474428D02*
X116336000Y-92545857D01*
X116336000Y-92545857D02*
X116264572Y-92617285D01*
X116264572Y-92617285D02*
X116193143Y-92545857D01*
X116193143Y-92545857D02*
X116264572Y-92474428D01*
X116264572Y-92474428D02*
X116264572Y-92617285D01*
X115336000Y-93974428D02*
X115478857Y-93903000D01*
X115478857Y-93903000D02*
X115550286Y-93831571D01*
X115550286Y-93831571D02*
X115621714Y-93688714D01*
X115621714Y-93688714D02*
X115621714Y-93260142D01*
X115621714Y-93260142D02*
X115550286Y-93117285D01*
X115550286Y-93117285D02*
X115478857Y-93045857D01*
X115478857Y-93045857D02*
X115336000Y-92974428D01*
X115336000Y-92974428D02*
X115121714Y-92974428D01*
X115121714Y-92974428D02*
X114978857Y-93045857D01*
X114978857Y-93045857D02*
X114907429Y-93117285D01*
X114907429Y-93117285D02*
X114836000Y-93260142D01*
X114836000Y-93260142D02*
X114836000Y-93688714D01*
X114836000Y-93688714D02*
X114907429Y-93831571D01*
X114907429Y-93831571D02*
X114978857Y-93903000D01*
X114978857Y-93903000D02*
X115121714Y-93974428D01*
X115121714Y-93974428D02*
X115336000Y-93974428D01*
X114193143Y-92974428D02*
X114193143Y-93974428D01*
X114193143Y-93117285D02*
X114121714Y-93045857D01*
X114121714Y-93045857D02*
X113978857Y-92974428D01*
X113978857Y-92974428D02*
X113764571Y-92974428D01*
X113764571Y-92974428D02*
X113621714Y-93045857D01*
X113621714Y-93045857D02*
X113550286Y-93188714D01*
X113550286Y-93188714D02*
X113550286Y-93974428D01*
X110907428Y-93974428D02*
X111764571Y-93974428D01*
X111336000Y-93974428D02*
X111336000Y-92474428D01*
X111336000Y-92474428D02*
X111478857Y-92688714D01*
X111478857Y-92688714D02*
X111621714Y-92831571D01*
X111621714Y-92831571D02*
X111764571Y-92903000D01*
X110264572Y-93831571D02*
X110193143Y-93903000D01*
X110193143Y-93903000D02*
X110264572Y-93974428D01*
X110264572Y-93974428D02*
X110336000Y-93903000D01*
X110336000Y-93903000D02*
X110264572Y-93831571D01*
X110264572Y-93831571D02*
X110264572Y-93974428D01*
X109264571Y-92474428D02*
X109121714Y-92474428D01*
X109121714Y-92474428D02*
X108978857Y-92545857D01*
X108978857Y-92545857D02*
X108907429Y-92617285D01*
X108907429Y-92617285D02*
X108836000Y-92760142D01*
X108836000Y-92760142D02*
X108764571Y-93045857D01*
X108764571Y-93045857D02*
X108764571Y-93403000D01*
X108764571Y-93403000D02*
X108836000Y-93688714D01*
X108836000Y-93688714D02*
X108907429Y-93831571D01*
X108907429Y-93831571D02*
X108978857Y-93903000D01*
X108978857Y-93903000D02*
X109121714Y-93974428D01*
X109121714Y-93974428D02*
X109264571Y-93974428D01*
X109264571Y-93974428D02*
X109407429Y-93903000D01*
X109407429Y-93903000D02*
X109478857Y-93831571D01*
X109478857Y-93831571D02*
X109550286Y-93688714D01*
X109550286Y-93688714D02*
X109621714Y-93403000D01*
X109621714Y-93403000D02*
X109621714Y-93045857D01*
X109621714Y-93045857D02*
X109550286Y-92760142D01*
X109550286Y-92760142D02*
X109478857Y-92617285D01*
X109478857Y-92617285D02*
X109407429Y-92545857D01*
X109407429Y-92545857D02*
X109264571Y-92474428D01*
M02*
