%TF.GenerationSoftware,KiCad,Pcbnew,7.0.1*%
%TF.CreationDate,2024-01-27T23:50:39-07:00*%
%TF.ProjectId,Uno_Shield_PhaseB,556e6f5f-5368-4696-956c-645f50686173,rev?*%
%TF.SameCoordinates,Original*%
%TF.FileFunction,Legend,Top*%
%TF.FilePolarity,Positive*%
%FSLAX46Y46*%
G04 Gerber Fmt 4.6, Leading zero omitted, Abs format (unit mm)*
G04 Created by KiCad (PCBNEW 7.0.1) date 2024-01-27 23:50:39*
%MOMM*%
%LPD*%
G01*
G04 APERTURE LIST*
%ADD10C,0.150000*%
%ADD11C,0.120000*%
G04 APERTURE END LIST*
D10*
X127602000Y-56248476D02*
X127554380Y-56391333D01*
X127554380Y-56391333D02*
X127554380Y-56629428D01*
X127554380Y-56629428D02*
X127602000Y-56724666D01*
X127602000Y-56724666D02*
X127649619Y-56772285D01*
X127649619Y-56772285D02*
X127744857Y-56819904D01*
X127744857Y-56819904D02*
X127840095Y-56819904D01*
X127840095Y-56819904D02*
X127935333Y-56772285D01*
X127935333Y-56772285D02*
X127982952Y-56724666D01*
X127982952Y-56724666D02*
X128030571Y-56629428D01*
X128030571Y-56629428D02*
X128078190Y-56438952D01*
X128078190Y-56438952D02*
X128125809Y-56343714D01*
X128125809Y-56343714D02*
X128173428Y-56296095D01*
X128173428Y-56296095D02*
X128268666Y-56248476D01*
X128268666Y-56248476D02*
X128363904Y-56248476D01*
X128363904Y-56248476D02*
X128459142Y-56296095D01*
X128459142Y-56296095D02*
X128506761Y-56343714D01*
X128506761Y-56343714D02*
X128554380Y-56438952D01*
X128554380Y-56438952D02*
X128554380Y-56677047D01*
X128554380Y-56677047D02*
X128506761Y-56819904D01*
X127602000Y-57200857D02*
X127554380Y-57343714D01*
X127554380Y-57343714D02*
X127554380Y-57581809D01*
X127554380Y-57581809D02*
X127602000Y-57677047D01*
X127602000Y-57677047D02*
X127649619Y-57724666D01*
X127649619Y-57724666D02*
X127744857Y-57772285D01*
X127744857Y-57772285D02*
X127840095Y-57772285D01*
X127840095Y-57772285D02*
X127935333Y-57724666D01*
X127935333Y-57724666D02*
X127982952Y-57677047D01*
X127982952Y-57677047D02*
X128030571Y-57581809D01*
X128030571Y-57581809D02*
X128078190Y-57391333D01*
X128078190Y-57391333D02*
X128125809Y-57296095D01*
X128125809Y-57296095D02*
X128173428Y-57248476D01*
X128173428Y-57248476D02*
X128268666Y-57200857D01*
X128268666Y-57200857D02*
X128363904Y-57200857D01*
X128363904Y-57200857D02*
X128459142Y-57248476D01*
X128459142Y-57248476D02*
X128506761Y-57296095D01*
X128506761Y-57296095D02*
X128554380Y-57391333D01*
X128554380Y-57391333D02*
X128554380Y-57629428D01*
X128554380Y-57629428D02*
X128506761Y-57772285D01*
X124760380Y-56042095D02*
X125760380Y-56042095D01*
X125760380Y-56042095D02*
X125046095Y-56375428D01*
X125046095Y-56375428D02*
X125760380Y-56708761D01*
X125760380Y-56708761D02*
X124760380Y-56708761D01*
X125760380Y-57375428D02*
X125760380Y-57565904D01*
X125760380Y-57565904D02*
X125712761Y-57661142D01*
X125712761Y-57661142D02*
X125617523Y-57756380D01*
X125617523Y-57756380D02*
X125427047Y-57803999D01*
X125427047Y-57803999D02*
X125093714Y-57803999D01*
X125093714Y-57803999D02*
X124903238Y-57756380D01*
X124903238Y-57756380D02*
X124808000Y-57661142D01*
X124808000Y-57661142D02*
X124760380Y-57565904D01*
X124760380Y-57565904D02*
X124760380Y-57375428D01*
X124760380Y-57375428D02*
X124808000Y-57280190D01*
X124808000Y-57280190D02*
X124903238Y-57184952D01*
X124903238Y-57184952D02*
X125093714Y-57137333D01*
X125093714Y-57137333D02*
X125427047Y-57137333D01*
X125427047Y-57137333D02*
X125617523Y-57184952D01*
X125617523Y-57184952D02*
X125712761Y-57280190D01*
X125712761Y-57280190D02*
X125760380Y-57375428D01*
X124808000Y-58184952D02*
X124760380Y-58327809D01*
X124760380Y-58327809D02*
X124760380Y-58565904D01*
X124760380Y-58565904D02*
X124808000Y-58661142D01*
X124808000Y-58661142D02*
X124855619Y-58708761D01*
X124855619Y-58708761D02*
X124950857Y-58756380D01*
X124950857Y-58756380D02*
X125046095Y-58756380D01*
X125046095Y-58756380D02*
X125141333Y-58708761D01*
X125141333Y-58708761D02*
X125188952Y-58661142D01*
X125188952Y-58661142D02*
X125236571Y-58565904D01*
X125236571Y-58565904D02*
X125284190Y-58375428D01*
X125284190Y-58375428D02*
X125331809Y-58280190D01*
X125331809Y-58280190D02*
X125379428Y-58232571D01*
X125379428Y-58232571D02*
X125474666Y-58184952D01*
X125474666Y-58184952D02*
X125569904Y-58184952D01*
X125569904Y-58184952D02*
X125665142Y-58232571D01*
X125665142Y-58232571D02*
X125712761Y-58280190D01*
X125712761Y-58280190D02*
X125760380Y-58375428D01*
X125760380Y-58375428D02*
X125760380Y-58613523D01*
X125760380Y-58613523D02*
X125712761Y-58756380D01*
X124760380Y-59184952D02*
X125760380Y-59184952D01*
X122220380Y-56042095D02*
X123220380Y-56042095D01*
X123220380Y-56042095D02*
X122506095Y-56375428D01*
X122506095Y-56375428D02*
X123220380Y-56708761D01*
X123220380Y-56708761D02*
X122220380Y-56708761D01*
X122220380Y-57184952D02*
X123220380Y-57184952D01*
X122268000Y-57613523D02*
X122220380Y-57756380D01*
X122220380Y-57756380D02*
X122220380Y-57994475D01*
X122220380Y-57994475D02*
X122268000Y-58089713D01*
X122268000Y-58089713D02*
X122315619Y-58137332D01*
X122315619Y-58137332D02*
X122410857Y-58184951D01*
X122410857Y-58184951D02*
X122506095Y-58184951D01*
X122506095Y-58184951D02*
X122601333Y-58137332D01*
X122601333Y-58137332D02*
X122648952Y-58089713D01*
X122648952Y-58089713D02*
X122696571Y-57994475D01*
X122696571Y-57994475D02*
X122744190Y-57803999D01*
X122744190Y-57803999D02*
X122791809Y-57708761D01*
X122791809Y-57708761D02*
X122839428Y-57661142D01*
X122839428Y-57661142D02*
X122934666Y-57613523D01*
X122934666Y-57613523D02*
X123029904Y-57613523D01*
X123029904Y-57613523D02*
X123125142Y-57661142D01*
X123125142Y-57661142D02*
X123172761Y-57708761D01*
X123172761Y-57708761D02*
X123220380Y-57803999D01*
X123220380Y-57803999D02*
X123220380Y-58042094D01*
X123220380Y-58042094D02*
X123172761Y-58184951D01*
X123220380Y-58803999D02*
X123220380Y-58994475D01*
X123220380Y-58994475D02*
X123172761Y-59089713D01*
X123172761Y-59089713D02*
X123077523Y-59184951D01*
X123077523Y-59184951D02*
X122887047Y-59232570D01*
X122887047Y-59232570D02*
X122553714Y-59232570D01*
X122553714Y-59232570D02*
X122363238Y-59184951D01*
X122363238Y-59184951D02*
X122268000Y-59089713D01*
X122268000Y-59089713D02*
X122220380Y-58994475D01*
X122220380Y-58994475D02*
X122220380Y-58803999D01*
X122220380Y-58803999D02*
X122268000Y-58708761D01*
X122268000Y-58708761D02*
X122363238Y-58613523D01*
X122363238Y-58613523D02*
X122553714Y-58565904D01*
X122553714Y-58565904D02*
X122887047Y-58565904D01*
X122887047Y-58565904D02*
X123077523Y-58613523D01*
X123077523Y-58613523D02*
X123172761Y-58708761D01*
X123172761Y-58708761D02*
X123220380Y-58803999D01*
X119728000Y-55994476D02*
X119680380Y-56137333D01*
X119680380Y-56137333D02*
X119680380Y-56375428D01*
X119680380Y-56375428D02*
X119728000Y-56470666D01*
X119728000Y-56470666D02*
X119775619Y-56518285D01*
X119775619Y-56518285D02*
X119870857Y-56565904D01*
X119870857Y-56565904D02*
X119966095Y-56565904D01*
X119966095Y-56565904D02*
X120061333Y-56518285D01*
X120061333Y-56518285D02*
X120108952Y-56470666D01*
X120108952Y-56470666D02*
X120156571Y-56375428D01*
X120156571Y-56375428D02*
X120204190Y-56184952D01*
X120204190Y-56184952D02*
X120251809Y-56089714D01*
X120251809Y-56089714D02*
X120299428Y-56042095D01*
X120299428Y-56042095D02*
X120394666Y-55994476D01*
X120394666Y-55994476D02*
X120489904Y-55994476D01*
X120489904Y-55994476D02*
X120585142Y-56042095D01*
X120585142Y-56042095D02*
X120632761Y-56089714D01*
X120632761Y-56089714D02*
X120680380Y-56184952D01*
X120680380Y-56184952D02*
X120680380Y-56423047D01*
X120680380Y-56423047D02*
X120632761Y-56565904D01*
X119775619Y-57565904D02*
X119728000Y-57518285D01*
X119728000Y-57518285D02*
X119680380Y-57375428D01*
X119680380Y-57375428D02*
X119680380Y-57280190D01*
X119680380Y-57280190D02*
X119728000Y-57137333D01*
X119728000Y-57137333D02*
X119823238Y-57042095D01*
X119823238Y-57042095D02*
X119918476Y-56994476D01*
X119918476Y-56994476D02*
X120108952Y-56946857D01*
X120108952Y-56946857D02*
X120251809Y-56946857D01*
X120251809Y-56946857D02*
X120442285Y-56994476D01*
X120442285Y-56994476D02*
X120537523Y-57042095D01*
X120537523Y-57042095D02*
X120632761Y-57137333D01*
X120632761Y-57137333D02*
X120680380Y-57280190D01*
X120680380Y-57280190D02*
X120680380Y-57375428D01*
X120680380Y-57375428D02*
X120632761Y-57518285D01*
X120632761Y-57518285D02*
X120585142Y-57565904D01*
X119680380Y-57994476D02*
X120680380Y-57994476D01*
X119680380Y-58565904D02*
X120251809Y-58137333D01*
X120680380Y-58565904D02*
X120108952Y-57994476D01*
X118394380Y-55899238D02*
X117394380Y-56232571D01*
X117394380Y-56232571D02*
X118394380Y-56565904D01*
X117442000Y-57327809D02*
X117394380Y-57232571D01*
X117394380Y-57232571D02*
X117394380Y-57042095D01*
X117394380Y-57042095D02*
X117442000Y-56946857D01*
X117442000Y-56946857D02*
X117489619Y-56899238D01*
X117489619Y-56899238D02*
X117584857Y-56851619D01*
X117584857Y-56851619D02*
X117870571Y-56851619D01*
X117870571Y-56851619D02*
X117965809Y-56899238D01*
X117965809Y-56899238D02*
X118013428Y-56946857D01*
X118013428Y-56946857D02*
X118061047Y-57042095D01*
X118061047Y-57042095D02*
X118061047Y-57232571D01*
X118061047Y-57232571D02*
X118013428Y-57327809D01*
X117442000Y-58184952D02*
X117394380Y-58089714D01*
X117394380Y-58089714D02*
X117394380Y-57899238D01*
X117394380Y-57899238D02*
X117442000Y-57804000D01*
X117442000Y-57804000D02*
X117489619Y-57756381D01*
X117489619Y-57756381D02*
X117584857Y-57708762D01*
X117584857Y-57708762D02*
X117870571Y-57708762D01*
X117870571Y-57708762D02*
X117965809Y-57756381D01*
X117965809Y-57756381D02*
X118013428Y-57804000D01*
X118013428Y-57804000D02*
X118061047Y-57899238D01*
X118061047Y-57899238D02*
X118061047Y-58089714D01*
X118061047Y-58089714D02*
X118013428Y-58184952D01*
X131046761Y-56565904D02*
X131094380Y-56470666D01*
X131094380Y-56470666D02*
X131094380Y-56327809D01*
X131094380Y-56327809D02*
X131046761Y-56184952D01*
X131046761Y-56184952D02*
X130951523Y-56089714D01*
X130951523Y-56089714D02*
X130856285Y-56042095D01*
X130856285Y-56042095D02*
X130665809Y-55994476D01*
X130665809Y-55994476D02*
X130522952Y-55994476D01*
X130522952Y-55994476D02*
X130332476Y-56042095D01*
X130332476Y-56042095D02*
X130237238Y-56089714D01*
X130237238Y-56089714D02*
X130142000Y-56184952D01*
X130142000Y-56184952D02*
X130094380Y-56327809D01*
X130094380Y-56327809D02*
X130094380Y-56423047D01*
X130094380Y-56423047D02*
X130142000Y-56565904D01*
X130142000Y-56565904D02*
X130189619Y-56613523D01*
X130189619Y-56613523D02*
X130522952Y-56613523D01*
X130522952Y-56613523D02*
X130522952Y-56423047D01*
X130094380Y-57042095D02*
X131094380Y-57042095D01*
X131094380Y-57042095D02*
X130094380Y-57613523D01*
X130094380Y-57613523D02*
X131094380Y-57613523D01*
X130094380Y-58089714D02*
X131094380Y-58089714D01*
X131094380Y-58089714D02*
X131094380Y-58327809D01*
X131094380Y-58327809D02*
X131046761Y-58470666D01*
X131046761Y-58470666D02*
X130951523Y-58565904D01*
X130951523Y-58565904D02*
X130856285Y-58613523D01*
X130856285Y-58613523D02*
X130665809Y-58661142D01*
X130665809Y-58661142D02*
X130522952Y-58661142D01*
X130522952Y-58661142D02*
X130332476Y-58613523D01*
X130332476Y-58613523D02*
X130237238Y-58565904D01*
X130237238Y-58565904D02*
X130142000Y-58470666D01*
X130142000Y-58470666D02*
X130094380Y-58327809D01*
X130094380Y-58327809D02*
X130094380Y-58089714D01*
X122555380Y-64198285D02*
X122555380Y-63722095D01*
X122555380Y-63722095D02*
X122079190Y-63674476D01*
X122079190Y-63674476D02*
X122126809Y-63722095D01*
X122126809Y-63722095D02*
X122174428Y-63817333D01*
X122174428Y-63817333D02*
X122174428Y-64055428D01*
X122174428Y-64055428D02*
X122126809Y-64150666D01*
X122126809Y-64150666D02*
X122079190Y-64198285D01*
X122079190Y-64198285D02*
X121983952Y-64245904D01*
X121983952Y-64245904D02*
X121745857Y-64245904D01*
X121745857Y-64245904D02*
X121650619Y-64198285D01*
X121650619Y-64198285D02*
X121603000Y-64150666D01*
X121603000Y-64150666D02*
X121555380Y-64055428D01*
X121555380Y-64055428D02*
X121555380Y-63817333D01*
X121555380Y-63817333D02*
X121603000Y-63722095D01*
X121603000Y-63722095D02*
X121650619Y-63674476D01*
X122555380Y-64531619D02*
X121555380Y-64864952D01*
X121555380Y-64864952D02*
X122555380Y-65198285D01*
X127635380Y-63626857D02*
X127635380Y-64245904D01*
X127635380Y-64245904D02*
X127254428Y-63912571D01*
X127254428Y-63912571D02*
X127254428Y-64055428D01*
X127254428Y-64055428D02*
X127206809Y-64150666D01*
X127206809Y-64150666D02*
X127159190Y-64198285D01*
X127159190Y-64198285D02*
X127063952Y-64245904D01*
X127063952Y-64245904D02*
X126825857Y-64245904D01*
X126825857Y-64245904D02*
X126730619Y-64198285D01*
X126730619Y-64198285D02*
X126683000Y-64150666D01*
X126683000Y-64150666D02*
X126635380Y-64055428D01*
X126635380Y-64055428D02*
X126635380Y-63769714D01*
X126635380Y-63769714D02*
X126683000Y-63674476D01*
X126683000Y-63674476D02*
X126730619Y-63626857D01*
X127635380Y-64531619D02*
X126635380Y-64864952D01*
X126635380Y-64864952D02*
X127635380Y-65198285D01*
X127635380Y-65436381D02*
X127635380Y-66055428D01*
X127635380Y-66055428D02*
X127254428Y-65722095D01*
X127254428Y-65722095D02*
X127254428Y-65864952D01*
X127254428Y-65864952D02*
X127206809Y-65960190D01*
X127206809Y-65960190D02*
X127159190Y-66007809D01*
X127159190Y-66007809D02*
X127063952Y-66055428D01*
X127063952Y-66055428D02*
X126825857Y-66055428D01*
X126825857Y-66055428D02*
X126730619Y-66007809D01*
X126730619Y-66007809D02*
X126683000Y-65960190D01*
X126683000Y-65960190D02*
X126635380Y-65864952D01*
X126635380Y-65864952D02*
X126635380Y-65579238D01*
X126635380Y-65579238D02*
X126683000Y-65484000D01*
X126683000Y-65484000D02*
X126730619Y-65436381D01*
X125095380Y-63579238D02*
X124095380Y-63912571D01*
X124095380Y-63912571D02*
X125095380Y-64245904D01*
X124143000Y-65007809D02*
X124095380Y-64912571D01*
X124095380Y-64912571D02*
X124095380Y-64722095D01*
X124095380Y-64722095D02*
X124143000Y-64626857D01*
X124143000Y-64626857D02*
X124190619Y-64579238D01*
X124190619Y-64579238D02*
X124285857Y-64531619D01*
X124285857Y-64531619D02*
X124571571Y-64531619D01*
X124571571Y-64531619D02*
X124666809Y-64579238D01*
X124666809Y-64579238D02*
X124714428Y-64626857D01*
X124714428Y-64626857D02*
X124762047Y-64722095D01*
X124762047Y-64722095D02*
X124762047Y-64912571D01*
X124762047Y-64912571D02*
X124714428Y-65007809D01*
X124143000Y-65864952D02*
X124095380Y-65769714D01*
X124095380Y-65769714D02*
X124095380Y-65579238D01*
X124095380Y-65579238D02*
X124143000Y-65484000D01*
X124143000Y-65484000D02*
X124190619Y-65436381D01*
X124190619Y-65436381D02*
X124285857Y-65388762D01*
X124285857Y-65388762D02*
X124571571Y-65388762D01*
X124571571Y-65388762D02*
X124666809Y-65436381D01*
X124666809Y-65436381D02*
X124714428Y-65484000D01*
X124714428Y-65484000D02*
X124762047Y-65579238D01*
X124762047Y-65579238D02*
X124762047Y-65769714D01*
X124762047Y-65769714D02*
X124714428Y-65864952D01*
X106202380Y-63122285D02*
X106202380Y-62646095D01*
X106202380Y-62646095D02*
X105726190Y-62598476D01*
X105726190Y-62598476D02*
X105773809Y-62646095D01*
X105773809Y-62646095D02*
X105821428Y-62741333D01*
X105821428Y-62741333D02*
X105821428Y-62979428D01*
X105821428Y-62979428D02*
X105773809Y-63074666D01*
X105773809Y-63074666D02*
X105726190Y-63122285D01*
X105726190Y-63122285D02*
X105630952Y-63169904D01*
X105630952Y-63169904D02*
X105392857Y-63169904D01*
X105392857Y-63169904D02*
X105297619Y-63122285D01*
X105297619Y-63122285D02*
X105250000Y-63074666D01*
X105250000Y-63074666D02*
X105202380Y-62979428D01*
X105202380Y-62979428D02*
X105202380Y-62741333D01*
X105202380Y-62741333D02*
X105250000Y-62646095D01*
X105250000Y-62646095D02*
X105297619Y-62598476D01*
X106202380Y-63455619D02*
X105202380Y-63788952D01*
X105202380Y-63788952D02*
X106202380Y-64122285D01*
X111536380Y-62550857D02*
X111536380Y-63169904D01*
X111536380Y-63169904D02*
X111155428Y-62836571D01*
X111155428Y-62836571D02*
X111155428Y-62979428D01*
X111155428Y-62979428D02*
X111107809Y-63074666D01*
X111107809Y-63074666D02*
X111060190Y-63122285D01*
X111060190Y-63122285D02*
X110964952Y-63169904D01*
X110964952Y-63169904D02*
X110726857Y-63169904D01*
X110726857Y-63169904D02*
X110631619Y-63122285D01*
X110631619Y-63122285D02*
X110584000Y-63074666D01*
X110584000Y-63074666D02*
X110536380Y-62979428D01*
X110536380Y-62979428D02*
X110536380Y-62693714D01*
X110536380Y-62693714D02*
X110584000Y-62598476D01*
X110584000Y-62598476D02*
X110631619Y-62550857D01*
X111536380Y-63455619D02*
X110536380Y-63788952D01*
X110536380Y-63788952D02*
X111536380Y-64122285D01*
X111536380Y-64360381D02*
X111536380Y-64979428D01*
X111536380Y-64979428D02*
X111155428Y-64646095D01*
X111155428Y-64646095D02*
X111155428Y-64788952D01*
X111155428Y-64788952D02*
X111107809Y-64884190D01*
X111107809Y-64884190D02*
X111060190Y-64931809D01*
X111060190Y-64931809D02*
X110964952Y-64979428D01*
X110964952Y-64979428D02*
X110726857Y-64979428D01*
X110726857Y-64979428D02*
X110631619Y-64931809D01*
X110631619Y-64931809D02*
X110584000Y-64884190D01*
X110584000Y-64884190D02*
X110536380Y-64788952D01*
X110536380Y-64788952D02*
X110536380Y-64503238D01*
X110536380Y-64503238D02*
X110584000Y-64408000D01*
X110584000Y-64408000D02*
X110631619Y-64360381D01*
X108996380Y-62503238D02*
X107996380Y-62836571D01*
X107996380Y-62836571D02*
X108996380Y-63169904D01*
X108044000Y-63931809D02*
X107996380Y-63836571D01*
X107996380Y-63836571D02*
X107996380Y-63646095D01*
X107996380Y-63646095D02*
X108044000Y-63550857D01*
X108044000Y-63550857D02*
X108091619Y-63503238D01*
X108091619Y-63503238D02*
X108186857Y-63455619D01*
X108186857Y-63455619D02*
X108472571Y-63455619D01*
X108472571Y-63455619D02*
X108567809Y-63503238D01*
X108567809Y-63503238D02*
X108615428Y-63550857D01*
X108615428Y-63550857D02*
X108663047Y-63646095D01*
X108663047Y-63646095D02*
X108663047Y-63836571D01*
X108663047Y-63836571D02*
X108615428Y-63931809D01*
X108044000Y-64788952D02*
X107996380Y-64693714D01*
X107996380Y-64693714D02*
X107996380Y-64503238D01*
X107996380Y-64503238D02*
X108044000Y-64408000D01*
X108044000Y-64408000D02*
X108091619Y-64360381D01*
X108091619Y-64360381D02*
X108186857Y-64312762D01*
X108186857Y-64312762D02*
X108472571Y-64312762D01*
X108472571Y-64312762D02*
X108567809Y-64360381D01*
X108567809Y-64360381D02*
X108615428Y-64408000D01*
X108615428Y-64408000D02*
X108663047Y-64503238D01*
X108663047Y-64503238D02*
X108663047Y-64693714D01*
X108663047Y-64693714D02*
X108615428Y-64788952D01*
X104932380Y-55645238D02*
X103932380Y-55978571D01*
X103932380Y-55978571D02*
X104932380Y-56311904D01*
X103980000Y-57073809D02*
X103932380Y-56978571D01*
X103932380Y-56978571D02*
X103932380Y-56788095D01*
X103932380Y-56788095D02*
X103980000Y-56692857D01*
X103980000Y-56692857D02*
X104027619Y-56645238D01*
X104027619Y-56645238D02*
X104122857Y-56597619D01*
X104122857Y-56597619D02*
X104408571Y-56597619D01*
X104408571Y-56597619D02*
X104503809Y-56645238D01*
X104503809Y-56645238D02*
X104551428Y-56692857D01*
X104551428Y-56692857D02*
X104599047Y-56788095D01*
X104599047Y-56788095D02*
X104599047Y-56978571D01*
X104599047Y-56978571D02*
X104551428Y-57073809D01*
X103980000Y-57930952D02*
X103932380Y-57835714D01*
X103932380Y-57835714D02*
X103932380Y-57645238D01*
X103932380Y-57645238D02*
X103980000Y-57550000D01*
X103980000Y-57550000D02*
X104027619Y-57502381D01*
X104027619Y-57502381D02*
X104122857Y-57454762D01*
X104122857Y-57454762D02*
X104408571Y-57454762D01*
X104408571Y-57454762D02*
X104503809Y-57502381D01*
X104503809Y-57502381D02*
X104551428Y-57550000D01*
X104551428Y-57550000D02*
X104599047Y-57645238D01*
X104599047Y-57645238D02*
X104599047Y-57835714D01*
X104599047Y-57835714D02*
X104551428Y-57930952D01*
X112758761Y-56311904D02*
X112806380Y-56216666D01*
X112806380Y-56216666D02*
X112806380Y-56073809D01*
X112806380Y-56073809D02*
X112758761Y-55930952D01*
X112758761Y-55930952D02*
X112663523Y-55835714D01*
X112663523Y-55835714D02*
X112568285Y-55788095D01*
X112568285Y-55788095D02*
X112377809Y-55740476D01*
X112377809Y-55740476D02*
X112234952Y-55740476D01*
X112234952Y-55740476D02*
X112044476Y-55788095D01*
X112044476Y-55788095D02*
X111949238Y-55835714D01*
X111949238Y-55835714D02*
X111854000Y-55930952D01*
X111854000Y-55930952D02*
X111806380Y-56073809D01*
X111806380Y-56073809D02*
X111806380Y-56169047D01*
X111806380Y-56169047D02*
X111854000Y-56311904D01*
X111854000Y-56311904D02*
X111901619Y-56359523D01*
X111901619Y-56359523D02*
X112234952Y-56359523D01*
X112234952Y-56359523D02*
X112234952Y-56169047D01*
X111806380Y-56788095D02*
X112806380Y-56788095D01*
X112806380Y-56788095D02*
X111806380Y-57359523D01*
X111806380Y-57359523D02*
X112806380Y-57359523D01*
X111806380Y-57835714D02*
X112806380Y-57835714D01*
X112806380Y-57835714D02*
X112806380Y-58073809D01*
X112806380Y-58073809D02*
X112758761Y-58216666D01*
X112758761Y-58216666D02*
X112663523Y-58311904D01*
X112663523Y-58311904D02*
X112568285Y-58359523D01*
X112568285Y-58359523D02*
X112377809Y-58407142D01*
X112377809Y-58407142D02*
X112234952Y-58407142D01*
X112234952Y-58407142D02*
X112044476Y-58359523D01*
X112044476Y-58359523D02*
X111949238Y-58311904D01*
X111949238Y-58311904D02*
X111854000Y-58216666D01*
X111854000Y-58216666D02*
X111806380Y-58073809D01*
X111806380Y-58073809D02*
X111806380Y-57835714D01*
X109060000Y-55740476D02*
X109012380Y-55883333D01*
X109012380Y-55883333D02*
X109012380Y-56121428D01*
X109012380Y-56121428D02*
X109060000Y-56216666D01*
X109060000Y-56216666D02*
X109107619Y-56264285D01*
X109107619Y-56264285D02*
X109202857Y-56311904D01*
X109202857Y-56311904D02*
X109298095Y-56311904D01*
X109298095Y-56311904D02*
X109393333Y-56264285D01*
X109393333Y-56264285D02*
X109440952Y-56216666D01*
X109440952Y-56216666D02*
X109488571Y-56121428D01*
X109488571Y-56121428D02*
X109536190Y-55930952D01*
X109536190Y-55930952D02*
X109583809Y-55835714D01*
X109583809Y-55835714D02*
X109631428Y-55788095D01*
X109631428Y-55788095D02*
X109726666Y-55740476D01*
X109726666Y-55740476D02*
X109821904Y-55740476D01*
X109821904Y-55740476D02*
X109917142Y-55788095D01*
X109917142Y-55788095D02*
X109964761Y-55835714D01*
X109964761Y-55835714D02*
X110012380Y-55930952D01*
X110012380Y-55930952D02*
X110012380Y-56169047D01*
X110012380Y-56169047D02*
X109964761Y-56311904D01*
X109012380Y-56740476D02*
X110012380Y-56740476D01*
X110012380Y-56740476D02*
X110012380Y-56978571D01*
X110012380Y-56978571D02*
X109964761Y-57121428D01*
X109964761Y-57121428D02*
X109869523Y-57216666D01*
X109869523Y-57216666D02*
X109774285Y-57264285D01*
X109774285Y-57264285D02*
X109583809Y-57311904D01*
X109583809Y-57311904D02*
X109440952Y-57311904D01*
X109440952Y-57311904D02*
X109250476Y-57264285D01*
X109250476Y-57264285D02*
X109155238Y-57216666D01*
X109155238Y-57216666D02*
X109060000Y-57121428D01*
X109060000Y-57121428D02*
X109012380Y-56978571D01*
X109012380Y-56978571D02*
X109012380Y-56740476D01*
X109298095Y-57692857D02*
X109298095Y-58169047D01*
X109012380Y-57597619D02*
X110012380Y-57930952D01*
X110012380Y-57930952D02*
X109012380Y-58264285D01*
X106520000Y-55740476D02*
X106472380Y-55883333D01*
X106472380Y-55883333D02*
X106472380Y-56121428D01*
X106472380Y-56121428D02*
X106520000Y-56216666D01*
X106520000Y-56216666D02*
X106567619Y-56264285D01*
X106567619Y-56264285D02*
X106662857Y-56311904D01*
X106662857Y-56311904D02*
X106758095Y-56311904D01*
X106758095Y-56311904D02*
X106853333Y-56264285D01*
X106853333Y-56264285D02*
X106900952Y-56216666D01*
X106900952Y-56216666D02*
X106948571Y-56121428D01*
X106948571Y-56121428D02*
X106996190Y-55930952D01*
X106996190Y-55930952D02*
X107043809Y-55835714D01*
X107043809Y-55835714D02*
X107091428Y-55788095D01*
X107091428Y-55788095D02*
X107186666Y-55740476D01*
X107186666Y-55740476D02*
X107281904Y-55740476D01*
X107281904Y-55740476D02*
X107377142Y-55788095D01*
X107377142Y-55788095D02*
X107424761Y-55835714D01*
X107424761Y-55835714D02*
X107472380Y-55930952D01*
X107472380Y-55930952D02*
X107472380Y-56169047D01*
X107472380Y-56169047D02*
X107424761Y-56311904D01*
X106567619Y-57311904D02*
X106520000Y-57264285D01*
X106520000Y-57264285D02*
X106472380Y-57121428D01*
X106472380Y-57121428D02*
X106472380Y-57026190D01*
X106472380Y-57026190D02*
X106520000Y-56883333D01*
X106520000Y-56883333D02*
X106615238Y-56788095D01*
X106615238Y-56788095D02*
X106710476Y-56740476D01*
X106710476Y-56740476D02*
X106900952Y-56692857D01*
X106900952Y-56692857D02*
X107043809Y-56692857D01*
X107043809Y-56692857D02*
X107234285Y-56740476D01*
X107234285Y-56740476D02*
X107329523Y-56788095D01*
X107329523Y-56788095D02*
X107424761Y-56883333D01*
X107424761Y-56883333D02*
X107472380Y-57026190D01*
X107472380Y-57026190D02*
X107472380Y-57121428D01*
X107472380Y-57121428D02*
X107424761Y-57264285D01*
X107424761Y-57264285D02*
X107377142Y-57311904D01*
X106472380Y-58216666D02*
X106472380Y-57740476D01*
X106472380Y-57740476D02*
X107472380Y-57740476D01*
X115763809Y-76382571D02*
X115716190Y-76334952D01*
X115716190Y-76334952D02*
X115620952Y-76192095D01*
X115620952Y-76192095D02*
X115573333Y-76096857D01*
X115573333Y-76096857D02*
X115525714Y-75954000D01*
X115525714Y-75954000D02*
X115478095Y-75715904D01*
X115478095Y-75715904D02*
X115478095Y-75525428D01*
X115478095Y-75525428D02*
X115525714Y-75287333D01*
X115525714Y-75287333D02*
X115573333Y-75144476D01*
X115573333Y-75144476D02*
X115620952Y-75049238D01*
X115620952Y-75049238D02*
X115716190Y-74906380D01*
X115716190Y-74906380D02*
X115763809Y-74858761D01*
X116144762Y-76001619D02*
X116144762Y-75001619D01*
X116573333Y-75096857D02*
X116620952Y-75049238D01*
X116620952Y-75049238D02*
X116716190Y-75001619D01*
X116716190Y-75001619D02*
X116954285Y-75001619D01*
X116954285Y-75001619D02*
X117049523Y-75049238D01*
X117049523Y-75049238D02*
X117097142Y-75096857D01*
X117097142Y-75096857D02*
X117144761Y-75192095D01*
X117144761Y-75192095D02*
X117144761Y-75287333D01*
X117144761Y-75287333D02*
X117097142Y-75430190D01*
X117097142Y-75430190D02*
X116525714Y-76001619D01*
X116525714Y-76001619D02*
X117144761Y-76001619D01*
X118144761Y-75906380D02*
X118097142Y-75954000D01*
X118097142Y-75954000D02*
X117954285Y-76001619D01*
X117954285Y-76001619D02*
X117859047Y-76001619D01*
X117859047Y-76001619D02*
X117716190Y-75954000D01*
X117716190Y-75954000D02*
X117620952Y-75858761D01*
X117620952Y-75858761D02*
X117573333Y-75763523D01*
X117573333Y-75763523D02*
X117525714Y-75573047D01*
X117525714Y-75573047D02*
X117525714Y-75430190D01*
X117525714Y-75430190D02*
X117573333Y-75239714D01*
X117573333Y-75239714D02*
X117620952Y-75144476D01*
X117620952Y-75144476D02*
X117716190Y-75049238D01*
X117716190Y-75049238D02*
X117859047Y-75001619D01*
X117859047Y-75001619D02*
X117954285Y-75001619D01*
X117954285Y-75001619D02*
X118097142Y-75049238D01*
X118097142Y-75049238D02*
X118144761Y-75096857D01*
X118478095Y-76382571D02*
X118525714Y-76334952D01*
X118525714Y-76334952D02*
X118620952Y-76192095D01*
X118620952Y-76192095D02*
X118668571Y-76096857D01*
X118668571Y-76096857D02*
X118716190Y-75954000D01*
X118716190Y-75954000D02*
X118763809Y-75715904D01*
X118763809Y-75715904D02*
X118763809Y-75525428D01*
X118763809Y-75525428D02*
X118716190Y-75287333D01*
X118716190Y-75287333D02*
X118668571Y-75144476D01*
X118668571Y-75144476D02*
X118620952Y-75049238D01*
X118620952Y-75049238D02*
X118525714Y-74906380D01*
X118525714Y-74906380D02*
X118478095Y-74858761D01*
X117950000Y-71488476D02*
X117902380Y-71631333D01*
X117902380Y-71631333D02*
X117902380Y-71869428D01*
X117902380Y-71869428D02*
X117950000Y-71964666D01*
X117950000Y-71964666D02*
X117997619Y-72012285D01*
X117997619Y-72012285D02*
X118092857Y-72059904D01*
X118092857Y-72059904D02*
X118188095Y-72059904D01*
X118188095Y-72059904D02*
X118283333Y-72012285D01*
X118283333Y-72012285D02*
X118330952Y-71964666D01*
X118330952Y-71964666D02*
X118378571Y-71869428D01*
X118378571Y-71869428D02*
X118426190Y-71678952D01*
X118426190Y-71678952D02*
X118473809Y-71583714D01*
X118473809Y-71583714D02*
X118521428Y-71536095D01*
X118521428Y-71536095D02*
X118616666Y-71488476D01*
X118616666Y-71488476D02*
X118711904Y-71488476D01*
X118711904Y-71488476D02*
X118807142Y-71536095D01*
X118807142Y-71536095D02*
X118854761Y-71583714D01*
X118854761Y-71583714D02*
X118902380Y-71678952D01*
X118902380Y-71678952D02*
X118902380Y-71917047D01*
X118902380Y-71917047D02*
X118854761Y-72059904D01*
X117902380Y-72488476D02*
X118902380Y-72488476D01*
X118902380Y-72488476D02*
X118902380Y-72726571D01*
X118902380Y-72726571D02*
X118854761Y-72869428D01*
X118854761Y-72869428D02*
X118759523Y-72964666D01*
X118759523Y-72964666D02*
X118664285Y-73012285D01*
X118664285Y-73012285D02*
X118473809Y-73059904D01*
X118473809Y-73059904D02*
X118330952Y-73059904D01*
X118330952Y-73059904D02*
X118140476Y-73012285D01*
X118140476Y-73012285D02*
X118045238Y-72964666D01*
X118045238Y-72964666D02*
X117950000Y-72869428D01*
X117950000Y-72869428D02*
X117902380Y-72726571D01*
X117902380Y-72726571D02*
X117902380Y-72488476D01*
X118188095Y-73440857D02*
X118188095Y-73917047D01*
X117902380Y-73345619D02*
X118902380Y-73678952D01*
X118902380Y-73678952D02*
X117902380Y-74012285D01*
X115410000Y-71488476D02*
X115362380Y-71631333D01*
X115362380Y-71631333D02*
X115362380Y-71869428D01*
X115362380Y-71869428D02*
X115410000Y-71964666D01*
X115410000Y-71964666D02*
X115457619Y-72012285D01*
X115457619Y-72012285D02*
X115552857Y-72059904D01*
X115552857Y-72059904D02*
X115648095Y-72059904D01*
X115648095Y-72059904D02*
X115743333Y-72012285D01*
X115743333Y-72012285D02*
X115790952Y-71964666D01*
X115790952Y-71964666D02*
X115838571Y-71869428D01*
X115838571Y-71869428D02*
X115886190Y-71678952D01*
X115886190Y-71678952D02*
X115933809Y-71583714D01*
X115933809Y-71583714D02*
X115981428Y-71536095D01*
X115981428Y-71536095D02*
X116076666Y-71488476D01*
X116076666Y-71488476D02*
X116171904Y-71488476D01*
X116171904Y-71488476D02*
X116267142Y-71536095D01*
X116267142Y-71536095D02*
X116314761Y-71583714D01*
X116314761Y-71583714D02*
X116362380Y-71678952D01*
X116362380Y-71678952D02*
X116362380Y-71917047D01*
X116362380Y-71917047D02*
X116314761Y-72059904D01*
X115457619Y-73059904D02*
X115410000Y-73012285D01*
X115410000Y-73012285D02*
X115362380Y-72869428D01*
X115362380Y-72869428D02*
X115362380Y-72774190D01*
X115362380Y-72774190D02*
X115410000Y-72631333D01*
X115410000Y-72631333D02*
X115505238Y-72536095D01*
X115505238Y-72536095D02*
X115600476Y-72488476D01*
X115600476Y-72488476D02*
X115790952Y-72440857D01*
X115790952Y-72440857D02*
X115933809Y-72440857D01*
X115933809Y-72440857D02*
X116124285Y-72488476D01*
X116124285Y-72488476D02*
X116219523Y-72536095D01*
X116219523Y-72536095D02*
X116314761Y-72631333D01*
X116314761Y-72631333D02*
X116362380Y-72774190D01*
X116362380Y-72774190D02*
X116362380Y-72869428D01*
X116362380Y-72869428D02*
X116314761Y-73012285D01*
X116314761Y-73012285D02*
X116267142Y-73059904D01*
X115362380Y-73964666D02*
X115362380Y-73488476D01*
X115362380Y-73488476D02*
X116362380Y-73488476D01*
X113822380Y-72012285D02*
X113822380Y-71536095D01*
X113822380Y-71536095D02*
X113346190Y-71488476D01*
X113346190Y-71488476D02*
X113393809Y-71536095D01*
X113393809Y-71536095D02*
X113441428Y-71631333D01*
X113441428Y-71631333D02*
X113441428Y-71869428D01*
X113441428Y-71869428D02*
X113393809Y-71964666D01*
X113393809Y-71964666D02*
X113346190Y-72012285D01*
X113346190Y-72012285D02*
X113250952Y-72059904D01*
X113250952Y-72059904D02*
X113012857Y-72059904D01*
X113012857Y-72059904D02*
X112917619Y-72012285D01*
X112917619Y-72012285D02*
X112870000Y-71964666D01*
X112870000Y-71964666D02*
X112822380Y-71869428D01*
X112822380Y-71869428D02*
X112822380Y-71631333D01*
X112822380Y-71631333D02*
X112870000Y-71536095D01*
X112870000Y-71536095D02*
X112917619Y-71488476D01*
X113822380Y-72345619D02*
X112822380Y-72678952D01*
X112822380Y-72678952D02*
X113822380Y-73012285D01*
X111234761Y-72059904D02*
X111282380Y-71964666D01*
X111282380Y-71964666D02*
X111282380Y-71821809D01*
X111282380Y-71821809D02*
X111234761Y-71678952D01*
X111234761Y-71678952D02*
X111139523Y-71583714D01*
X111139523Y-71583714D02*
X111044285Y-71536095D01*
X111044285Y-71536095D02*
X110853809Y-71488476D01*
X110853809Y-71488476D02*
X110710952Y-71488476D01*
X110710952Y-71488476D02*
X110520476Y-71536095D01*
X110520476Y-71536095D02*
X110425238Y-71583714D01*
X110425238Y-71583714D02*
X110330000Y-71678952D01*
X110330000Y-71678952D02*
X110282380Y-71821809D01*
X110282380Y-71821809D02*
X110282380Y-71917047D01*
X110282380Y-71917047D02*
X110330000Y-72059904D01*
X110330000Y-72059904D02*
X110377619Y-72107523D01*
X110377619Y-72107523D02*
X110710952Y-72107523D01*
X110710952Y-72107523D02*
X110710952Y-71917047D01*
X110282380Y-72536095D02*
X111282380Y-72536095D01*
X111282380Y-72536095D02*
X110282380Y-73107523D01*
X110282380Y-73107523D02*
X111282380Y-73107523D01*
X110282380Y-73583714D02*
X111282380Y-73583714D01*
X111282380Y-73583714D02*
X111282380Y-73821809D01*
X111282380Y-73821809D02*
X111234761Y-73964666D01*
X111234761Y-73964666D02*
X111139523Y-74059904D01*
X111139523Y-74059904D02*
X111044285Y-74107523D01*
X111044285Y-74107523D02*
X110853809Y-74155142D01*
X110853809Y-74155142D02*
X110710952Y-74155142D01*
X110710952Y-74155142D02*
X110520476Y-74107523D01*
X110520476Y-74107523D02*
X110425238Y-74059904D01*
X110425238Y-74059904D02*
X110330000Y-73964666D01*
X110330000Y-73964666D02*
X110282380Y-73821809D01*
X110282380Y-73821809D02*
X110282380Y-73583714D01*
X163245904Y-92321238D02*
X163150666Y-92273619D01*
X163150666Y-92273619D02*
X163007809Y-92273619D01*
X163007809Y-92273619D02*
X162864952Y-92321238D01*
X162864952Y-92321238D02*
X162769714Y-92416476D01*
X162769714Y-92416476D02*
X162722095Y-92511714D01*
X162722095Y-92511714D02*
X162674476Y-92702190D01*
X162674476Y-92702190D02*
X162674476Y-92845047D01*
X162674476Y-92845047D02*
X162722095Y-93035523D01*
X162722095Y-93035523D02*
X162769714Y-93130761D01*
X162769714Y-93130761D02*
X162864952Y-93226000D01*
X162864952Y-93226000D02*
X163007809Y-93273619D01*
X163007809Y-93273619D02*
X163103047Y-93273619D01*
X163103047Y-93273619D02*
X163245904Y-93226000D01*
X163245904Y-93226000D02*
X163293523Y-93178380D01*
X163293523Y-93178380D02*
X163293523Y-92845047D01*
X163293523Y-92845047D02*
X163103047Y-92845047D01*
X163722095Y-93273619D02*
X163722095Y-92273619D01*
X163722095Y-92273619D02*
X164293523Y-93273619D01*
X164293523Y-93273619D02*
X164293523Y-92273619D01*
X164769714Y-93273619D02*
X164769714Y-92273619D01*
X164769714Y-92273619D02*
X165007809Y-92273619D01*
X165007809Y-92273619D02*
X165150666Y-92321238D01*
X165150666Y-92321238D02*
X165245904Y-92416476D01*
X165245904Y-92416476D02*
X165293523Y-92511714D01*
X165293523Y-92511714D02*
X165341142Y-92702190D01*
X165341142Y-92702190D02*
X165341142Y-92845047D01*
X165341142Y-92845047D02*
X165293523Y-93035523D01*
X165293523Y-93035523D02*
X165245904Y-93130761D01*
X165245904Y-93130761D02*
X165150666Y-93226000D01*
X165150666Y-93226000D02*
X165007809Y-93273619D01*
X165007809Y-93273619D02*
X164769714Y-93273619D01*
X163245904Y-82161238D02*
X163150666Y-82113619D01*
X163150666Y-82113619D02*
X163007809Y-82113619D01*
X163007809Y-82113619D02*
X162864952Y-82161238D01*
X162864952Y-82161238D02*
X162769714Y-82256476D01*
X162769714Y-82256476D02*
X162722095Y-82351714D01*
X162722095Y-82351714D02*
X162674476Y-82542190D01*
X162674476Y-82542190D02*
X162674476Y-82685047D01*
X162674476Y-82685047D02*
X162722095Y-82875523D01*
X162722095Y-82875523D02*
X162769714Y-82970761D01*
X162769714Y-82970761D02*
X162864952Y-83066000D01*
X162864952Y-83066000D02*
X163007809Y-83113619D01*
X163007809Y-83113619D02*
X163103047Y-83113619D01*
X163103047Y-83113619D02*
X163245904Y-83066000D01*
X163245904Y-83066000D02*
X163293523Y-83018380D01*
X163293523Y-83018380D02*
X163293523Y-82685047D01*
X163293523Y-82685047D02*
X163103047Y-82685047D01*
X163722095Y-83113619D02*
X163722095Y-82113619D01*
X163722095Y-82113619D02*
X164293523Y-83113619D01*
X164293523Y-83113619D02*
X164293523Y-82113619D01*
X164769714Y-83113619D02*
X164769714Y-82113619D01*
X164769714Y-82113619D02*
X165007809Y-82113619D01*
X165007809Y-82113619D02*
X165150666Y-82161238D01*
X165150666Y-82161238D02*
X165245904Y-82256476D01*
X165245904Y-82256476D02*
X165293523Y-82351714D01*
X165293523Y-82351714D02*
X165341142Y-82542190D01*
X165341142Y-82542190D02*
X165341142Y-82685047D01*
X165341142Y-82685047D02*
X165293523Y-82875523D01*
X165293523Y-82875523D02*
X165245904Y-82970761D01*
X165245904Y-82970761D02*
X165150666Y-83066000D01*
X165150666Y-83066000D02*
X165007809Y-83113619D01*
X165007809Y-83113619D02*
X164769714Y-83113619D01*
X160388476Y-92987904D02*
X160864666Y-92987904D01*
X160293238Y-93273619D02*
X160626571Y-92273619D01*
X160626571Y-92273619D02*
X160959904Y-93273619D01*
X161198000Y-92273619D02*
X161817047Y-92273619D01*
X161817047Y-92273619D02*
X161483714Y-92654571D01*
X161483714Y-92654571D02*
X161626571Y-92654571D01*
X161626571Y-92654571D02*
X161721809Y-92702190D01*
X161721809Y-92702190D02*
X161769428Y-92749809D01*
X161769428Y-92749809D02*
X161817047Y-92845047D01*
X161817047Y-92845047D02*
X161817047Y-93083142D01*
X161817047Y-93083142D02*
X161769428Y-93178380D01*
X161769428Y-93178380D02*
X161721809Y-93226000D01*
X161721809Y-93226000D02*
X161626571Y-93273619D01*
X161626571Y-93273619D02*
X161340857Y-93273619D01*
X161340857Y-93273619D02*
X161245619Y-93226000D01*
X161245619Y-93226000D02*
X161198000Y-93178380D01*
X160388476Y-82827904D02*
X160864666Y-82827904D01*
X160293238Y-83113619D02*
X160626571Y-82113619D01*
X160626571Y-82113619D02*
X160959904Y-83113619D01*
X161245619Y-82208857D02*
X161293238Y-82161238D01*
X161293238Y-82161238D02*
X161388476Y-82113619D01*
X161388476Y-82113619D02*
X161626571Y-82113619D01*
X161626571Y-82113619D02*
X161721809Y-82161238D01*
X161721809Y-82161238D02*
X161769428Y-82208857D01*
X161769428Y-82208857D02*
X161817047Y-82304095D01*
X161817047Y-82304095D02*
X161817047Y-82399333D01*
X161817047Y-82399333D02*
X161769428Y-82542190D01*
X161769428Y-82542190D02*
X161198000Y-83113619D01*
X161198000Y-83113619D02*
X161817047Y-83113619D01*
X102968571Y-95987619D02*
X103159047Y-95987619D01*
X103159047Y-95987619D02*
X103254285Y-96035238D01*
X103254285Y-96035238D02*
X103349523Y-96130476D01*
X103349523Y-96130476D02*
X103397142Y-96320952D01*
X103397142Y-96320952D02*
X103397142Y-96654285D01*
X103397142Y-96654285D02*
X103349523Y-96844761D01*
X103349523Y-96844761D02*
X103254285Y-96940000D01*
X103254285Y-96940000D02*
X103159047Y-96987619D01*
X103159047Y-96987619D02*
X102968571Y-96987619D01*
X102968571Y-96987619D02*
X102873333Y-96940000D01*
X102873333Y-96940000D02*
X102778095Y-96844761D01*
X102778095Y-96844761D02*
X102730476Y-96654285D01*
X102730476Y-96654285D02*
X102730476Y-96320952D01*
X102730476Y-96320952D02*
X102778095Y-96130476D01*
X102778095Y-96130476D02*
X102873333Y-96035238D01*
X102873333Y-96035238D02*
X102968571Y-95987619D01*
X104301904Y-96987619D02*
X103825714Y-96987619D01*
X103825714Y-96987619D02*
X103825714Y-95987619D01*
X104635238Y-96463809D02*
X104968571Y-96463809D01*
X105111428Y-96987619D02*
X104635238Y-96987619D01*
X104635238Y-96987619D02*
X104635238Y-95987619D01*
X104635238Y-95987619D02*
X105111428Y-95987619D01*
X105540000Y-96987619D02*
X105540000Y-95987619D01*
X105540000Y-95987619D02*
X105778095Y-95987619D01*
X105778095Y-95987619D02*
X105920952Y-96035238D01*
X105920952Y-96035238D02*
X106016190Y-96130476D01*
X106016190Y-96130476D02*
X106063809Y-96225714D01*
X106063809Y-96225714D02*
X106111428Y-96416190D01*
X106111428Y-96416190D02*
X106111428Y-96559047D01*
X106111428Y-96559047D02*
X106063809Y-96749523D01*
X106063809Y-96749523D02*
X106016190Y-96844761D01*
X106016190Y-96844761D02*
X105920952Y-96940000D01*
X105920952Y-96940000D02*
X105778095Y-96987619D01*
X105778095Y-96987619D02*
X105540000Y-96987619D01*
X107825714Y-96987619D02*
X107254286Y-96987619D01*
X107540000Y-96987619D02*
X107540000Y-95987619D01*
X107540000Y-95987619D02*
X107444762Y-96130476D01*
X107444762Y-96130476D02*
X107349524Y-96225714D01*
X107349524Y-96225714D02*
X107254286Y-96273333D01*
X108206667Y-96082857D02*
X108254286Y-96035238D01*
X108254286Y-96035238D02*
X108349524Y-95987619D01*
X108349524Y-95987619D02*
X108587619Y-95987619D01*
X108587619Y-95987619D02*
X108682857Y-96035238D01*
X108682857Y-96035238D02*
X108730476Y-96082857D01*
X108730476Y-96082857D02*
X108778095Y-96178095D01*
X108778095Y-96178095D02*
X108778095Y-96273333D01*
X108778095Y-96273333D02*
X108730476Y-96416190D01*
X108730476Y-96416190D02*
X108159048Y-96987619D01*
X108159048Y-96987619D02*
X108778095Y-96987619D01*
X109349524Y-96416190D02*
X109254286Y-96368571D01*
X109254286Y-96368571D02*
X109206667Y-96320952D01*
X109206667Y-96320952D02*
X109159048Y-96225714D01*
X109159048Y-96225714D02*
X109159048Y-96178095D01*
X109159048Y-96178095D02*
X109206667Y-96082857D01*
X109206667Y-96082857D02*
X109254286Y-96035238D01*
X109254286Y-96035238D02*
X109349524Y-95987619D01*
X109349524Y-95987619D02*
X109540000Y-95987619D01*
X109540000Y-95987619D02*
X109635238Y-96035238D01*
X109635238Y-96035238D02*
X109682857Y-96082857D01*
X109682857Y-96082857D02*
X109730476Y-96178095D01*
X109730476Y-96178095D02*
X109730476Y-96225714D01*
X109730476Y-96225714D02*
X109682857Y-96320952D01*
X109682857Y-96320952D02*
X109635238Y-96368571D01*
X109635238Y-96368571D02*
X109540000Y-96416190D01*
X109540000Y-96416190D02*
X109349524Y-96416190D01*
X109349524Y-96416190D02*
X109254286Y-96463809D01*
X109254286Y-96463809D02*
X109206667Y-96511428D01*
X109206667Y-96511428D02*
X109159048Y-96606666D01*
X109159048Y-96606666D02*
X109159048Y-96797142D01*
X109159048Y-96797142D02*
X109206667Y-96892380D01*
X109206667Y-96892380D02*
X109254286Y-96940000D01*
X109254286Y-96940000D02*
X109349524Y-96987619D01*
X109349524Y-96987619D02*
X109540000Y-96987619D01*
X109540000Y-96987619D02*
X109635238Y-96940000D01*
X109635238Y-96940000D02*
X109682857Y-96892380D01*
X109682857Y-96892380D02*
X109730476Y-96797142D01*
X109730476Y-96797142D02*
X109730476Y-96606666D01*
X109730476Y-96606666D02*
X109682857Y-96511428D01*
X109682857Y-96511428D02*
X109635238Y-96463809D01*
X109635238Y-96463809D02*
X109540000Y-96416190D01*
X110063810Y-96987619D02*
X110587619Y-96320952D01*
X110063810Y-96320952D02*
X110587619Y-96987619D01*
X111397143Y-95987619D02*
X111206667Y-95987619D01*
X111206667Y-95987619D02*
X111111429Y-96035238D01*
X111111429Y-96035238D02*
X111063810Y-96082857D01*
X111063810Y-96082857D02*
X110968572Y-96225714D01*
X110968572Y-96225714D02*
X110920953Y-96416190D01*
X110920953Y-96416190D02*
X110920953Y-96797142D01*
X110920953Y-96797142D02*
X110968572Y-96892380D01*
X110968572Y-96892380D02*
X111016191Y-96940000D01*
X111016191Y-96940000D02*
X111111429Y-96987619D01*
X111111429Y-96987619D02*
X111301905Y-96987619D01*
X111301905Y-96987619D02*
X111397143Y-96940000D01*
X111397143Y-96940000D02*
X111444762Y-96892380D01*
X111444762Y-96892380D02*
X111492381Y-96797142D01*
X111492381Y-96797142D02*
X111492381Y-96559047D01*
X111492381Y-96559047D02*
X111444762Y-96463809D01*
X111444762Y-96463809D02*
X111397143Y-96416190D01*
X111397143Y-96416190D02*
X111301905Y-96368571D01*
X111301905Y-96368571D02*
X111111429Y-96368571D01*
X111111429Y-96368571D02*
X111016191Y-96416190D01*
X111016191Y-96416190D02*
X110968572Y-96463809D01*
X110968572Y-96463809D02*
X110920953Y-96559047D01*
X112349524Y-96320952D02*
X112349524Y-96987619D01*
X112111429Y-95940000D02*
X111873334Y-96654285D01*
X111873334Y-96654285D02*
X112492381Y-96654285D01*
X102730476Y-98560000D02*
X102873333Y-98607619D01*
X102873333Y-98607619D02*
X103111428Y-98607619D01*
X103111428Y-98607619D02*
X103206666Y-98560000D01*
X103206666Y-98560000D02*
X103254285Y-98512380D01*
X103254285Y-98512380D02*
X103301904Y-98417142D01*
X103301904Y-98417142D02*
X103301904Y-98321904D01*
X103301904Y-98321904D02*
X103254285Y-98226666D01*
X103254285Y-98226666D02*
X103206666Y-98179047D01*
X103206666Y-98179047D02*
X103111428Y-98131428D01*
X103111428Y-98131428D02*
X102920952Y-98083809D01*
X102920952Y-98083809D02*
X102825714Y-98036190D01*
X102825714Y-98036190D02*
X102778095Y-97988571D01*
X102778095Y-97988571D02*
X102730476Y-97893333D01*
X102730476Y-97893333D02*
X102730476Y-97798095D01*
X102730476Y-97798095D02*
X102778095Y-97702857D01*
X102778095Y-97702857D02*
X102825714Y-97655238D01*
X102825714Y-97655238D02*
X102920952Y-97607619D01*
X102920952Y-97607619D02*
X103159047Y-97607619D01*
X103159047Y-97607619D02*
X103301904Y-97655238D01*
X103682857Y-98560000D02*
X103825714Y-98607619D01*
X103825714Y-98607619D02*
X104063809Y-98607619D01*
X104063809Y-98607619D02*
X104159047Y-98560000D01*
X104159047Y-98560000D02*
X104206666Y-98512380D01*
X104206666Y-98512380D02*
X104254285Y-98417142D01*
X104254285Y-98417142D02*
X104254285Y-98321904D01*
X104254285Y-98321904D02*
X104206666Y-98226666D01*
X104206666Y-98226666D02*
X104159047Y-98179047D01*
X104159047Y-98179047D02*
X104063809Y-98131428D01*
X104063809Y-98131428D02*
X103873333Y-98083809D01*
X103873333Y-98083809D02*
X103778095Y-98036190D01*
X103778095Y-98036190D02*
X103730476Y-97988571D01*
X103730476Y-97988571D02*
X103682857Y-97893333D01*
X103682857Y-97893333D02*
X103682857Y-97798095D01*
X103682857Y-97798095D02*
X103730476Y-97702857D01*
X103730476Y-97702857D02*
X103778095Y-97655238D01*
X103778095Y-97655238D02*
X103873333Y-97607619D01*
X103873333Y-97607619D02*
X104111428Y-97607619D01*
X104111428Y-97607619D02*
X104254285Y-97655238D01*
X104682857Y-98607619D02*
X104682857Y-97607619D01*
X104682857Y-97607619D02*
X104920952Y-97607619D01*
X104920952Y-97607619D02*
X105063809Y-97655238D01*
X105063809Y-97655238D02*
X105159047Y-97750476D01*
X105159047Y-97750476D02*
X105206666Y-97845714D01*
X105206666Y-97845714D02*
X105254285Y-98036190D01*
X105254285Y-98036190D02*
X105254285Y-98179047D01*
X105254285Y-98179047D02*
X105206666Y-98369523D01*
X105206666Y-98369523D02*
X105159047Y-98464761D01*
X105159047Y-98464761D02*
X105063809Y-98560000D01*
X105063809Y-98560000D02*
X104920952Y-98607619D01*
X104920952Y-98607619D02*
X104682857Y-98607619D01*
X106206666Y-98607619D02*
X105635238Y-98607619D01*
X105920952Y-98607619D02*
X105920952Y-97607619D01*
X105920952Y-97607619D02*
X105825714Y-97750476D01*
X105825714Y-97750476D02*
X105730476Y-97845714D01*
X105730476Y-97845714D02*
X105635238Y-97893333D01*
X106540000Y-97607619D02*
X107159047Y-97607619D01*
X107159047Y-97607619D02*
X106825714Y-97988571D01*
X106825714Y-97988571D02*
X106968571Y-97988571D01*
X106968571Y-97988571D02*
X107063809Y-98036190D01*
X107063809Y-98036190D02*
X107111428Y-98083809D01*
X107111428Y-98083809D02*
X107159047Y-98179047D01*
X107159047Y-98179047D02*
X107159047Y-98417142D01*
X107159047Y-98417142D02*
X107111428Y-98512380D01*
X107111428Y-98512380D02*
X107063809Y-98560000D01*
X107063809Y-98560000D02*
X106968571Y-98607619D01*
X106968571Y-98607619D02*
X106682857Y-98607619D01*
X106682857Y-98607619D02*
X106587619Y-98560000D01*
X106587619Y-98560000D02*
X106540000Y-98512380D01*
X107778095Y-97607619D02*
X107873333Y-97607619D01*
X107873333Y-97607619D02*
X107968571Y-97655238D01*
X107968571Y-97655238D02*
X108016190Y-97702857D01*
X108016190Y-97702857D02*
X108063809Y-97798095D01*
X108063809Y-97798095D02*
X108111428Y-97988571D01*
X108111428Y-97988571D02*
X108111428Y-98226666D01*
X108111428Y-98226666D02*
X108063809Y-98417142D01*
X108063809Y-98417142D02*
X108016190Y-98512380D01*
X108016190Y-98512380D02*
X107968571Y-98560000D01*
X107968571Y-98560000D02*
X107873333Y-98607619D01*
X107873333Y-98607619D02*
X107778095Y-98607619D01*
X107778095Y-98607619D02*
X107682857Y-98560000D01*
X107682857Y-98560000D02*
X107635238Y-98512380D01*
X107635238Y-98512380D02*
X107587619Y-98417142D01*
X107587619Y-98417142D02*
X107540000Y-98226666D01*
X107540000Y-98226666D02*
X107540000Y-97988571D01*
X107540000Y-97988571D02*
X107587619Y-97798095D01*
X107587619Y-97798095D02*
X107635238Y-97702857D01*
X107635238Y-97702857D02*
X107682857Y-97655238D01*
X107682857Y-97655238D02*
X107778095Y-97607619D01*
X108968571Y-97607619D02*
X108778095Y-97607619D01*
X108778095Y-97607619D02*
X108682857Y-97655238D01*
X108682857Y-97655238D02*
X108635238Y-97702857D01*
X108635238Y-97702857D02*
X108540000Y-97845714D01*
X108540000Y-97845714D02*
X108492381Y-98036190D01*
X108492381Y-98036190D02*
X108492381Y-98417142D01*
X108492381Y-98417142D02*
X108540000Y-98512380D01*
X108540000Y-98512380D02*
X108587619Y-98560000D01*
X108587619Y-98560000D02*
X108682857Y-98607619D01*
X108682857Y-98607619D02*
X108873333Y-98607619D01*
X108873333Y-98607619D02*
X108968571Y-98560000D01*
X108968571Y-98560000D02*
X109016190Y-98512380D01*
X109016190Y-98512380D02*
X109063809Y-98417142D01*
X109063809Y-98417142D02*
X109063809Y-98179047D01*
X109063809Y-98179047D02*
X109016190Y-98083809D01*
X109016190Y-98083809D02*
X108968571Y-98036190D01*
X108968571Y-98036190D02*
X108873333Y-97988571D01*
X108873333Y-97988571D02*
X108682857Y-97988571D01*
X108682857Y-97988571D02*
X108587619Y-98036190D01*
X108587619Y-98036190D02*
X108540000Y-98083809D01*
X108540000Y-98083809D02*
X108492381Y-98179047D01*
X134421619Y-90617904D02*
X133421619Y-90617904D01*
X133421619Y-90617904D02*
X133421619Y-90236952D01*
X133421619Y-90236952D02*
X133469238Y-90141714D01*
X133469238Y-90141714D02*
X133516857Y-90094095D01*
X133516857Y-90094095D02*
X133612095Y-90046476D01*
X133612095Y-90046476D02*
X133754952Y-90046476D01*
X133754952Y-90046476D02*
X133850190Y-90094095D01*
X133850190Y-90094095D02*
X133897809Y-90141714D01*
X133897809Y-90141714D02*
X133945428Y-90236952D01*
X133945428Y-90236952D02*
X133945428Y-90617904D01*
X133421619Y-89427428D02*
X133421619Y-89236952D01*
X133421619Y-89236952D02*
X133469238Y-89141714D01*
X133469238Y-89141714D02*
X133564476Y-89046476D01*
X133564476Y-89046476D02*
X133754952Y-88998857D01*
X133754952Y-88998857D02*
X134088285Y-88998857D01*
X134088285Y-88998857D02*
X134278761Y-89046476D01*
X134278761Y-89046476D02*
X134374000Y-89141714D01*
X134374000Y-89141714D02*
X134421619Y-89236952D01*
X134421619Y-89236952D02*
X134421619Y-89427428D01*
X134421619Y-89427428D02*
X134374000Y-89522666D01*
X134374000Y-89522666D02*
X134278761Y-89617904D01*
X134278761Y-89617904D02*
X134088285Y-89665523D01*
X134088285Y-89665523D02*
X133754952Y-89665523D01*
X133754952Y-89665523D02*
X133564476Y-89617904D01*
X133564476Y-89617904D02*
X133469238Y-89522666D01*
X133469238Y-89522666D02*
X133421619Y-89427428D01*
X133421619Y-88713142D02*
X133421619Y-88141714D01*
X134421619Y-88427428D02*
X133421619Y-88427428D01*
X134421619Y-86522666D02*
X134421619Y-87094094D01*
X134421619Y-86808380D02*
X133421619Y-86808380D01*
X133421619Y-86808380D02*
X133564476Y-86903618D01*
X133564476Y-86903618D02*
X133659714Y-86998856D01*
X133659714Y-86998856D02*
X133707333Y-87094094D01*
X150530095Y-82605619D02*
X150530095Y-81605619D01*
X150530095Y-81605619D02*
X150911047Y-81605619D01*
X150911047Y-81605619D02*
X151006285Y-81653238D01*
X151006285Y-81653238D02*
X151053904Y-81700857D01*
X151053904Y-81700857D02*
X151101523Y-81796095D01*
X151101523Y-81796095D02*
X151101523Y-81938952D01*
X151101523Y-81938952D02*
X151053904Y-82034190D01*
X151053904Y-82034190D02*
X151006285Y-82081809D01*
X151006285Y-82081809D02*
X150911047Y-82129428D01*
X150911047Y-82129428D02*
X150530095Y-82129428D01*
X151720571Y-81605619D02*
X151911047Y-81605619D01*
X151911047Y-81605619D02*
X152006285Y-81653238D01*
X152006285Y-81653238D02*
X152101523Y-81748476D01*
X152101523Y-81748476D02*
X152149142Y-81938952D01*
X152149142Y-81938952D02*
X152149142Y-82272285D01*
X152149142Y-82272285D02*
X152101523Y-82462761D01*
X152101523Y-82462761D02*
X152006285Y-82558000D01*
X152006285Y-82558000D02*
X151911047Y-82605619D01*
X151911047Y-82605619D02*
X151720571Y-82605619D01*
X151720571Y-82605619D02*
X151625333Y-82558000D01*
X151625333Y-82558000D02*
X151530095Y-82462761D01*
X151530095Y-82462761D02*
X151482476Y-82272285D01*
X151482476Y-82272285D02*
X151482476Y-81938952D01*
X151482476Y-81938952D02*
X151530095Y-81748476D01*
X151530095Y-81748476D02*
X151625333Y-81653238D01*
X151625333Y-81653238D02*
X151720571Y-81605619D01*
X152434857Y-81605619D02*
X153006285Y-81605619D01*
X152720571Y-82605619D02*
X152720571Y-81605619D01*
X154053905Y-81700857D02*
X154101524Y-81653238D01*
X154101524Y-81653238D02*
X154196762Y-81605619D01*
X154196762Y-81605619D02*
X154434857Y-81605619D01*
X154434857Y-81605619D02*
X154530095Y-81653238D01*
X154530095Y-81653238D02*
X154577714Y-81700857D01*
X154577714Y-81700857D02*
X154625333Y-81796095D01*
X154625333Y-81796095D02*
X154625333Y-81891333D01*
X154625333Y-81891333D02*
X154577714Y-82034190D01*
X154577714Y-82034190D02*
X154006286Y-82605619D01*
X154006286Y-82605619D02*
X154625333Y-82605619D01*
X138417428Y-81827809D02*
X138560285Y-81875428D01*
X138560285Y-81875428D02*
X138607904Y-81923047D01*
X138607904Y-81923047D02*
X138655523Y-82018285D01*
X138655523Y-82018285D02*
X138655523Y-82161142D01*
X138655523Y-82161142D02*
X138607904Y-82256380D01*
X138607904Y-82256380D02*
X138560285Y-82304000D01*
X138560285Y-82304000D02*
X138465047Y-82351619D01*
X138465047Y-82351619D02*
X138084095Y-82351619D01*
X138084095Y-82351619D02*
X138084095Y-81351619D01*
X138084095Y-81351619D02*
X138417428Y-81351619D01*
X138417428Y-81351619D02*
X138512666Y-81399238D01*
X138512666Y-81399238D02*
X138560285Y-81446857D01*
X138560285Y-81446857D02*
X138607904Y-81542095D01*
X138607904Y-81542095D02*
X138607904Y-81637333D01*
X138607904Y-81637333D02*
X138560285Y-81732571D01*
X138560285Y-81732571D02*
X138512666Y-81780190D01*
X138512666Y-81780190D02*
X138417428Y-81827809D01*
X138417428Y-81827809D02*
X138084095Y-81827809D01*
X139560285Y-82351619D02*
X139084095Y-82351619D01*
X139084095Y-82351619D02*
X139084095Y-81351619D01*
X139893619Y-81351619D02*
X139893619Y-82161142D01*
X139893619Y-82161142D02*
X139941238Y-82256380D01*
X139941238Y-82256380D02*
X139988857Y-82304000D01*
X139988857Y-82304000D02*
X140084095Y-82351619D01*
X140084095Y-82351619D02*
X140274571Y-82351619D01*
X140274571Y-82351619D02*
X140369809Y-82304000D01*
X140369809Y-82304000D02*
X140417428Y-82256380D01*
X140417428Y-82256380D02*
X140465047Y-82161142D01*
X140465047Y-82161142D02*
X140465047Y-81351619D01*
X140941238Y-81827809D02*
X141274571Y-81827809D01*
X141417428Y-82351619D02*
X140941238Y-82351619D01*
X140941238Y-82351619D02*
X140941238Y-81351619D01*
X140941238Y-81351619D02*
X141417428Y-81351619D01*
X132305523Y-70413619D02*
X131972190Y-69937428D01*
X131734095Y-70413619D02*
X131734095Y-69413619D01*
X131734095Y-69413619D02*
X132115047Y-69413619D01*
X132115047Y-69413619D02*
X132210285Y-69461238D01*
X132210285Y-69461238D02*
X132257904Y-69508857D01*
X132257904Y-69508857D02*
X132305523Y-69604095D01*
X132305523Y-69604095D02*
X132305523Y-69746952D01*
X132305523Y-69746952D02*
X132257904Y-69842190D01*
X132257904Y-69842190D02*
X132210285Y-69889809D01*
X132210285Y-69889809D02*
X132115047Y-69937428D01*
X132115047Y-69937428D02*
X131734095Y-69937428D01*
X132734095Y-69889809D02*
X133067428Y-69889809D01*
X133210285Y-70413619D02*
X132734095Y-70413619D01*
X132734095Y-70413619D02*
X132734095Y-69413619D01*
X132734095Y-69413619D02*
X133210285Y-69413619D01*
X133638857Y-70413619D02*
X133638857Y-69413619D01*
X133638857Y-69413619D02*
X133876952Y-69413619D01*
X133876952Y-69413619D02*
X134019809Y-69461238D01*
X134019809Y-69461238D02*
X134115047Y-69556476D01*
X134115047Y-69556476D02*
X134162666Y-69651714D01*
X134162666Y-69651714D02*
X134210285Y-69842190D01*
X134210285Y-69842190D02*
X134210285Y-69985047D01*
X134210285Y-69985047D02*
X134162666Y-70175523D01*
X134162666Y-70175523D02*
X134115047Y-70270761D01*
X134115047Y-70270761D02*
X134019809Y-70366000D01*
X134019809Y-70366000D02*
X133876952Y-70413619D01*
X133876952Y-70413619D02*
X133638857Y-70413619D01*
X138099904Y-66159238D02*
X138004666Y-66111619D01*
X138004666Y-66111619D02*
X137861809Y-66111619D01*
X137861809Y-66111619D02*
X137718952Y-66159238D01*
X137718952Y-66159238D02*
X137623714Y-66254476D01*
X137623714Y-66254476D02*
X137576095Y-66349714D01*
X137576095Y-66349714D02*
X137528476Y-66540190D01*
X137528476Y-66540190D02*
X137528476Y-66683047D01*
X137528476Y-66683047D02*
X137576095Y-66873523D01*
X137576095Y-66873523D02*
X137623714Y-66968761D01*
X137623714Y-66968761D02*
X137718952Y-67064000D01*
X137718952Y-67064000D02*
X137861809Y-67111619D01*
X137861809Y-67111619D02*
X137957047Y-67111619D01*
X137957047Y-67111619D02*
X138099904Y-67064000D01*
X138099904Y-67064000D02*
X138147523Y-67016380D01*
X138147523Y-67016380D02*
X138147523Y-66683047D01*
X138147523Y-66683047D02*
X137957047Y-66683047D01*
X139147523Y-67111619D02*
X138814190Y-66635428D01*
X138576095Y-67111619D02*
X138576095Y-66111619D01*
X138576095Y-66111619D02*
X138957047Y-66111619D01*
X138957047Y-66111619D02*
X139052285Y-66159238D01*
X139052285Y-66159238D02*
X139099904Y-66206857D01*
X139099904Y-66206857D02*
X139147523Y-66302095D01*
X139147523Y-66302095D02*
X139147523Y-66444952D01*
X139147523Y-66444952D02*
X139099904Y-66540190D01*
X139099904Y-66540190D02*
X139052285Y-66587809D01*
X139052285Y-66587809D02*
X138957047Y-66635428D01*
X138957047Y-66635428D02*
X138576095Y-66635428D01*
X139576095Y-66587809D02*
X139909428Y-66587809D01*
X140052285Y-67111619D02*
X139576095Y-67111619D01*
X139576095Y-67111619D02*
X139576095Y-66111619D01*
X139576095Y-66111619D02*
X140052285Y-66111619D01*
X140480857Y-66587809D02*
X140814190Y-66587809D01*
X140957047Y-67111619D02*
X140480857Y-67111619D01*
X140480857Y-67111619D02*
X140480857Y-66111619D01*
X140480857Y-66111619D02*
X140957047Y-66111619D01*
X141385619Y-67111619D02*
X141385619Y-66111619D01*
X141385619Y-66111619D02*
X141957047Y-67111619D01*
X141957047Y-67111619D02*
X141957047Y-66111619D01*
X148053523Y-54665619D02*
X147720190Y-54189428D01*
X147482095Y-54665619D02*
X147482095Y-53665619D01*
X147482095Y-53665619D02*
X147863047Y-53665619D01*
X147863047Y-53665619D02*
X147958285Y-53713238D01*
X147958285Y-53713238D02*
X148005904Y-53760857D01*
X148005904Y-53760857D02*
X148053523Y-53856095D01*
X148053523Y-53856095D02*
X148053523Y-53998952D01*
X148053523Y-53998952D02*
X148005904Y-54094190D01*
X148005904Y-54094190D02*
X147958285Y-54141809D01*
X147958285Y-54141809D02*
X147863047Y-54189428D01*
X147863047Y-54189428D02*
X147482095Y-54189428D01*
X149005904Y-53713238D02*
X148910666Y-53665619D01*
X148910666Y-53665619D02*
X148767809Y-53665619D01*
X148767809Y-53665619D02*
X148624952Y-53713238D01*
X148624952Y-53713238D02*
X148529714Y-53808476D01*
X148529714Y-53808476D02*
X148482095Y-53903714D01*
X148482095Y-53903714D02*
X148434476Y-54094190D01*
X148434476Y-54094190D02*
X148434476Y-54237047D01*
X148434476Y-54237047D02*
X148482095Y-54427523D01*
X148482095Y-54427523D02*
X148529714Y-54522761D01*
X148529714Y-54522761D02*
X148624952Y-54618000D01*
X148624952Y-54618000D02*
X148767809Y-54665619D01*
X148767809Y-54665619D02*
X148863047Y-54665619D01*
X148863047Y-54665619D02*
X149005904Y-54618000D01*
X149005904Y-54618000D02*
X149053523Y-54570380D01*
X149053523Y-54570380D02*
X149053523Y-54237047D01*
X149053523Y-54237047D02*
X148863047Y-54237047D01*
X149815428Y-54141809D02*
X149958285Y-54189428D01*
X149958285Y-54189428D02*
X150005904Y-54237047D01*
X150005904Y-54237047D02*
X150053523Y-54332285D01*
X150053523Y-54332285D02*
X150053523Y-54475142D01*
X150053523Y-54475142D02*
X150005904Y-54570380D01*
X150005904Y-54570380D02*
X149958285Y-54618000D01*
X149958285Y-54618000D02*
X149863047Y-54665619D01*
X149863047Y-54665619D02*
X149482095Y-54665619D01*
X149482095Y-54665619D02*
X149482095Y-53665619D01*
X149482095Y-53665619D02*
X149815428Y-53665619D01*
X149815428Y-53665619D02*
X149910666Y-53713238D01*
X149910666Y-53713238D02*
X149958285Y-53760857D01*
X149958285Y-53760857D02*
X150005904Y-53856095D01*
X150005904Y-53856095D02*
X150005904Y-53951333D01*
X150005904Y-53951333D02*
X149958285Y-54046571D01*
X149958285Y-54046571D02*
X149910666Y-54094190D01*
X149910666Y-54094190D02*
X149815428Y-54141809D01*
X149815428Y-54141809D02*
X149482095Y-54141809D01*
X160007428Y-77509809D02*
X160150285Y-77557428D01*
X160150285Y-77557428D02*
X160197904Y-77605047D01*
X160197904Y-77605047D02*
X160245523Y-77700285D01*
X160245523Y-77700285D02*
X160245523Y-77843142D01*
X160245523Y-77843142D02*
X160197904Y-77938380D01*
X160197904Y-77938380D02*
X160150285Y-77986000D01*
X160150285Y-77986000D02*
X160055047Y-78033619D01*
X160055047Y-78033619D02*
X159674095Y-78033619D01*
X159674095Y-78033619D02*
X159674095Y-77033619D01*
X159674095Y-77033619D02*
X160007428Y-77033619D01*
X160007428Y-77033619D02*
X160102666Y-77081238D01*
X160102666Y-77081238D02*
X160150285Y-77128857D01*
X160150285Y-77128857D02*
X160197904Y-77224095D01*
X160197904Y-77224095D02*
X160197904Y-77319333D01*
X160197904Y-77319333D02*
X160150285Y-77414571D01*
X160150285Y-77414571D02*
X160102666Y-77462190D01*
X160102666Y-77462190D02*
X160007428Y-77509809D01*
X160007428Y-77509809D02*
X159674095Y-77509809D01*
X160674095Y-77033619D02*
X160674095Y-77843142D01*
X160674095Y-77843142D02*
X160721714Y-77938380D01*
X160721714Y-77938380D02*
X160769333Y-77986000D01*
X160769333Y-77986000D02*
X160864571Y-78033619D01*
X160864571Y-78033619D02*
X161055047Y-78033619D01*
X161055047Y-78033619D02*
X161150285Y-77986000D01*
X161150285Y-77986000D02*
X161197904Y-77938380D01*
X161197904Y-77938380D02*
X161245523Y-77843142D01*
X161245523Y-77843142D02*
X161245523Y-77033619D01*
X161578857Y-77033619D02*
X162150285Y-77033619D01*
X161864571Y-78033619D02*
X161864571Y-77033619D01*
X162340762Y-77033619D02*
X162912190Y-77033619D01*
X162626476Y-78033619D02*
X162626476Y-77033619D01*
X163436000Y-77033619D02*
X163626476Y-77033619D01*
X163626476Y-77033619D02*
X163721714Y-77081238D01*
X163721714Y-77081238D02*
X163816952Y-77176476D01*
X163816952Y-77176476D02*
X163864571Y-77366952D01*
X163864571Y-77366952D02*
X163864571Y-77700285D01*
X163864571Y-77700285D02*
X163816952Y-77890761D01*
X163816952Y-77890761D02*
X163721714Y-77986000D01*
X163721714Y-77986000D02*
X163626476Y-78033619D01*
X163626476Y-78033619D02*
X163436000Y-78033619D01*
X163436000Y-78033619D02*
X163340762Y-77986000D01*
X163340762Y-77986000D02*
X163245524Y-77890761D01*
X163245524Y-77890761D02*
X163197905Y-77700285D01*
X163197905Y-77700285D02*
X163197905Y-77366952D01*
X163197905Y-77366952D02*
X163245524Y-77176476D01*
X163245524Y-77176476D02*
X163340762Y-77081238D01*
X163340762Y-77081238D02*
X163436000Y-77033619D01*
X164293143Y-78033619D02*
X164293143Y-77033619D01*
X164293143Y-77033619D02*
X164864571Y-78033619D01*
X164864571Y-78033619D02*
X164864571Y-77033619D01*
X166055048Y-77128857D02*
X166102667Y-77081238D01*
X166102667Y-77081238D02*
X166197905Y-77033619D01*
X166197905Y-77033619D02*
X166436000Y-77033619D01*
X166436000Y-77033619D02*
X166531238Y-77081238D01*
X166531238Y-77081238D02*
X166578857Y-77128857D01*
X166578857Y-77128857D02*
X166626476Y-77224095D01*
X166626476Y-77224095D02*
X166626476Y-77319333D01*
X166626476Y-77319333D02*
X166578857Y-77462190D01*
X166578857Y-77462190D02*
X166007429Y-78033619D01*
X166007429Y-78033619D02*
X166626476Y-78033619D01*
X158519428Y-62829809D02*
X158662285Y-62877428D01*
X158662285Y-62877428D02*
X158709904Y-62925047D01*
X158709904Y-62925047D02*
X158757523Y-63020285D01*
X158757523Y-63020285D02*
X158757523Y-63163142D01*
X158757523Y-63163142D02*
X158709904Y-63258380D01*
X158709904Y-63258380D02*
X158662285Y-63306000D01*
X158662285Y-63306000D02*
X158567047Y-63353619D01*
X158567047Y-63353619D02*
X158186095Y-63353619D01*
X158186095Y-63353619D02*
X158186095Y-62353619D01*
X158186095Y-62353619D02*
X158519428Y-62353619D01*
X158519428Y-62353619D02*
X158614666Y-62401238D01*
X158614666Y-62401238D02*
X158662285Y-62448857D01*
X158662285Y-62448857D02*
X158709904Y-62544095D01*
X158709904Y-62544095D02*
X158709904Y-62639333D01*
X158709904Y-62639333D02*
X158662285Y-62734571D01*
X158662285Y-62734571D02*
X158614666Y-62782190D01*
X158614666Y-62782190D02*
X158519428Y-62829809D01*
X158519428Y-62829809D02*
X158186095Y-62829809D01*
X159186095Y-62353619D02*
X159186095Y-63163142D01*
X159186095Y-63163142D02*
X159233714Y-63258380D01*
X159233714Y-63258380D02*
X159281333Y-63306000D01*
X159281333Y-63306000D02*
X159376571Y-63353619D01*
X159376571Y-63353619D02*
X159567047Y-63353619D01*
X159567047Y-63353619D02*
X159662285Y-63306000D01*
X159662285Y-63306000D02*
X159709904Y-63258380D01*
X159709904Y-63258380D02*
X159757523Y-63163142D01*
X159757523Y-63163142D02*
X159757523Y-62353619D01*
X160090857Y-62353619D02*
X160662285Y-62353619D01*
X160376571Y-63353619D02*
X160376571Y-62353619D01*
X160852762Y-62353619D02*
X161424190Y-62353619D01*
X161138476Y-63353619D02*
X161138476Y-62353619D01*
X161948000Y-62353619D02*
X162138476Y-62353619D01*
X162138476Y-62353619D02*
X162233714Y-62401238D01*
X162233714Y-62401238D02*
X162328952Y-62496476D01*
X162328952Y-62496476D02*
X162376571Y-62686952D01*
X162376571Y-62686952D02*
X162376571Y-63020285D01*
X162376571Y-63020285D02*
X162328952Y-63210761D01*
X162328952Y-63210761D02*
X162233714Y-63306000D01*
X162233714Y-63306000D02*
X162138476Y-63353619D01*
X162138476Y-63353619D02*
X161948000Y-63353619D01*
X161948000Y-63353619D02*
X161852762Y-63306000D01*
X161852762Y-63306000D02*
X161757524Y-63210761D01*
X161757524Y-63210761D02*
X161709905Y-63020285D01*
X161709905Y-63020285D02*
X161709905Y-62686952D01*
X161709905Y-62686952D02*
X161757524Y-62496476D01*
X161757524Y-62496476D02*
X161852762Y-62401238D01*
X161852762Y-62401238D02*
X161948000Y-62353619D01*
X162805143Y-63353619D02*
X162805143Y-62353619D01*
X162805143Y-62353619D02*
X163376571Y-63353619D01*
X163376571Y-63353619D02*
X163376571Y-62353619D01*
X165138476Y-63353619D02*
X164567048Y-63353619D01*
X164852762Y-63353619D02*
X164852762Y-62353619D01*
X164852762Y-62353619D02*
X164757524Y-62496476D01*
X164757524Y-62496476D02*
X164662286Y-62591714D01*
X164662286Y-62591714D02*
X164567048Y-62639333D01*
X115494000Y-51232000D02*
X117144000Y-51232000D01*
X117744000Y-51232000D02*
X119394000Y-51232000D01*
X119994000Y-51232000D02*
X121644000Y-51232000D01*
X122244000Y-51232000D02*
X123894000Y-51232000D01*
X124494000Y-51232000D02*
X126144000Y-51232000D01*
X126744000Y-51232000D02*
X128394000Y-51232000D01*
X128994000Y-51232000D02*
X130644000Y-51232000D01*
X131244000Y-51232000D02*
X132894000Y-51232000D01*
X133494000Y-51232000D02*
X134036000Y-51232000D01*
X134036000Y-51232000D02*
X134036000Y-52882000D01*
X134036000Y-53482000D02*
X134036000Y-55132000D01*
X134036000Y-55732000D02*
X134036000Y-57382000D01*
X134036000Y-57982000D02*
X134036000Y-59632000D01*
X134036000Y-60232000D02*
X134036000Y-61882000D01*
X134036000Y-62482000D02*
X134036000Y-64132000D01*
X134036000Y-64732000D02*
X134036000Y-66382000D01*
X134036000Y-66726000D02*
X132386000Y-66726000D01*
X131786000Y-66726000D02*
X130136000Y-66726000D01*
X129536000Y-66726000D02*
X127886000Y-66726000D01*
X127286000Y-66726000D02*
X125636000Y-66726000D01*
X125036000Y-66726000D02*
X123386000Y-66726000D01*
X122786000Y-66726000D02*
X121136000Y-66726000D01*
X120536000Y-66726000D02*
X118886000Y-66726000D01*
X118286000Y-66726000D02*
X116636000Y-66726000D01*
X116036000Y-66726000D02*
X115494000Y-66726000D01*
X115494000Y-66726000D02*
X115494000Y-65076000D01*
X115494000Y-64476000D02*
X115494000Y-62826000D01*
X115494000Y-62226000D02*
X115494000Y-60576000D01*
X115494000Y-59976000D02*
X115494000Y-58326000D01*
X115494000Y-57726000D02*
X115494000Y-56076000D01*
X115494000Y-55476000D02*
X115494000Y-53826000D01*
X115494000Y-53226000D02*
X115494000Y-51576000D01*
X101016000Y-51232000D02*
X102666000Y-51232000D01*
X103266000Y-51232000D02*
X104916000Y-51232000D01*
X105516000Y-51232000D02*
X107166000Y-51232000D01*
X107766000Y-51232000D02*
X109416000Y-51232000D01*
X110016000Y-51232000D02*
X111666000Y-51232000D01*
X112266000Y-51232000D02*
X113916000Y-51232000D01*
X114478000Y-51232000D02*
X114478000Y-52882000D01*
X114478000Y-53482000D02*
X114478000Y-55132000D01*
X114478000Y-55732000D02*
X114478000Y-57382000D01*
X114478000Y-57982000D02*
X114478000Y-59632000D01*
X114478000Y-60232000D02*
X114478000Y-61882000D01*
X114478000Y-62482000D02*
X114478000Y-64132000D01*
X114478000Y-64732000D02*
X114478000Y-66382000D01*
X114478000Y-66472000D02*
X112828000Y-66472000D01*
X112228000Y-66472000D02*
X110578000Y-66472000D01*
X109978000Y-66472000D02*
X108328000Y-66472000D01*
X107728000Y-66472000D02*
X106078000Y-66472000D01*
X105478000Y-66472000D02*
X103828000Y-66472000D01*
X103228000Y-66472000D02*
X101578000Y-66472000D01*
X101016000Y-66472000D02*
X101016000Y-64822000D01*
X101016000Y-64222000D02*
X101016000Y-62572000D01*
X101016000Y-61972000D02*
X101016000Y-60322000D01*
X101016000Y-59722000D02*
X101016000Y-58072000D01*
X101016000Y-57472000D02*
X101016000Y-55822000D01*
X101016000Y-55222000D02*
X101016000Y-53572000D01*
X101016000Y-52972000D02*
X101016000Y-51322000D01*
X131432476Y-65794000D02*
X131575333Y-65841619D01*
X131575333Y-65841619D02*
X131813428Y-65841619D01*
X131813428Y-65841619D02*
X131908666Y-65794000D01*
X131908666Y-65794000D02*
X131956285Y-65746380D01*
X131956285Y-65746380D02*
X132003904Y-65651142D01*
X132003904Y-65651142D02*
X132003904Y-65555904D01*
X132003904Y-65555904D02*
X131956285Y-65460666D01*
X131956285Y-65460666D02*
X131908666Y-65413047D01*
X131908666Y-65413047D02*
X131813428Y-65365428D01*
X131813428Y-65365428D02*
X131622952Y-65317809D01*
X131622952Y-65317809D02*
X131527714Y-65270190D01*
X131527714Y-65270190D02*
X131480095Y-65222571D01*
X131480095Y-65222571D02*
X131432476Y-65127333D01*
X131432476Y-65127333D02*
X131432476Y-65032095D01*
X131432476Y-65032095D02*
X131480095Y-64936857D01*
X131480095Y-64936857D02*
X131527714Y-64889238D01*
X131527714Y-64889238D02*
X131622952Y-64841619D01*
X131622952Y-64841619D02*
X131861047Y-64841619D01*
X131861047Y-64841619D02*
X132003904Y-64889238D01*
X132432476Y-65841619D02*
X132432476Y-64841619D01*
X132432476Y-64841619D02*
X132813428Y-64841619D01*
X132813428Y-64841619D02*
X132908666Y-64889238D01*
X132908666Y-64889238D02*
X132956285Y-64936857D01*
X132956285Y-64936857D02*
X133003904Y-65032095D01*
X133003904Y-65032095D02*
X133003904Y-65174952D01*
X133003904Y-65174952D02*
X132956285Y-65270190D01*
X132956285Y-65270190D02*
X132908666Y-65317809D01*
X132908666Y-65317809D02*
X132813428Y-65365428D01*
X132813428Y-65365428D02*
X132432476Y-65365428D01*
X133432476Y-65841619D02*
X133432476Y-64841619D01*
X101762095Y-65841619D02*
X101762095Y-64841619D01*
X102190666Y-64936857D02*
X102238285Y-64889238D01*
X102238285Y-64889238D02*
X102333523Y-64841619D01*
X102333523Y-64841619D02*
X102571618Y-64841619D01*
X102571618Y-64841619D02*
X102666856Y-64889238D01*
X102666856Y-64889238D02*
X102714475Y-64936857D01*
X102714475Y-64936857D02*
X102762094Y-65032095D01*
X102762094Y-65032095D02*
X102762094Y-65127333D01*
X102762094Y-65127333D02*
X102714475Y-65270190D01*
X102714475Y-65270190D02*
X102143047Y-65841619D01*
X102143047Y-65841619D02*
X102762094Y-65841619D01*
X103762094Y-65746380D02*
X103714475Y-65794000D01*
X103714475Y-65794000D02*
X103571618Y-65841619D01*
X103571618Y-65841619D02*
X103476380Y-65841619D01*
X103476380Y-65841619D02*
X103333523Y-65794000D01*
X103333523Y-65794000D02*
X103238285Y-65698761D01*
X103238285Y-65698761D02*
X103190666Y-65603523D01*
X103190666Y-65603523D02*
X103143047Y-65413047D01*
X103143047Y-65413047D02*
X103143047Y-65270190D01*
X103143047Y-65270190D02*
X103190666Y-65079714D01*
X103190666Y-65079714D02*
X103238285Y-64984476D01*
X103238285Y-64984476D02*
X103333523Y-64889238D01*
X103333523Y-64889238D02*
X103476380Y-64841619D01*
X103476380Y-64841619D02*
X103571618Y-64841619D01*
X103571618Y-64841619D02*
X103714475Y-64889238D01*
X103714475Y-64889238D02*
X103762094Y-64936857D01*
X101016000Y-67742000D02*
X128448000Y-67742000D01*
X128448000Y-95174000D01*
X101016000Y-95174000D01*
X101016000Y-67742000D01*
%TO.C,D5*%
X145489905Y-63124619D02*
X145489905Y-62124619D01*
X145489905Y-62124619D02*
X145728000Y-62124619D01*
X145728000Y-62124619D02*
X145870857Y-62172238D01*
X145870857Y-62172238D02*
X145966095Y-62267476D01*
X145966095Y-62267476D02*
X146013714Y-62362714D01*
X146013714Y-62362714D02*
X146061333Y-62553190D01*
X146061333Y-62553190D02*
X146061333Y-62696047D01*
X146061333Y-62696047D02*
X146013714Y-62886523D01*
X146013714Y-62886523D02*
X145966095Y-62981761D01*
X145966095Y-62981761D02*
X145870857Y-63077000D01*
X145870857Y-63077000D02*
X145728000Y-63124619D01*
X145728000Y-63124619D02*
X145489905Y-63124619D01*
X146966095Y-62124619D02*
X146489905Y-62124619D01*
X146489905Y-62124619D02*
X146442286Y-62600809D01*
X146442286Y-62600809D02*
X146489905Y-62553190D01*
X146489905Y-62553190D02*
X146585143Y-62505571D01*
X146585143Y-62505571D02*
X146823238Y-62505571D01*
X146823238Y-62505571D02*
X146918476Y-62553190D01*
X146918476Y-62553190D02*
X146966095Y-62600809D01*
X146966095Y-62600809D02*
X147013714Y-62696047D01*
X147013714Y-62696047D02*
X147013714Y-62934142D01*
X147013714Y-62934142D02*
X146966095Y-63029380D01*
X146966095Y-63029380D02*
X146918476Y-63077000D01*
X146918476Y-63077000D02*
X146823238Y-63124619D01*
X146823238Y-63124619D02*
X146585143Y-63124619D01*
X146585143Y-63124619D02*
X146489905Y-63077000D01*
X146489905Y-63077000D02*
X146442286Y-63029380D01*
%TO.C,RV2*%
X148426761Y-85222619D02*
X148093428Y-84746428D01*
X147855333Y-85222619D02*
X147855333Y-84222619D01*
X147855333Y-84222619D02*
X148236285Y-84222619D01*
X148236285Y-84222619D02*
X148331523Y-84270238D01*
X148331523Y-84270238D02*
X148379142Y-84317857D01*
X148379142Y-84317857D02*
X148426761Y-84413095D01*
X148426761Y-84413095D02*
X148426761Y-84555952D01*
X148426761Y-84555952D02*
X148379142Y-84651190D01*
X148379142Y-84651190D02*
X148331523Y-84698809D01*
X148331523Y-84698809D02*
X148236285Y-84746428D01*
X148236285Y-84746428D02*
X147855333Y-84746428D01*
X148712476Y-84222619D02*
X149045809Y-85222619D01*
X149045809Y-85222619D02*
X149379142Y-84222619D01*
X149664857Y-84317857D02*
X149712476Y-84270238D01*
X149712476Y-84270238D02*
X149807714Y-84222619D01*
X149807714Y-84222619D02*
X150045809Y-84222619D01*
X150045809Y-84222619D02*
X150141047Y-84270238D01*
X150141047Y-84270238D02*
X150188666Y-84317857D01*
X150188666Y-84317857D02*
X150236285Y-84413095D01*
X150236285Y-84413095D02*
X150236285Y-84508333D01*
X150236285Y-84508333D02*
X150188666Y-84651190D01*
X150188666Y-84651190D02*
X149617238Y-85222619D01*
X149617238Y-85222619D02*
X150236285Y-85222619D01*
%TO.C,RV1*%
X136742761Y-85207619D02*
X136409428Y-84731428D01*
X136171333Y-85207619D02*
X136171333Y-84207619D01*
X136171333Y-84207619D02*
X136552285Y-84207619D01*
X136552285Y-84207619D02*
X136647523Y-84255238D01*
X136647523Y-84255238D02*
X136695142Y-84302857D01*
X136695142Y-84302857D02*
X136742761Y-84398095D01*
X136742761Y-84398095D02*
X136742761Y-84540952D01*
X136742761Y-84540952D02*
X136695142Y-84636190D01*
X136695142Y-84636190D02*
X136647523Y-84683809D01*
X136647523Y-84683809D02*
X136552285Y-84731428D01*
X136552285Y-84731428D02*
X136171333Y-84731428D01*
X137028476Y-84207619D02*
X137361809Y-85207619D01*
X137361809Y-85207619D02*
X137695142Y-84207619D01*
X138552285Y-85207619D02*
X137980857Y-85207619D01*
X138266571Y-85207619D02*
X138266571Y-84207619D01*
X138266571Y-84207619D02*
X138171333Y-84350476D01*
X138171333Y-84350476D02*
X138076095Y-84445714D01*
X138076095Y-84445714D02*
X137980857Y-84493333D01*
%TO.C,J4*%
X143862666Y-50948619D02*
X143862666Y-51662904D01*
X143862666Y-51662904D02*
X143815047Y-51805761D01*
X143815047Y-51805761D02*
X143719809Y-51901000D01*
X143719809Y-51901000D02*
X143576952Y-51948619D01*
X143576952Y-51948619D02*
X143481714Y-51948619D01*
X144767428Y-51281952D02*
X144767428Y-51948619D01*
X144529333Y-50901000D02*
X144291238Y-51615285D01*
X144291238Y-51615285D02*
X144910285Y-51615285D01*
%TO.C,J3*%
X147932619Y-97793333D02*
X148646904Y-97793333D01*
X148646904Y-97793333D02*
X148789761Y-97840952D01*
X148789761Y-97840952D02*
X148885000Y-97936190D01*
X148885000Y-97936190D02*
X148932619Y-98079047D01*
X148932619Y-98079047D02*
X148932619Y-98174285D01*
X147932619Y-97412380D02*
X147932619Y-96793333D01*
X147932619Y-96793333D02*
X148313571Y-97126666D01*
X148313571Y-97126666D02*
X148313571Y-96983809D01*
X148313571Y-96983809D02*
X148361190Y-96888571D01*
X148361190Y-96888571D02*
X148408809Y-96840952D01*
X148408809Y-96840952D02*
X148504047Y-96793333D01*
X148504047Y-96793333D02*
X148742142Y-96793333D01*
X148742142Y-96793333D02*
X148837380Y-96840952D01*
X148837380Y-96840952D02*
X148885000Y-96888571D01*
X148885000Y-96888571D02*
X148932619Y-96983809D01*
X148932619Y-96983809D02*
X148932619Y-97269523D01*
X148932619Y-97269523D02*
X148885000Y-97364761D01*
X148885000Y-97364761D02*
X148837380Y-97412380D01*
%TO.C,J2*%
X115668666Y-47392619D02*
X115668666Y-48106904D01*
X115668666Y-48106904D02*
X115621047Y-48249761D01*
X115621047Y-48249761D02*
X115525809Y-48345000D01*
X115525809Y-48345000D02*
X115382952Y-48392619D01*
X115382952Y-48392619D02*
X115287714Y-48392619D01*
X116097238Y-47487857D02*
X116144857Y-47440238D01*
X116144857Y-47440238D02*
X116240095Y-47392619D01*
X116240095Y-47392619D02*
X116478190Y-47392619D01*
X116478190Y-47392619D02*
X116573428Y-47440238D01*
X116573428Y-47440238D02*
X116621047Y-47487857D01*
X116621047Y-47487857D02*
X116668666Y-47583095D01*
X116668666Y-47583095D02*
X116668666Y-47678333D01*
X116668666Y-47678333D02*
X116621047Y-47821190D01*
X116621047Y-47821190D02*
X116049619Y-48392619D01*
X116049619Y-48392619D02*
X116668666Y-48392619D01*
%TO.C,J1*%
X125072619Y-97793333D02*
X125786904Y-97793333D01*
X125786904Y-97793333D02*
X125929761Y-97840952D01*
X125929761Y-97840952D02*
X126025000Y-97936190D01*
X126025000Y-97936190D02*
X126072619Y-98079047D01*
X126072619Y-98079047D02*
X126072619Y-98174285D01*
X126072619Y-96793333D02*
X126072619Y-97364761D01*
X126072619Y-97079047D02*
X125072619Y-97079047D01*
X125072619Y-97079047D02*
X125215476Y-97174285D01*
X125215476Y-97174285D02*
X125310714Y-97269523D01*
X125310714Y-97269523D02*
X125358333Y-97364761D01*
%TO.C,R10*%
X157880619Y-73210857D02*
X157404428Y-73544190D01*
X157880619Y-73782285D02*
X156880619Y-73782285D01*
X156880619Y-73782285D02*
X156880619Y-73401333D01*
X156880619Y-73401333D02*
X156928238Y-73306095D01*
X156928238Y-73306095D02*
X156975857Y-73258476D01*
X156975857Y-73258476D02*
X157071095Y-73210857D01*
X157071095Y-73210857D02*
X157213952Y-73210857D01*
X157213952Y-73210857D02*
X157309190Y-73258476D01*
X157309190Y-73258476D02*
X157356809Y-73306095D01*
X157356809Y-73306095D02*
X157404428Y-73401333D01*
X157404428Y-73401333D02*
X157404428Y-73782285D01*
X157880619Y-72258476D02*
X157880619Y-72829904D01*
X157880619Y-72544190D02*
X156880619Y-72544190D01*
X156880619Y-72544190D02*
X157023476Y-72639428D01*
X157023476Y-72639428D02*
X157118714Y-72734666D01*
X157118714Y-72734666D02*
X157166333Y-72829904D01*
X156880619Y-71639428D02*
X156880619Y-71544190D01*
X156880619Y-71544190D02*
X156928238Y-71448952D01*
X156928238Y-71448952D02*
X156975857Y-71401333D01*
X156975857Y-71401333D02*
X157071095Y-71353714D01*
X157071095Y-71353714D02*
X157261571Y-71306095D01*
X157261571Y-71306095D02*
X157499666Y-71306095D01*
X157499666Y-71306095D02*
X157690142Y-71353714D01*
X157690142Y-71353714D02*
X157785380Y-71401333D01*
X157785380Y-71401333D02*
X157833000Y-71448952D01*
X157833000Y-71448952D02*
X157880619Y-71544190D01*
X157880619Y-71544190D02*
X157880619Y-71639428D01*
X157880619Y-71639428D02*
X157833000Y-71734666D01*
X157833000Y-71734666D02*
X157785380Y-71782285D01*
X157785380Y-71782285D02*
X157690142Y-71829904D01*
X157690142Y-71829904D02*
X157499666Y-71877523D01*
X157499666Y-71877523D02*
X157261571Y-71877523D01*
X157261571Y-71877523D02*
X157071095Y-71829904D01*
X157071095Y-71829904D02*
X156975857Y-71782285D01*
X156975857Y-71782285D02*
X156928238Y-71734666D01*
X156928238Y-71734666D02*
X156880619Y-71639428D01*
%TO.C,R4*%
X156342619Y-58764666D02*
X155866428Y-59097999D01*
X156342619Y-59336094D02*
X155342619Y-59336094D01*
X155342619Y-59336094D02*
X155342619Y-58955142D01*
X155342619Y-58955142D02*
X155390238Y-58859904D01*
X155390238Y-58859904D02*
X155437857Y-58812285D01*
X155437857Y-58812285D02*
X155533095Y-58764666D01*
X155533095Y-58764666D02*
X155675952Y-58764666D01*
X155675952Y-58764666D02*
X155771190Y-58812285D01*
X155771190Y-58812285D02*
X155818809Y-58859904D01*
X155818809Y-58859904D02*
X155866428Y-58955142D01*
X155866428Y-58955142D02*
X155866428Y-59336094D01*
X155675952Y-57907523D02*
X156342619Y-57907523D01*
X155295000Y-58145618D02*
X156009285Y-58383713D01*
X156009285Y-58383713D02*
X156009285Y-57764666D01*
%TO.C,R3*%
X146056619Y-74004666D02*
X145580428Y-74337999D01*
X146056619Y-74576094D02*
X145056619Y-74576094D01*
X145056619Y-74576094D02*
X145056619Y-74195142D01*
X145056619Y-74195142D02*
X145104238Y-74099904D01*
X145104238Y-74099904D02*
X145151857Y-74052285D01*
X145151857Y-74052285D02*
X145247095Y-74004666D01*
X145247095Y-74004666D02*
X145389952Y-74004666D01*
X145389952Y-74004666D02*
X145485190Y-74052285D01*
X145485190Y-74052285D02*
X145532809Y-74099904D01*
X145532809Y-74099904D02*
X145580428Y-74195142D01*
X145580428Y-74195142D02*
X145580428Y-74576094D01*
X145056619Y-73671332D02*
X145056619Y-73052285D01*
X145056619Y-73052285D02*
X145437571Y-73385618D01*
X145437571Y-73385618D02*
X145437571Y-73242761D01*
X145437571Y-73242761D02*
X145485190Y-73147523D01*
X145485190Y-73147523D02*
X145532809Y-73099904D01*
X145532809Y-73099904D02*
X145628047Y-73052285D01*
X145628047Y-73052285D02*
X145866142Y-73052285D01*
X145866142Y-73052285D02*
X145961380Y-73099904D01*
X145961380Y-73099904D02*
X146009000Y-73147523D01*
X146009000Y-73147523D02*
X146056619Y-73242761D01*
X146056619Y-73242761D02*
X146056619Y-73528475D01*
X146056619Y-73528475D02*
X146009000Y-73623713D01*
X146009000Y-73623713D02*
X145961380Y-73671332D01*
%TO.C,R2*%
X149372619Y-74004666D02*
X148896428Y-74337999D01*
X149372619Y-74576094D02*
X148372619Y-74576094D01*
X148372619Y-74576094D02*
X148372619Y-74195142D01*
X148372619Y-74195142D02*
X148420238Y-74099904D01*
X148420238Y-74099904D02*
X148467857Y-74052285D01*
X148467857Y-74052285D02*
X148563095Y-74004666D01*
X148563095Y-74004666D02*
X148705952Y-74004666D01*
X148705952Y-74004666D02*
X148801190Y-74052285D01*
X148801190Y-74052285D02*
X148848809Y-74099904D01*
X148848809Y-74099904D02*
X148896428Y-74195142D01*
X148896428Y-74195142D02*
X148896428Y-74576094D01*
X148467857Y-73623713D02*
X148420238Y-73576094D01*
X148420238Y-73576094D02*
X148372619Y-73480856D01*
X148372619Y-73480856D02*
X148372619Y-73242761D01*
X148372619Y-73242761D02*
X148420238Y-73147523D01*
X148420238Y-73147523D02*
X148467857Y-73099904D01*
X148467857Y-73099904D02*
X148563095Y-73052285D01*
X148563095Y-73052285D02*
X148658333Y-73052285D01*
X148658333Y-73052285D02*
X148801190Y-73099904D01*
X148801190Y-73099904D02*
X149372619Y-73671332D01*
X149372619Y-73671332D02*
X149372619Y-73052285D01*
%TO.C,R1*%
X152942619Y-74004666D02*
X152466428Y-74337999D01*
X152942619Y-74576094D02*
X151942619Y-74576094D01*
X151942619Y-74576094D02*
X151942619Y-74195142D01*
X151942619Y-74195142D02*
X151990238Y-74099904D01*
X151990238Y-74099904D02*
X152037857Y-74052285D01*
X152037857Y-74052285D02*
X152133095Y-74004666D01*
X152133095Y-74004666D02*
X152275952Y-74004666D01*
X152275952Y-74004666D02*
X152371190Y-74052285D01*
X152371190Y-74052285D02*
X152418809Y-74099904D01*
X152418809Y-74099904D02*
X152466428Y-74195142D01*
X152466428Y-74195142D02*
X152466428Y-74576094D01*
X152942619Y-73052285D02*
X152942619Y-73623713D01*
X152942619Y-73337999D02*
X151942619Y-73337999D01*
X151942619Y-73337999D02*
X152085476Y-73433237D01*
X152085476Y-73433237D02*
X152180714Y-73528475D01*
X152180714Y-73528475D02*
X152228333Y-73623713D01*
%TO.C,R13*%
X136784619Y-59240857D02*
X136308428Y-59574190D01*
X136784619Y-59812285D02*
X135784619Y-59812285D01*
X135784619Y-59812285D02*
X135784619Y-59431333D01*
X135784619Y-59431333D02*
X135832238Y-59336095D01*
X135832238Y-59336095D02*
X135879857Y-59288476D01*
X135879857Y-59288476D02*
X135975095Y-59240857D01*
X135975095Y-59240857D02*
X136117952Y-59240857D01*
X136117952Y-59240857D02*
X136213190Y-59288476D01*
X136213190Y-59288476D02*
X136260809Y-59336095D01*
X136260809Y-59336095D02*
X136308428Y-59431333D01*
X136308428Y-59431333D02*
X136308428Y-59812285D01*
X136784619Y-58288476D02*
X136784619Y-58859904D01*
X136784619Y-58574190D02*
X135784619Y-58574190D01*
X135784619Y-58574190D02*
X135927476Y-58669428D01*
X135927476Y-58669428D02*
X136022714Y-58764666D01*
X136022714Y-58764666D02*
X136070333Y-58859904D01*
X135784619Y-57955142D02*
X135784619Y-57336095D01*
X135784619Y-57336095D02*
X136165571Y-57669428D01*
X136165571Y-57669428D02*
X136165571Y-57526571D01*
X136165571Y-57526571D02*
X136213190Y-57431333D01*
X136213190Y-57431333D02*
X136260809Y-57383714D01*
X136260809Y-57383714D02*
X136356047Y-57336095D01*
X136356047Y-57336095D02*
X136594142Y-57336095D01*
X136594142Y-57336095D02*
X136689380Y-57383714D01*
X136689380Y-57383714D02*
X136737000Y-57431333D01*
X136737000Y-57431333D02*
X136784619Y-57526571D01*
X136784619Y-57526571D02*
X136784619Y-57812285D01*
X136784619Y-57812285D02*
X136737000Y-57907523D01*
X136737000Y-57907523D02*
X136689380Y-57955142D01*
%TO.C,R12*%
X140340619Y-59240857D02*
X139864428Y-59574190D01*
X140340619Y-59812285D02*
X139340619Y-59812285D01*
X139340619Y-59812285D02*
X139340619Y-59431333D01*
X139340619Y-59431333D02*
X139388238Y-59336095D01*
X139388238Y-59336095D02*
X139435857Y-59288476D01*
X139435857Y-59288476D02*
X139531095Y-59240857D01*
X139531095Y-59240857D02*
X139673952Y-59240857D01*
X139673952Y-59240857D02*
X139769190Y-59288476D01*
X139769190Y-59288476D02*
X139816809Y-59336095D01*
X139816809Y-59336095D02*
X139864428Y-59431333D01*
X139864428Y-59431333D02*
X139864428Y-59812285D01*
X140340619Y-58288476D02*
X140340619Y-58859904D01*
X140340619Y-58574190D02*
X139340619Y-58574190D01*
X139340619Y-58574190D02*
X139483476Y-58669428D01*
X139483476Y-58669428D02*
X139578714Y-58764666D01*
X139578714Y-58764666D02*
X139626333Y-58859904D01*
X139435857Y-57907523D02*
X139388238Y-57859904D01*
X139388238Y-57859904D02*
X139340619Y-57764666D01*
X139340619Y-57764666D02*
X139340619Y-57526571D01*
X139340619Y-57526571D02*
X139388238Y-57431333D01*
X139388238Y-57431333D02*
X139435857Y-57383714D01*
X139435857Y-57383714D02*
X139531095Y-57336095D01*
X139531095Y-57336095D02*
X139626333Y-57336095D01*
X139626333Y-57336095D02*
X139769190Y-57383714D01*
X139769190Y-57383714D02*
X140340619Y-57955142D01*
X140340619Y-57955142D02*
X140340619Y-57336095D01*
%TO.C,R11*%
X143896619Y-59494857D02*
X143420428Y-59828190D01*
X143896619Y-60066285D02*
X142896619Y-60066285D01*
X142896619Y-60066285D02*
X142896619Y-59685333D01*
X142896619Y-59685333D02*
X142944238Y-59590095D01*
X142944238Y-59590095D02*
X142991857Y-59542476D01*
X142991857Y-59542476D02*
X143087095Y-59494857D01*
X143087095Y-59494857D02*
X143229952Y-59494857D01*
X143229952Y-59494857D02*
X143325190Y-59542476D01*
X143325190Y-59542476D02*
X143372809Y-59590095D01*
X143372809Y-59590095D02*
X143420428Y-59685333D01*
X143420428Y-59685333D02*
X143420428Y-60066285D01*
X143896619Y-58542476D02*
X143896619Y-59113904D01*
X143896619Y-58828190D02*
X142896619Y-58828190D01*
X142896619Y-58828190D02*
X143039476Y-58923428D01*
X143039476Y-58923428D02*
X143134714Y-59018666D01*
X143134714Y-59018666D02*
X143182333Y-59113904D01*
X143896619Y-57590095D02*
X143896619Y-58161523D01*
X143896619Y-57875809D02*
X142896619Y-57875809D01*
X142896619Y-57875809D02*
X143039476Y-57971047D01*
X143039476Y-57971047D02*
X143134714Y-58066285D01*
X143134714Y-58066285D02*
X143182333Y-58161523D01*
%TO.C,SW3*%
X163407000Y-72631332D02*
X163454619Y-72488475D01*
X163454619Y-72488475D02*
X163454619Y-72250380D01*
X163454619Y-72250380D02*
X163407000Y-72155142D01*
X163407000Y-72155142D02*
X163359380Y-72107523D01*
X163359380Y-72107523D02*
X163264142Y-72059904D01*
X163264142Y-72059904D02*
X163168904Y-72059904D01*
X163168904Y-72059904D02*
X163073666Y-72107523D01*
X163073666Y-72107523D02*
X163026047Y-72155142D01*
X163026047Y-72155142D02*
X162978428Y-72250380D01*
X162978428Y-72250380D02*
X162930809Y-72440856D01*
X162930809Y-72440856D02*
X162883190Y-72536094D01*
X162883190Y-72536094D02*
X162835571Y-72583713D01*
X162835571Y-72583713D02*
X162740333Y-72631332D01*
X162740333Y-72631332D02*
X162645095Y-72631332D01*
X162645095Y-72631332D02*
X162549857Y-72583713D01*
X162549857Y-72583713D02*
X162502238Y-72536094D01*
X162502238Y-72536094D02*
X162454619Y-72440856D01*
X162454619Y-72440856D02*
X162454619Y-72202761D01*
X162454619Y-72202761D02*
X162502238Y-72059904D01*
X162454619Y-71726570D02*
X163454619Y-71488475D01*
X163454619Y-71488475D02*
X162740333Y-71297999D01*
X162740333Y-71297999D02*
X163454619Y-71107523D01*
X163454619Y-71107523D02*
X162454619Y-70869428D01*
X162454619Y-70583713D02*
X162454619Y-69964666D01*
X162454619Y-69964666D02*
X162835571Y-70297999D01*
X162835571Y-70297999D02*
X162835571Y-70155142D01*
X162835571Y-70155142D02*
X162883190Y-70059904D01*
X162883190Y-70059904D02*
X162930809Y-70012285D01*
X162930809Y-70012285D02*
X163026047Y-69964666D01*
X163026047Y-69964666D02*
X163264142Y-69964666D01*
X163264142Y-69964666D02*
X163359380Y-70012285D01*
X163359380Y-70012285D02*
X163407000Y-70059904D01*
X163407000Y-70059904D02*
X163454619Y-70155142D01*
X163454619Y-70155142D02*
X163454619Y-70440856D01*
X163454619Y-70440856D02*
X163407000Y-70536094D01*
X163407000Y-70536094D02*
X163359380Y-70583713D01*
%TO.C,SW1*%
X161919000Y-58459332D02*
X161966619Y-58316475D01*
X161966619Y-58316475D02*
X161966619Y-58078380D01*
X161966619Y-58078380D02*
X161919000Y-57983142D01*
X161919000Y-57983142D02*
X161871380Y-57935523D01*
X161871380Y-57935523D02*
X161776142Y-57887904D01*
X161776142Y-57887904D02*
X161680904Y-57887904D01*
X161680904Y-57887904D02*
X161585666Y-57935523D01*
X161585666Y-57935523D02*
X161538047Y-57983142D01*
X161538047Y-57983142D02*
X161490428Y-58078380D01*
X161490428Y-58078380D02*
X161442809Y-58268856D01*
X161442809Y-58268856D02*
X161395190Y-58364094D01*
X161395190Y-58364094D02*
X161347571Y-58411713D01*
X161347571Y-58411713D02*
X161252333Y-58459332D01*
X161252333Y-58459332D02*
X161157095Y-58459332D01*
X161157095Y-58459332D02*
X161061857Y-58411713D01*
X161061857Y-58411713D02*
X161014238Y-58364094D01*
X161014238Y-58364094D02*
X160966619Y-58268856D01*
X160966619Y-58268856D02*
X160966619Y-58030761D01*
X160966619Y-58030761D02*
X161014238Y-57887904D01*
X160966619Y-57554570D02*
X161966619Y-57316475D01*
X161966619Y-57316475D02*
X161252333Y-57125999D01*
X161252333Y-57125999D02*
X161966619Y-56935523D01*
X161966619Y-56935523D02*
X160966619Y-56697428D01*
X161966619Y-55792666D02*
X161966619Y-56364094D01*
X161966619Y-56078380D02*
X160966619Y-56078380D01*
X160966619Y-56078380D02*
X161109476Y-56173618D01*
X161109476Y-56173618D02*
X161204714Y-56268856D01*
X161204714Y-56268856D02*
X161252333Y-56364094D01*
%TO.C,J11*%
X107590619Y-70329523D02*
X108304904Y-70329523D01*
X108304904Y-70329523D02*
X108447761Y-70377142D01*
X108447761Y-70377142D02*
X108543000Y-70472380D01*
X108543000Y-70472380D02*
X108590619Y-70615237D01*
X108590619Y-70615237D02*
X108590619Y-70710475D01*
X108590619Y-69329523D02*
X108590619Y-69900951D01*
X108590619Y-69615237D02*
X107590619Y-69615237D01*
X107590619Y-69615237D02*
X107733476Y-69710475D01*
X107733476Y-69710475D02*
X107828714Y-69805713D01*
X107828714Y-69805713D02*
X107876333Y-69900951D01*
X108590619Y-68377142D02*
X108590619Y-68948570D01*
X108590619Y-68662856D02*
X107590619Y-68662856D01*
X107590619Y-68662856D02*
X107733476Y-68758094D01*
X107733476Y-68758094D02*
X107828714Y-68853332D01*
X107828714Y-68853332D02*
X107876333Y-68948570D01*
%TO.C,J10*%
X129180619Y-62261523D02*
X129894904Y-62261523D01*
X129894904Y-62261523D02*
X130037761Y-62309142D01*
X130037761Y-62309142D02*
X130133000Y-62404380D01*
X130133000Y-62404380D02*
X130180619Y-62547237D01*
X130180619Y-62547237D02*
X130180619Y-62642475D01*
X130180619Y-61261523D02*
X130180619Y-61832951D01*
X130180619Y-61547237D02*
X129180619Y-61547237D01*
X129180619Y-61547237D02*
X129323476Y-61642475D01*
X129323476Y-61642475D02*
X129418714Y-61737713D01*
X129418714Y-61737713D02*
X129466333Y-61832951D01*
X129180619Y-60642475D02*
X129180619Y-60547237D01*
X129180619Y-60547237D02*
X129228238Y-60451999D01*
X129228238Y-60451999D02*
X129275857Y-60404380D01*
X129275857Y-60404380D02*
X129371095Y-60356761D01*
X129371095Y-60356761D02*
X129561571Y-60309142D01*
X129561571Y-60309142D02*
X129799666Y-60309142D01*
X129799666Y-60309142D02*
X129990142Y-60356761D01*
X129990142Y-60356761D02*
X130085380Y-60404380D01*
X130085380Y-60404380D02*
X130133000Y-60451999D01*
X130133000Y-60451999D02*
X130180619Y-60547237D01*
X130180619Y-60547237D02*
X130180619Y-60642475D01*
X130180619Y-60642475D02*
X130133000Y-60737713D01*
X130133000Y-60737713D02*
X130085380Y-60785332D01*
X130085380Y-60785332D02*
X129990142Y-60832951D01*
X129990142Y-60832951D02*
X129799666Y-60880570D01*
X129799666Y-60880570D02*
X129561571Y-60880570D01*
X129561571Y-60880570D02*
X129371095Y-60832951D01*
X129371095Y-60832951D02*
X129275857Y-60785332D01*
X129275857Y-60785332D02*
X129228238Y-60737713D01*
X129228238Y-60737713D02*
X129180619Y-60642475D01*
%TO.C,J9*%
X112924619Y-60709333D02*
X113638904Y-60709333D01*
X113638904Y-60709333D02*
X113781761Y-60756952D01*
X113781761Y-60756952D02*
X113877000Y-60852190D01*
X113877000Y-60852190D02*
X113924619Y-60995047D01*
X113924619Y-60995047D02*
X113924619Y-61090285D01*
X113924619Y-60185523D02*
X113924619Y-59995047D01*
X113924619Y-59995047D02*
X113877000Y-59899809D01*
X113877000Y-59899809D02*
X113829380Y-59852190D01*
X113829380Y-59852190D02*
X113686523Y-59756952D01*
X113686523Y-59756952D02*
X113496047Y-59709333D01*
X113496047Y-59709333D02*
X113115095Y-59709333D01*
X113115095Y-59709333D02*
X113019857Y-59756952D01*
X113019857Y-59756952D02*
X112972238Y-59804571D01*
X112972238Y-59804571D02*
X112924619Y-59899809D01*
X112924619Y-59899809D02*
X112924619Y-60090285D01*
X112924619Y-60090285D02*
X112972238Y-60185523D01*
X112972238Y-60185523D02*
X113019857Y-60233142D01*
X113019857Y-60233142D02*
X113115095Y-60280761D01*
X113115095Y-60280761D02*
X113353190Y-60280761D01*
X113353190Y-60280761D02*
X113448428Y-60233142D01*
X113448428Y-60233142D02*
X113496047Y-60185523D01*
X113496047Y-60185523D02*
X113543666Y-60090285D01*
X113543666Y-60090285D02*
X113543666Y-59899809D01*
X113543666Y-59899809D02*
X113496047Y-59804571D01*
X113496047Y-59804571D02*
X113448428Y-59756952D01*
X113448428Y-59756952D02*
X113353190Y-59709333D01*
%TO.C,J8*%
X101494619Y-53851333D02*
X102208904Y-53851333D01*
X102208904Y-53851333D02*
X102351761Y-53898952D01*
X102351761Y-53898952D02*
X102447000Y-53994190D01*
X102447000Y-53994190D02*
X102494619Y-54137047D01*
X102494619Y-54137047D02*
X102494619Y-54232285D01*
X101923190Y-53232285D02*
X101875571Y-53327523D01*
X101875571Y-53327523D02*
X101827952Y-53375142D01*
X101827952Y-53375142D02*
X101732714Y-53422761D01*
X101732714Y-53422761D02*
X101685095Y-53422761D01*
X101685095Y-53422761D02*
X101589857Y-53375142D01*
X101589857Y-53375142D02*
X101542238Y-53327523D01*
X101542238Y-53327523D02*
X101494619Y-53232285D01*
X101494619Y-53232285D02*
X101494619Y-53041809D01*
X101494619Y-53041809D02*
X101542238Y-52946571D01*
X101542238Y-52946571D02*
X101589857Y-52898952D01*
X101589857Y-52898952D02*
X101685095Y-52851333D01*
X101685095Y-52851333D02*
X101732714Y-52851333D01*
X101732714Y-52851333D02*
X101827952Y-52898952D01*
X101827952Y-52898952D02*
X101875571Y-52946571D01*
X101875571Y-52946571D02*
X101923190Y-53041809D01*
X101923190Y-53041809D02*
X101923190Y-53232285D01*
X101923190Y-53232285D02*
X101970809Y-53327523D01*
X101970809Y-53327523D02*
X102018428Y-53375142D01*
X102018428Y-53375142D02*
X102113666Y-53422761D01*
X102113666Y-53422761D02*
X102304142Y-53422761D01*
X102304142Y-53422761D02*
X102399380Y-53375142D01*
X102399380Y-53375142D02*
X102447000Y-53327523D01*
X102447000Y-53327523D02*
X102494619Y-53232285D01*
X102494619Y-53232285D02*
X102494619Y-53041809D01*
X102494619Y-53041809D02*
X102447000Y-52946571D01*
X102447000Y-52946571D02*
X102399380Y-52898952D01*
X102399380Y-52898952D02*
X102304142Y-52851333D01*
X102304142Y-52851333D02*
X102113666Y-52851333D01*
X102113666Y-52851333D02*
X102018428Y-52898952D01*
X102018428Y-52898952D02*
X101970809Y-52946571D01*
X101970809Y-52946571D02*
X101923190Y-53041809D01*
%TO.C,J7*%
X132736619Y-54105333D02*
X133450904Y-54105333D01*
X133450904Y-54105333D02*
X133593761Y-54152952D01*
X133593761Y-54152952D02*
X133689000Y-54248190D01*
X133689000Y-54248190D02*
X133736619Y-54391047D01*
X133736619Y-54391047D02*
X133736619Y-54486285D01*
X132736619Y-53724380D02*
X132736619Y-53057714D01*
X132736619Y-53057714D02*
X133736619Y-53486285D01*
%TO.C,J6*%
X166468666Y-89556619D02*
X166468666Y-90270904D01*
X166468666Y-90270904D02*
X166421047Y-90413761D01*
X166421047Y-90413761D02*
X166325809Y-90509000D01*
X166325809Y-90509000D02*
X166182952Y-90556619D01*
X166182952Y-90556619D02*
X166087714Y-90556619D01*
X167373428Y-89556619D02*
X167182952Y-89556619D01*
X167182952Y-89556619D02*
X167087714Y-89604238D01*
X167087714Y-89604238D02*
X167040095Y-89651857D01*
X167040095Y-89651857D02*
X166944857Y-89794714D01*
X166944857Y-89794714D02*
X166897238Y-89985190D01*
X166897238Y-89985190D02*
X166897238Y-90366142D01*
X166897238Y-90366142D02*
X166944857Y-90461380D01*
X166944857Y-90461380D02*
X166992476Y-90509000D01*
X166992476Y-90509000D02*
X167087714Y-90556619D01*
X167087714Y-90556619D02*
X167278190Y-90556619D01*
X167278190Y-90556619D02*
X167373428Y-90509000D01*
X167373428Y-90509000D02*
X167421047Y-90461380D01*
X167421047Y-90461380D02*
X167468666Y-90366142D01*
X167468666Y-90366142D02*
X167468666Y-90128047D01*
X167468666Y-90128047D02*
X167421047Y-90032809D01*
X167421047Y-90032809D02*
X167373428Y-89985190D01*
X167373428Y-89985190D02*
X167278190Y-89937571D01*
X167278190Y-89937571D02*
X167087714Y-89937571D01*
X167087714Y-89937571D02*
X166992476Y-89985190D01*
X166992476Y-89985190D02*
X166944857Y-90032809D01*
X166944857Y-90032809D02*
X166897238Y-90128047D01*
%TO.C,J5*%
X166468666Y-84730619D02*
X166468666Y-85444904D01*
X166468666Y-85444904D02*
X166421047Y-85587761D01*
X166421047Y-85587761D02*
X166325809Y-85683000D01*
X166325809Y-85683000D02*
X166182952Y-85730619D01*
X166182952Y-85730619D02*
X166087714Y-85730619D01*
X167421047Y-84730619D02*
X166944857Y-84730619D01*
X166944857Y-84730619D02*
X166897238Y-85206809D01*
X166897238Y-85206809D02*
X166944857Y-85159190D01*
X166944857Y-85159190D02*
X167040095Y-85111571D01*
X167040095Y-85111571D02*
X167278190Y-85111571D01*
X167278190Y-85111571D02*
X167373428Y-85159190D01*
X167373428Y-85159190D02*
X167421047Y-85206809D01*
X167421047Y-85206809D02*
X167468666Y-85302047D01*
X167468666Y-85302047D02*
X167468666Y-85540142D01*
X167468666Y-85540142D02*
X167421047Y-85635380D01*
X167421047Y-85635380D02*
X167373428Y-85683000D01*
X167373428Y-85683000D02*
X167278190Y-85730619D01*
X167278190Y-85730619D02*
X167040095Y-85730619D01*
X167040095Y-85730619D02*
X166944857Y-85683000D01*
X166944857Y-85683000D02*
X166897238Y-85635380D01*
%TO.C,D3*%
X129487905Y-78618619D02*
X129487905Y-77618619D01*
X129487905Y-77618619D02*
X129726000Y-77618619D01*
X129726000Y-77618619D02*
X129868857Y-77666238D01*
X129868857Y-77666238D02*
X129964095Y-77761476D01*
X129964095Y-77761476D02*
X130011714Y-77856714D01*
X130011714Y-77856714D02*
X130059333Y-78047190D01*
X130059333Y-78047190D02*
X130059333Y-78190047D01*
X130059333Y-78190047D02*
X130011714Y-78380523D01*
X130011714Y-78380523D02*
X129964095Y-78475761D01*
X129964095Y-78475761D02*
X129868857Y-78571000D01*
X129868857Y-78571000D02*
X129726000Y-78618619D01*
X129726000Y-78618619D02*
X129487905Y-78618619D01*
X130392667Y-77618619D02*
X131011714Y-77618619D01*
X131011714Y-77618619D02*
X130678381Y-77999571D01*
X130678381Y-77999571D02*
X130821238Y-77999571D01*
X130821238Y-77999571D02*
X130916476Y-78047190D01*
X130916476Y-78047190D02*
X130964095Y-78094809D01*
X130964095Y-78094809D02*
X131011714Y-78190047D01*
X131011714Y-78190047D02*
X131011714Y-78428142D01*
X131011714Y-78428142D02*
X130964095Y-78523380D01*
X130964095Y-78523380D02*
X130916476Y-78571000D01*
X130916476Y-78571000D02*
X130821238Y-78618619D01*
X130821238Y-78618619D02*
X130535524Y-78618619D01*
X130535524Y-78618619D02*
X130440286Y-78571000D01*
X130440286Y-78571000D02*
X130392667Y-78523380D01*
%TO.C,D2*%
X136022619Y-80672094D02*
X135022619Y-80672094D01*
X135022619Y-80672094D02*
X135022619Y-80433999D01*
X135022619Y-80433999D02*
X135070238Y-80291142D01*
X135070238Y-80291142D02*
X135165476Y-80195904D01*
X135165476Y-80195904D02*
X135260714Y-80148285D01*
X135260714Y-80148285D02*
X135451190Y-80100666D01*
X135451190Y-80100666D02*
X135594047Y-80100666D01*
X135594047Y-80100666D02*
X135784523Y-80148285D01*
X135784523Y-80148285D02*
X135879761Y-80195904D01*
X135879761Y-80195904D02*
X135975000Y-80291142D01*
X135975000Y-80291142D02*
X136022619Y-80433999D01*
X136022619Y-80433999D02*
X136022619Y-80672094D01*
X135117857Y-79719713D02*
X135070238Y-79672094D01*
X135070238Y-79672094D02*
X135022619Y-79576856D01*
X135022619Y-79576856D02*
X135022619Y-79338761D01*
X135022619Y-79338761D02*
X135070238Y-79243523D01*
X135070238Y-79243523D02*
X135117857Y-79195904D01*
X135117857Y-79195904D02*
X135213095Y-79148285D01*
X135213095Y-79148285D02*
X135308333Y-79148285D01*
X135308333Y-79148285D02*
X135451190Y-79195904D01*
X135451190Y-79195904D02*
X136022619Y-79767332D01*
X136022619Y-79767332D02*
X136022619Y-79148285D01*
%TO.C,D1*%
X134821905Y-68712619D02*
X134821905Y-67712619D01*
X134821905Y-67712619D02*
X135060000Y-67712619D01*
X135060000Y-67712619D02*
X135202857Y-67760238D01*
X135202857Y-67760238D02*
X135298095Y-67855476D01*
X135298095Y-67855476D02*
X135345714Y-67950714D01*
X135345714Y-67950714D02*
X135393333Y-68141190D01*
X135393333Y-68141190D02*
X135393333Y-68284047D01*
X135393333Y-68284047D02*
X135345714Y-68474523D01*
X135345714Y-68474523D02*
X135298095Y-68569761D01*
X135298095Y-68569761D02*
X135202857Y-68665000D01*
X135202857Y-68665000D02*
X135060000Y-68712619D01*
X135060000Y-68712619D02*
X134821905Y-68712619D01*
X136345714Y-68712619D02*
X135774286Y-68712619D01*
X136060000Y-68712619D02*
X136060000Y-67712619D01*
X136060000Y-67712619D02*
X135964762Y-67855476D01*
X135964762Y-67855476D02*
X135869524Y-67950714D01*
X135869524Y-67950714D02*
X135774286Y-67998333D01*
D11*
%TO.C,D5*%
X150313000Y-55911000D02*
X149848000Y-55911000D01*
X147688000Y-55911000D02*
X147223000Y-55911000D01*
X147223170Y-55911001D02*
G75*
G03*
X147687173Y-61258814I1544830J-2559999D01*
G01*
X149848428Y-60725478D02*
G75*
G03*
X149848000Y-56216317I-1080428J2254478D01*
G01*
X147688000Y-56216316D02*
G75*
G03*
X147687571Y-60725479I1080000J-2254684D01*
G01*
X149848827Y-61258814D02*
G75*
G03*
X150312830Y-55911001I-1080827J2787814D01*
G01*
%TO.C,RV2*%
X157209000Y-83670000D02*
X157209000Y-93440000D01*
X157209000Y-83670000D02*
X147439000Y-83670000D01*
X147439000Y-83670000D02*
X147439000Y-93440000D01*
X157209000Y-93440000D02*
X147439000Y-93440000D01*
%TO.C,RV1*%
X145271000Y-83655000D02*
X145271000Y-93425000D01*
X145271000Y-83655000D02*
X135501000Y-83655000D01*
X135501000Y-83655000D02*
X135501000Y-93425000D01*
X145271000Y-93425000D02*
X135501000Y-93425000D01*
%TO.C,J4*%
X146990000Y-50530000D02*
X146990000Y-47870000D01*
X164830000Y-50530000D02*
X164830000Y-47870000D01*
X146990000Y-50530000D02*
X164830000Y-50530000D01*
X145720000Y-50530000D02*
X144390000Y-50530000D01*
X146990000Y-47870000D02*
X164830000Y-47870000D01*
X144390000Y-50530000D02*
X144390000Y-49200000D01*
%TO.C,J3*%
X152070000Y-98790000D02*
X164830000Y-98790000D01*
X150800000Y-98790000D02*
X149470000Y-98790000D01*
X149470000Y-98790000D02*
X149470000Y-97460000D01*
X152070000Y-98790000D02*
X152070000Y-96130000D01*
X164830000Y-98790000D02*
X164830000Y-96130000D01*
X152070000Y-96130000D02*
X164830000Y-96130000D01*
%TO.C,J2*%
X142986000Y-50530000D02*
X142986000Y-47870000D01*
X120066000Y-50530000D02*
X120066000Y-47870000D01*
X117466000Y-50530000D02*
X117466000Y-49200000D01*
X120066000Y-50530000D02*
X142986000Y-50530000D01*
X120066000Y-47870000D02*
X142986000Y-47870000D01*
X118796000Y-50530000D02*
X117466000Y-50530000D01*
%TO.C,J1*%
X129210000Y-98790000D02*
X129210000Y-96130000D01*
X147050000Y-98790000D02*
X147050000Y-96130000D01*
X129210000Y-98790000D02*
X147050000Y-98790000D01*
X127940000Y-98790000D02*
X126610000Y-98790000D01*
X129210000Y-96130000D02*
X147050000Y-96130000D01*
X126610000Y-98790000D02*
X126610000Y-97460000D01*
%TO.C,R10*%
X157404000Y-68528000D02*
X157404000Y-69298000D01*
X157404000Y-76608000D02*
X157404000Y-75838000D01*
X156034000Y-75838000D02*
X158774000Y-75838000D01*
X158774000Y-69298000D02*
X156034000Y-69298000D01*
X158774000Y-75838000D02*
X158774000Y-69298000D01*
X156034000Y-69298000D02*
X156034000Y-75838000D01*
%TO.C,R4*%
X155880000Y-54558000D02*
X155880000Y-55328000D01*
X155880000Y-62638000D02*
X155880000Y-61868000D01*
X154510000Y-61868000D02*
X157250000Y-61868000D01*
X157250000Y-55328000D02*
X154510000Y-55328000D01*
X157250000Y-61868000D02*
X157250000Y-55328000D01*
X154510000Y-55328000D02*
X154510000Y-61868000D01*
%TO.C,R3*%
X145466000Y-77878000D02*
X145466000Y-77108000D01*
X145466000Y-69798000D02*
X145466000Y-70568000D01*
X146836000Y-70568000D02*
X144096000Y-70568000D01*
X144096000Y-77108000D02*
X146836000Y-77108000D01*
X144096000Y-70568000D02*
X144096000Y-77108000D01*
X146836000Y-77108000D02*
X146836000Y-70568000D01*
%TO.C,R2*%
X149022000Y-77878000D02*
X149022000Y-77108000D01*
X149022000Y-69798000D02*
X149022000Y-70568000D01*
X150392000Y-70568000D02*
X147652000Y-70568000D01*
X147652000Y-77108000D02*
X150392000Y-77108000D01*
X147652000Y-70568000D02*
X147652000Y-77108000D01*
X150392000Y-77108000D02*
X150392000Y-70568000D01*
%TO.C,R1*%
X152578000Y-77878000D02*
X152578000Y-77108000D01*
X152578000Y-69798000D02*
X152578000Y-70568000D01*
X153948000Y-70568000D02*
X151208000Y-70568000D01*
X151208000Y-77108000D02*
X153948000Y-77108000D01*
X151208000Y-70568000D02*
X151208000Y-77108000D01*
X153948000Y-77108000D02*
X153948000Y-70568000D01*
%TO.C,R13*%
X136322000Y-62638000D02*
X136322000Y-61868000D01*
X136322000Y-54558000D02*
X136322000Y-55328000D01*
X137692000Y-55328000D02*
X134952000Y-55328000D01*
X134952000Y-61868000D02*
X137692000Y-61868000D01*
X134952000Y-55328000D02*
X134952000Y-61868000D01*
X137692000Y-61868000D02*
X137692000Y-55328000D01*
%TO.C,R12*%
X139878000Y-62638000D02*
X139878000Y-61868000D01*
X139878000Y-54558000D02*
X139878000Y-55328000D01*
X141248000Y-55328000D02*
X138508000Y-55328000D01*
X138508000Y-61868000D02*
X141248000Y-61868000D01*
X138508000Y-55328000D02*
X138508000Y-61868000D01*
X141248000Y-61868000D02*
X141248000Y-55328000D01*
%TO.C,R11*%
X143434000Y-62638000D02*
X143434000Y-61868000D01*
X143434000Y-54558000D02*
X143434000Y-55328000D01*
X144804000Y-55328000D02*
X142064000Y-55328000D01*
X142064000Y-61868000D02*
X144804000Y-61868000D01*
X142064000Y-55328000D02*
X142064000Y-61868000D01*
X144804000Y-61868000D02*
X144804000Y-55328000D01*
%TO.C,SW3*%
X159996000Y-69048000D02*
X159996000Y-73548000D01*
X166496000Y-73548000D02*
X166496000Y-69048000D01*
X163996000Y-67798000D02*
X162496000Y-67798000D01*
X162496000Y-74798000D02*
X163996000Y-74798000D01*
%TO.C,SW1*%
X161008000Y-60626000D02*
X162508000Y-60626000D01*
X162508000Y-53626000D02*
X161008000Y-53626000D01*
X165008000Y-59376000D02*
X165008000Y-54876000D01*
X158508000Y-54876000D02*
X158508000Y-59376000D01*
%TO.C,J11*%
X119872000Y-70596000D02*
X119872000Y-67936000D01*
X112192000Y-67936000D02*
X119872000Y-67936000D01*
X112192000Y-70596000D02*
X112192000Y-67936000D01*
X112192000Y-70596000D02*
X119872000Y-70596000D01*
X109592000Y-67936000D02*
X110922000Y-67936000D01*
X109592000Y-69266000D02*
X109592000Y-67936000D01*
%TO.C,J10*%
X128351000Y-62782000D02*
X128351000Y-60122000D01*
X123211000Y-62782000D02*
X128351000Y-62782000D01*
X121941000Y-62782000D02*
X120611000Y-62782000D01*
X123211000Y-60122000D02*
X128351000Y-60122000D01*
X120611000Y-62782000D02*
X120611000Y-61452000D01*
X123211000Y-62782000D02*
X123211000Y-60122000D01*
%TO.C,J9*%
X107112000Y-61706000D02*
X107112000Y-59046000D01*
X104512000Y-61706000D02*
X104512000Y-60376000D01*
X107112000Y-59046000D02*
X112252000Y-59046000D01*
X105842000Y-61706000D02*
X104512000Y-61706000D01*
X107112000Y-61706000D02*
X112252000Y-61706000D01*
X112252000Y-61706000D02*
X112252000Y-59046000D01*
%TO.C,J8*%
X105842000Y-54848000D02*
X113522000Y-54848000D01*
X103242000Y-54848000D02*
X103242000Y-53518000D01*
X105842000Y-54848000D02*
X105842000Y-52188000D01*
X113522000Y-54848000D02*
X113522000Y-52188000D01*
X104572000Y-54848000D02*
X103242000Y-54848000D01*
X105842000Y-52188000D02*
X113522000Y-52188000D01*
%TO.C,J7*%
X119050000Y-52442000D02*
X131810000Y-52442000D01*
X131810000Y-55102000D02*
X131810000Y-52442000D01*
X119050000Y-55102000D02*
X119050000Y-52442000D01*
X116450000Y-55102000D02*
X116450000Y-53772000D01*
X117780000Y-55102000D02*
X116450000Y-55102000D01*
X119050000Y-55102000D02*
X131810000Y-55102000D01*
%TO.C,J6*%
X161214000Y-91424000D02*
X159884000Y-91424000D01*
X165084000Y-91424000D02*
X165084000Y-88764000D01*
X162484000Y-91424000D02*
X165084000Y-91424000D01*
X162484000Y-91424000D02*
X162484000Y-88764000D01*
X159884000Y-91424000D02*
X159884000Y-90094000D01*
X162484000Y-88764000D02*
X165084000Y-88764000D01*
%TO.C,J5*%
X161209000Y-86598000D02*
X159879000Y-86598000D01*
X165079000Y-86598000D02*
X165079000Y-83938000D01*
X162479000Y-86598000D02*
X165079000Y-86598000D01*
X162479000Y-86598000D02*
X162479000Y-83938000D01*
X159879000Y-86598000D02*
X159879000Y-85268000D01*
X162479000Y-83938000D02*
X165079000Y-83938000D01*
%TO.C,D3*%
X130206000Y-72547000D02*
X130206000Y-75637000D01*
X130206000Y-75636830D02*
G75*
G03*
X135756000Y-74091538I2560000J1544830D01*
G01*
X135755999Y-74092462D02*
G75*
G03*
X130206001Y-72547170I-2989999J462D01*
G01*
X135266000Y-74092000D02*
G75*
G03*
X135266000Y-74092000I-2500000J0D01*
G01*
%TO.C,D2*%
X137064000Y-76103000D02*
X137064000Y-79193000D01*
X137064000Y-79192830D02*
G75*
G03*
X142614000Y-77647538I2560000J1544830D01*
G01*
X142613999Y-77648462D02*
G75*
G03*
X137064001Y-76103170I-2989999J462D01*
G01*
X142124000Y-77648000D02*
G75*
G03*
X142124000Y-77648000I-2500000J0D01*
G01*
%TO.C,D1*%
X142124000Y-70790000D02*
G75*
G03*
X142124000Y-70790000I-2500000J0D01*
G01*
X142613999Y-70790462D02*
G75*
G03*
X137064001Y-69245170I-2989999J462D01*
G01*
X137064000Y-72334830D02*
G75*
G03*
X142614000Y-70789538I2560000J1544830D01*
G01*
X137064000Y-69245000D02*
X137064000Y-72335000D01*
%TD*%
M02*
